<svg xmlns="http://www.w3.org/2000/svg" width="640px" height="480px" viewBox="0 0 640 480">
	<path fill="#D0103A" d="M0,0h640v480H0V0z"/>
	<path fill="#FEDF00" d="M0,0h435.2v480H0V0z"/>
	<path fill="#0018A8" d="M0,0h204.8v480H0V0z"/>
	<path fill="#D80027" d="M320.1,305.7c0-34.5,0-75.1,0-75.1h56.3v28.2c0,4.9-9.4,22.8-32.6,37.6C335.1,301.9,326,303.7,320.1,305.7
			z"/>
	<rect x="263.8" y="174.3" fill="#D80027" width="56.3" height="56.3"/>
	<path fill="#FF9811" d="M348.3,155.5c0-10.4-8.4-18.8-18.8-18.8c-3.4,0-6.6,0.9-9.4,2.5c-2.8-1.6-6-2.5-9.4-2.5
		c-10.4,0-18.8,8.4-18.8,18.8H245v93.9c0,34.9,27.8,55.2,49.5,65.6c-1.6,2.8-2.6,6-2.6,9.5c0,10.4,8.4,18.8,18.8,18.8
		c3.4,0,6.6-0.9,9.4-2.5c2.8,1.6,6,2.5,9.4,2.5c10.4,0,18.8-8.4,18.8-18.8c0-3.5-1-6.7-2.6-9.5c21.8-10.5,49.5-30.7,49.5-65.6v-93.9
		H348.3z M367,249.4c0,4.9,0,19.8-23.2,34.5c-8.8,5.6-17.9,9.2-23.8,11.2c-5.9-2-15-5.6-23.8-11.2c-23.2-14.7-23.2-29.6-23.2-34.5
		v-65.7H367V249.4z"/>
</svg>
