<svg xmlns="http://www.w3.org/2000/svg" width="640px" height="480px" viewBox="0 0 640 480">
	<path d="M0,0h640v480H0V0z"/>
	<path fill="#009900" d="M426.7,0H640v480H426.7V0z"/>
	<path fill="#BF0000" d="M213.3,0h213.4v480H213.3V0z"/>
	<rect x="288.5" y="240.5" fill="#F5F5F5" width="11.8" height="3.9"/>
	<polygon fill="#F5F5F5" points="355.2,279.7 284.6,279.7 288.5,271.9 351.3,271.9 	"/>
	<polygon fill="#F5F5F5" points="355.2,216.9 284.6,216.9 288.5,224.8 351.3,224.8 	"/>
	<polygon fill="#F5F5F5" points="339.5,220.8 300.3,220.8 308.1,213 331.7,213 	"/>
	<rect x="288.5" y="260.1" fill="#F5F5F5" width="11.8" height="7.9"/>
	<rect x="288.5" y="248.3" fill="#F5F5F5" width="11.8" height="7.9"/>
	<rect x="288.5" y="228.7" fill="#F5F5F5" width="11.8" height="7.9"/>
	<rect x="339.5" y="260.1" fill="#F5F5F5" width="11.8" height="7.9"/>
	<rect x="339.5" y="248.3" fill="#F5F5F5" width="11.8" height="7.9"/>
	<rect x="339.5" y="228.7" fill="#F5F5F5" width="11.8" height="7.9"/>
	<rect x="339.5" y="240.5" fill="#F5F5F5" width="11.8" height="3.9"/>
	<rect x="292.4" y="197.3" fill="#F5F5F5" width="7.9" height="15.7"/>
	<path fill="#F5F5F5" d="M300.3,193.3h-7.9v-3.9c0-2.2,1.8-3.9,3.9-3.9l0,0c2.2,0,3.9,1.8,3.9,3.9V193.3L300.3,193.3z"/>
	<rect x="339.5" y="197.3" fill="#F5F5F5" width="7.9" height="15.7"/>
	<path fill="#F5F5F5" d="M347.4,193.3h-7.9v-3.9c0-2.2,1.8-3.9,3.9-3.9l0,0c2.2,0,3.9,1.8,3.9,3.9V193.3L347.4,193.3z"/>
	<path fill="#F5F5F5" d="M319.9,228.7L319.9,228.7c-8.7,0-15.7,7-15.7,15.7v23.6h31.4v-23.6C335.6,235.7,328.6,228.7,319.9,228.7z"
	/>
	<path fill="#F5F5F5" d="M293.9,253.4l-21.4-24.9c0.1-0.4,0.3-0.8,0.3-1.3c0-2.2-1.8-3.9-3.9-3.9s-3.9,1.8-3.9,3.9s1.8,3.9,3.9,3.9
		c0.2,0,0.4-0.1,0.7-0.1l2.2,2.6l-10.7,25l11.8,11.8l10.2-23.7l8,9.3L293.9,253.4z M274.8,261.6l-9.4-9.4l4.2-9.9l9.4,9.4
		L274.8,261.6z"/>
	<path fill="#F5F5F5" d="M349,256l8-9.3l10.2,23.7l11.8-11.8l-10.7-25l2.2-2.6c0.2,0,0.4,0.1,0.7,0.1c2.2,0,3.9-1.8,3.9-3.9
		s-1.8-3.9-3.9-3.9s-3.9,1.8-3.9,3.9c0,0.5,0.1,0.9,0.3,1.3L346,253.4L349,256z M360.9,251.7l9.4-9.4l4.2,9.9l-9.4,9.4L360.9,251.7z
		"/>
	<path fill="#F5F5F5" d="M324.4,190.1c-1.2-0.4-2.3-1-3-2.1c-0.5-0.7-0.9-1.5-1.4-2.5c-0.5,0.9-0.9,1.8-1.4,2.5
		c-0.7,1.1-1.8,1.8-3,2.1c-6.5,1.9-11.3,7.9-11.3,15c0,1.4,0.2,2.7,0.6,3.9h30.3c0.3-1.3,0.6-2.6,0.6-3.9
		C335.6,198,330.9,192,324.4,190.1z"/>
	<path fill="#F5F5F5" d="M229.9,247.9c-0.2-2.4-0.3-4.9-0.3-7.4c0-5,0.5-10,1.3-14.9c1.1,0.8,2.3,1.6,3.5,2.6
		c-0.6,4-0.9,8.1-0.9,12.3c0,2.9,0.1,5.8,0.4,8.6l8.3,2.5c-0.5-3.6-0.9-7.3-0.9-11.1c0-1.9,0.1-3.7,0.3-5.6c4.3,4.8,7.8,10.6,7.8,17
		c0,0.2,12.6-18.7-10.3-39.4l-0.2,8.8l-13.2-0.1c-1.2,0-2.2,0.8-2.4,2c-1,5.6-1.5,11.4-1.5,17.3c0,1.7,0,3.3,0.1,5L229.9,247.9z"/>
	<path fill="#F5F5F5" d="M264.8,169c1.7-1.3,2-3.8,0.7-5.5c-1.3-1.7-3.8-2-5.5-0.7c-17.8,13.7-30,32.6-35.2,53.7l8.1,0.1
		C237.9,197.9,248.9,181.2,264.8,169z"/>
	<path fill="#F5F5F5" d="M259.5,178.8c-8.5,8.4-15,18.2-19.4,28.9c2.4,2,4.4,4,6.1,6c4-10.9,10.3-20.9,18.8-29.3
		c1.5-1.5,1.6-4,0.1-5.6C263.5,177.3,261.1,177.2,259.5,178.8z"/>
	<path fill="#F5F5F5" d="M245.9,291.9c-5.8-8.4-10.3-17.7-13-27.8l4.6,1.7c2.9,9.2,7.2,17.7,12.7,25.3l8.7-1.6
		c-4.9-6.1-8.9-12.9-11.9-20.2l5.1,1.9c2.9,6.4,6.7,12.3,11.1,17.6l9-1.7c-3.5-3.6-6.6-7.7-9.3-12.1l-5.2-10.4
		c-1.6-3.2-4.5-5.6-7.9-6.7l-12.4-3.7l-2.9-0.9l-4.1-1.2l-8.2-2.5l-4.4-1.3l2.7,8.1c0.6,1.8,1.8,3.3,3.4,4.2
		c2.5,11.9,7.1,23,13.5,32.8L245.9,291.9z"/>
	<path fill="#F5F5F5" d="M400.9,221.3l-0.2-8.8c-22.9,20.8-10.3,39.6-10.3,39.4c0-6.4,3.4-12.2,7.8-17c0.1,1.8,0.3,3.7,0.3,5.6
		c0,3.8-0.4,7.5-0.9,11.1l8.3-2.5c0.3-2.8,0.4-5.7,0.4-8.6c0-4.1-0.3-8.2-0.9-12.3c1.2-1,2.4-1.8,3.5-2.6c0.8,4.9,1.3,9.8,1.3,14.9
		c0,2.5-0.1,5-0.3,7.4l8.1-2.4c0.1-1.6,0.1-3.3,0.1-5c0-5.9-0.5-11.6-1.5-17.3c-0.2-1.2-1.3-2-2.4-2L400.9,221.3z"/>
	<path fill="#F5F5F5" d="M407,216.6l8.1-0.1c-5.3-21.1-17.5-40-35.2-53.7c-1.7-1.3-4.2-1-5.5,0.7c-1.3,1.7-1,4.2,0.7,5.5
		C390.9,181.2,401.9,197.9,407,216.6z"/>
	<path fill="#F5F5F5" d="M399.7,207.7c-4.4-10.7-10.9-20.5-19.4-28.9c-1.5-1.5-4-1.5-5.6,0.1c-1.5,1.5-1.5,4,0.1,5.6
		c8.6,8.4,14.9,18.4,18.8,29.3C395.3,211.7,397.3,209.7,399.7,207.7z"/>
	<path fill="#F5F5F5" d="M417.6,249.6l-8.2,2.5l-4.1,1.2l-2.9,0.9l-12.4,3.7c-3.5,1-6.3,3.5-7.9,6.7l-5.2,10.4
		c-2.7,4.4-5.8,8.5-9.3,12.1l9,1.7c4.5-5.2,8.2-11.1,11.1-17.6l5.1-1.9c-2.9,7.4-7,14.2-11.9,20.2l8.7,1.6
		c5.5-7.6,9.9-16.2,12.7-25.3l4.6-1.7c-2.8,10.1-7.2,19.4-13,27.8l8.5,1.6c6.4-9.9,11-21,13.5-32.8c1.6-1,2.8-2.5,3.4-4.2l2.7-8.1
		L417.6,249.6z"/>
	<path fill="#F5F5F5" d="M360.8,293l-0.2,0.2c-11.4,8.8-25.6,14-40.7,14c-15.1,0-29.3-5.2-40.7-14L279,293c-1.5-1.6-3.7-2.4-5.9-1.9
		l-39.6,8.2l8.8,7.7c2.3,2.1,5.4,3,8.4,2.8c7.1,7,15.2,13,24.1,17.7l-2.6,4.7c14.2,7.7,30.4,12.1,47.7,12.1
		c17.3,0,33.5-4.4,47.7-12.1l-2.6-4.7c8.9-4.6,17-10.6,24.1-17.7c3,0.2,6-0.8,8.4-2.8l8.8-7.7l-39.6-8.2
		C364.5,290.7,362.3,291.4,360.8,293z M278.6,320.6c-7.1-3.7-13.6-8.4-19.5-13.8l3.8-1.8c5.3,4.7,11.2,8.8,17.5,12.1L278.6,320.6z
		 M380.8,306.9c-5.9,5.4-12.4,10.1-19.5,13.8l-1.9-3.4c6.4-3.3,12.2-7.4,17.5-12.1L380.8,306.9z M319.9,319
		c-18.7,0-35.8-6.6-49.3-17.6l3.9-1.9c12.7,9.8,28.6,15.5,45.4,15.5c16.8,0,32.7-5.7,45.4-15.5l3.9,1.9
		C355.7,312.4,338.6,319,319.9,319z"/>
	<path fill="#F5F5F5" d="M276.8,287.5c1.7,1.4,3.4,2.8,5.3,4h75.7c1.8-1.3,3.6-2.6,5.3-4l-3.8-3.8h-78.5L276.8,287.5z"/>
</svg>
