<svg xmlns="http://www.w3.org/2000/svg" width="640px" height="480px" viewBox="0 0 640 480">
<path d="M0.3,0.6h639.5v202.6H0.3L0.3,0.6z"/>
<path fill="#0061FF" d="M94.7,190.5h473.4v106.7H94.7L94.7,190.5z"/>
<path fill="#E20000" d="M640,1.7V480H320L640,1.7L640,1.7z M0,1.7V480h320L0,1.7L0,1.7z"/>
<path fill="#FFD600" d="M487.6,190.6L416,172.5l60.8-45.9l-74.7,10.7l38.4-65.2l-66.3,38.4l12-75.8l-44.9,59.8l-18.1-69.4
	l-20.3,71.5l-44.8-60.9l12.8,78l-66.4-40.6l38.4,65.2l-72.6-11.7l59.8,44.8l-74.9,19.2H487.6L487.6,190.6z"/>
</svg>
