<svg xmlns="http://www.w3.org/2000/svg" width="640px" height="480px" viewBox="0 0 640 480">
	<rect fill="#000066" width="640" height="480"/>
	<path fill="#F5F5F5" d="M461.3,260.2c-1.5,19.6-7.6,143.9,71.3,172c78.9-28.2,72.8-152.4,71.3-172c-9.5,3.7-44.2,15.1-71.3-4.2
		C505.4,275.2,470.8,263.9,461.3,260.2z"/>
	<path fill="#FFA028" d="M571.4,285.3c-4.3-3.3-12.3,2.9-21.3,2.2c-8.3-0.6-18.6-9.1-31.9-5.3c-3.7-3.3-1.9-11.3-1.9-11.3
			c-9.3,6-9.9,14.1-9.3,18.6c-6.6,8.7-6.2,22.1-5,26c1.6,5.3,4.6,6,5.1,11.9c0.5,6,2.7,3.8,2.7,3.8c4.6-2.6,5.3-7.4,7.3-15.5
			c7.6,1,12.4-5.8,12.4-5.8c-5,1.5-8.1-1.1-9.8-3.6c0.2-0.7,0.5-1.5,0.7-2.4c5.6-15.4,32.5-11.2,35-6.9c4.5,7.7,10.4,10.5,10.4,10.5
			c0-8.1-6-15-6-15C569.1,291,571.4,285.3,571.4,285.3z M506.8,318.3c-0.9,0-1.6-0.7-1.6-1.6s0.7-1.6,1.6-1.6c0.9,0,1.6,0.7,1.6,1.6
			C508.4,317.5,507.8,318.3,506.8,318.3z"/>
	<path fill="#FFA028" d="M545,383.6c5.2-1.6,4.6-11.8,10.3-18.9c5.2-6.6,18-10.2,22.6-23.2c4.8-1.1,10.4,4.8,10.4,4.8
			c0.4-11-6.1-16.2-10-18.2c-3.5-10.4-14.6-17.6-18.7-18.9c-5.2-1.7-7.6,0.5-12.6-2.5c-5.1-3-4.7,0-4.7,0c-0.5,5.3,3.2,8.7,8.7,14.8
			c-5.1,5.7-2.4,13.5-2.4,13.5c1.5-5,5.6-6,8.4-6c0.5,0.6,1,1.2,1.5,2c9.4,13.4-9.2,33-14.1,32.6c-8.9-0.6-14.6,2.6-14.6,2.6
			c6.6,4.6,15.8,3.7,15.8,3.7C541.7,378.4,545,383.6,545,383.6z M554.4,311.8c0.5-0.7,1.5-0.9,2.2-0.4s0.9,1.5,0.4,2.2
			c-0.5,0.7-1.5,0.9-2.2,0.4C554.2,313.6,553.9,312.6,554.4,311.8z"/>
	<path fill="#FFA028" d="M474.4,312.4c-0.7,5.5,8.8,9.2,12.8,17.2c3.7,7.4,1.6,20.6,11.5,30.3c-1,4.8-8.7,7.3-8.7,7.3
			c9.8,5,17.2,1.4,20.7-1.4c10.9,1.2,22.1-6,24.9-9.1c3.7-4.1,2.7-7.1,7.6-10.4c4.8-3.5,2-4.3,2-4.3c-4.6-2.7-9.2-0.7-17.1,1.6
			c-3-6.9-11.3-7.8-11.3-7.8c3.8,3.5,3.1,7.6,1.9,10.2c-0.9,0.1-1.6,0.4-2.5,0.5c-16.1,3-26-22.3-23.7-26.5
			c4.3-7.8,3.8-14.4,3.8-14.4c-6.9,4.1-9.9,12.8-9.9,12.8C480.5,311.6,474.4,312.4,474.4,312.4z M535.6,351.3
			c0.5,0.7,0.2,1.7-0.6,2.2c-0.7,0.5-1.7,0.2-2.2-0.6c-0.5-0.7-0.2-1.7,0.6-2.2C534.2,350.3,535.2,350.5,535.6,351.3z"/>
	<path fill="#CDCE0C" d="M532.6,436.3l-0.6-0.2c-88.8-30.9-74.5-177.3-74.3-178.8l0.2-2.6l2.5,1.1c0.4,0.2,41.7,18.5,71.1-3.6
		l1.1-0.9l1.1,0.9c29.5,22.1,70.7,3.8,71.1,3.6l2.5-1.1l0.2,2.6c0.1,1.5,14.5,148-74.3,178.8L532.6,436.3z M461.3,260.2
		c-1.5,19.6-7.6,143.9,71.3,172c78.9-28.2,72.8-152.4,71.3-172c-9.5,3.7-44.2,15.1-71.3-4.2C505.4,275.2,470.8,263.9,461.3,260.2z"
	/>
	<path fill="#82AFFF" d="M483.1,388.1c10.8,19.6,26.5,36,49.5,44.2c22.9-8.2,38.7-24.6,49.5-44.2H483.1z"/>
	<path fill="#FFFFFF" d="M13.8,240h23.9l127.8-76.7V240h68.9v-76.7L362.3,240h23.9c7.7,0,13.8-5.7,13.8-12.6v-10l-109.7-65.8h109.9
	V88.4H290.4l109.7-65.8v-10c0-7-6.3-12.6-13.8-12.6h-23.9L234.6,76.7V0h-68.9v76.7L42.7,2.9c-14.4,4.3-26.3,13.3-33.9,25l101,60.5H0
	v63.1h109.7L0,217.4v10C0,234.3,6.3,240,13.8,240z"/>
	<polygon fill="#FF4B55" points="400.1,101 220.7,101 220.7,0 179.4,0 179.4,101 0,101 0,139 179.4,139 179.4,240 220.7,240
		220.7,139 400.1,139 	"/>
	<path fill="#FF4B55" d="M13.6,21.3l112.7,67h25.3L23.4,12.2C20,14.9,16.6,18,13.6,21.3z"/>
	<path fill="#FF4B55" d="M259.9,88.4L398.1,6.3c-2.3-3.7-6.6-6.3-11.7-6.3h-3L234.6,88.4H259.9z"/>
	<path fill="#FF4B55" d="M139.9,151.6L0,233.6c2.3,3.9,8.6,6.4,13.8,6.4h2.7l148.8-88.4H139.9z"/>
	<path fill="#FF4B55" d="M399.9,228.4l-129.3-76.9h-25.3l146.8,87.2C396.5,236.9,399.5,233,399.9,228.4z"/>
</svg>
