<svg xmlns="http://www.w3.org/2000/svg" width="640px" height="480px" viewBox="0 0 640 480">
  <path fill="#FF0000" d="M0,0h640v236.4H0V0z"/>
  <path d="M0,236.4h640V480H0V236.4z"/>
  <path fill="#FFEC00" d="M228.7,148.2c165.2,43.3,59,255.6-71.3,167.2l-8.8,13.6c76.7,54.6,152.6,10.6,174-46.4
	c22.2-58.8-7.6-141.5-92.6-150L228.7,148.2L228.7,148.2z"/>
  <path fill="#FFEC00" d="M170,330.8l21.7,10.1l-10.2,21.8l-21.7-10.2L170,330.8z M319,231.3h24v24h-24V231.3z M307.3,192.4l22.3-8.6
	l8.7,22.3l-22.3,8.7L307.3,192.4z M281.3,163.3l17.1-16.9l16.9,17l-17,16.9L281.3,163.3z M255.1,123.5l22.4,8.4l-8.5,22.4l-22.4-8.4
	L255.1,123.5z M316,270l22.3,8.9l-9,22.2l-22.2-8.9L316,270z M246.1,340l22-9.3l9.5,22l-22,9.4L246.1,340z M206.6,342.8h24v24h-24
	V342.8z M247.9,226.8l-20.3-15l-20.3,14.6l8-23l-20.3-15h24.5l8.5-22.6l7.8,22.7l24.7-0.3l-19.6,15.3L247.9,226.8L247.9,226.8z"/>
  <path fill="#FFEE00" d="M336,346.4c-1.2,0.4-6.2,12.4-9.7,18.2l3.7,1c13.6,4.8,20.4,9.2,26.2,17.5c2.8,2.7,7.1,3,10.2,0.7
	c0,0,2.8-1,6.4-5c3-4.5,2.2-8-1.4-11.1C360.4,359.7,348.5,353.7,336,346.4L336,346.4z"/>
  <path d="M365.3,372.8c0,2.4-1.9,4.4-4.4,4.4s-4.4-1.9-4.4-4.4c0-2.4,1.9-4.3,4.3-4.3c2.4,0,4.3,1.9,4.3,4.3H365.3z M343.9,359.2
	c0,2.4-1.9,4.4-4.4,4.4s-4.4-1.9-4.4-4.4s1.9-4.4,4.4-4.4S343.9,356.8,343.9,359.2L343.9,359.2z M354.8,366.2c0,2.4-1.9,4.4-4.4,4.4
	s-4.4-1.9-4.4-4.4s1.9-4.4,4.4-4.4S354.8,363.8,354.8,366.2L354.8,366.2z"/>
  <path fill="#FFEE00" d="M324.5,363.7c-42.6-24.3-87.3-50.5-130-74.8c-18.7-11.7-19.6-33.4-7-49.9c1.2-2.3,2.8-1.8,3.4-0.5
	c1.5,8,6,16.3,11.4,21.5c44.3,27.9,88.2,56.4,131.7,85.6c-3.4,5.8-6,12.3-9.5,18V363.7z"/>
  <path fill="#FFEC00" d="M297.2,305.5l17.8,16l-16,17.8l-17.8-16L297.2,305.5z"/>
  <path fill="none" stroke="#000000" stroke-width="3"
        d="M331.5,348.8l-125-75.5 M316.1,331.4L274,304.1 M292.2,346.8L249.3,322"/>
</svg>
