<svg xmlns="http://www.w3.org/2000/svg" width="640px" height="480px" viewBox="0 0 640 480">
	<path fill="#CF142B" d="M0,0h640v480H0V0z"/>
	<path fill="#00247D" d="M0,0h320v160H0V0z"/>
	<path fill="#FFFFFF" d="M0,0v17.9L284.2,160H320v-17.9L35.8,0H0z M320,0v17.9L35.8,160H0v-17.9L284.2,0H320z"/>
	<path fill="#FFFFFF" d="M133.3,0v160h53.4V0H133.3L133.3,0z M0,53.3v53.4h320V53.3H0z"/>
	<path fill="#CF142B" d="M0,64v32h320V64H0z M144,0v160h32V0H144z M0,160l106.7-53.3h23.8L23.8,160H0z M0,0l106.7,53.3H82.8L0,12V0z
	 M189.5,53.3L296,0h24L213.3,53.3H189.5z M320,160l-106.7-53.3h23.9L320,148V160z"/>
	<path fill="#F3F3F3" d="M410,147.2V260c0,54.9,143.6,54.9,143.6,0V147.2L410,147.2L410,147.2z"/>
	<path fill="#6DA544" d="M410,260L410,260c0,54.9,71.8,71.8,71.8,71.8s71.8-16.8,71.8-71.8v0H410L410,260z"/>
	<polygon fill="#A2001D" points="481.8,214.9 448.5,229.3 448.5,260 481.8,280.5 515.1,260 515.1,229.3 	"/>
	<rect x="448.5" y="198.5" fill="#338AF3" width="66.7" height="30.8"/>
</svg>
