<svg xmlns="http://www.w3.org/2000/svg" width="640px" height="480px" viewBox="0 0 640 480">
	<path fill="#F7E017" d="M0,0h640v480H0V0z"/>
	<path fill="#FFFFFF" d="M0,33.3v213.4l640,100V233.3L0,33.3z"/>
	<path d="M0,146.7v100l640,200v-100L0,146.7z"/>
	<path fill="#FF4B55" d="M406.5,246.1l0-0.5c0,0-0.2-2.2-0.6-6.3c-0.1-2-0.6-4.5-1.2-7.4c-0.5-2.9-1.4-6.2-2.6-9.8
			c-2.4-7.2-6.1-15.7-12.4-24c-0.8-1-1.7-2-2.5-3c3.6-4.1,7.1-8.9,10.4-14.7c0,0-18.1,0.8-38.5-8.1c-6.7-3.5-14-6.4-22-8.3
			l-3.8-15.2c-0.8-3.3-3.7-5.5-7.1-5.5h-5.3v-7.3h25.6l-7.3-14.6l7.3-14.6h-25.6v-7.3h-7.3v43.8h-5.3c-3.4,0-6.3,2.3-7.1,5.5
			l-3.7,14.9c-4.9,1.1-9.9,2.4-14.6,4.4c-3.9,1.6-7.7,3.5-11.4,5.7c-18.7,7.2-34.7,6.5-34.7,6.5c3.3,5.8,6.8,10.6,10.4,14.7
			c-0.7,0.9-1.5,1.7-2.2,2.6c-5,6.8-9,14.4-12,22.4c-2.9,7.8-4.5,17.8-5.1,25.1l0,7c-0.1,2.2,0.2,4.4,0.4,6.6
			c0.3,4.4,1.3,8.7,2.2,13.1c2.3,8.6,5.6,16.9,10.2,24.5c9.1,15.3,23,27.4,38.5,34.9c8,3.5,15.6,6.2,24.7,7.5
			c4.8,0.9,7.8,0.9,11.4,1.2l0.6,0l0.3,0l1.1,0l1.5-0.1l3-0.1c2-0.1,4-0.1,6-0.4c15.9-1.7,30.2-7.9,41.4-16
			c11.2-8.2,19.2-18.1,24.7-27.6c5.6-9.5,8.5-18.7,10.3-26.2c0.8-3.8,1.5-7.2,1.7-10.4c0.4-3.2,0.6-5.8,0.5-7.5
			C406.5,248.1,406.5,246.1,406.5,246.1z M273.7,297.6c-5.1-4-9.7-8.7-13.8-13.9c-4-5.3-7.2-11.3-9.8-17.7
			c-2.4-6.3-3.7-13.8-4.3-19.9c-0.2-8.5,0.2-14.3,1.8-21.6c1.8-6.9,4.4-13.6,7.9-19.8c0.2-0.4,0.5-0.7,0.7-1
			c16.6,13,34.1,12.1,46.4,5.8v14.3c4,0,7.3,8.2,7.3,18.3s-3.3,18.3-7.3,18.3v7.3c13.7,18.3,7.4,33.7-1,42.7
			c-3.8-0.8-7.8-1.9-11.5-3.4C284.3,304.6,278.9,301.4,273.7,297.6z M388.7,245.3c0,0.1-0.2,2-0.6,5.6c-0.1,2-0.6,3.9-1.1,6
			c-0.4,2.1-1.1,4.7-2.1,7.6c-2,5.7-5,12.5-10.1,19c-5.1,6.5-11.9,12.9-20.4,18c-6.5,3.8-14.1,6.4-22.1,8.3
			c-8.1-9.1-13.9-24.2-0.5-42v-7.3c-4,0-7.3-8.2-7.3-18.3s3.3-18.3,7.3-18.3v-14.3c12.2,6.3,29.8,7.2,46.4-5.8
			c0.3,0.5,0.6,1,0.9,1.4c4.4,7.7,6.6,15.2,8,21.2c0.7,3.1,1.1,5.8,1.2,8.2c0.3,2.4,0.4,4.4,0.3,6.1
			C388.7,243.4,388.7,244.9,388.7,245.3z"/>
	<path fill="#FF4B55" d="M317.2,355.3c-27,0-51.5-10.5-69.7-27.6c-3.4-3.1-8.7-2.8-11.6,0.7l-28,32.6c-3,3.5-0.5,8.8,4.1,8.8h17.6
			l23.5,11.7c3.3,1.6,7.3,0.6,9.3-2.5l7.6-11.3c14.6,6,30.6,9.4,47.3,9.4c16.8,0,32.7-3.4,47.3-9.4l7.6,11.3c2,3.1,6.1,4.1,9.3,2.5
			l23.5-11.7h17.6c4.6,0,7-5.4,4.1-8.8l-28-32.6c-3-3.5-8.3-3.9-11.6-0.7C368.7,344.8,344.2,355.3,317.2,355.3z"/>
	<path fill="#FF4B55" d="M214.9,326.1h-36.5l7.3-65.8c0,0-25.6-12.8-22.9-50.3c0.3-4.6,4.2-8.1,8.8-8.1h6.2c4.3,0,7.9,3.1,8.6,7.4
			c1.5,9.2,6.3,24.2,21.2,29.2L214.9,326.1z"/>
	<path fill="#FF4B55" d="M419.5,326.1H456l-7.3-65.8c0,0,25.6-12.8,22.9-50.3c-0.3-4.6-4.2-8.1-8.8-8.1h-6.2
			c-4.3,0-7.9,3.1-8.6,7.4c-1.5,9.2-6.3,24.2-21.2,29.2L419.5,326.1z"/>
</svg>
