<svg xmlns="http://www.w3.org/2000/svg" width="640px" height="480px" viewBox="0 0 640 480">
	<path fill="#007934" d="M0,0h640v480H0V0z"/>
	<path fill="#FFE000" d="M0,0h640v320H0V0z"/>
	<path fill="#D52B1E" d="M0,0h640v160H0V0z"/>
	<path fill="#FFFFFF" d="M244.4,216.2c0.6,0.9,5.7,8.3,5.7,8.3h7.3l-3-4.1L244.4,216.2z"/>
	<path fill="#FFFFFF" d="M255.4,208.9c0.6,0.9,5.7,8.3,5.7,8.3h7.3l-3-4.1L255.4,208.9z"/>
	<path fill="#FFFFFF" d="M265.7,199.6c0.3,1.1,2.8,9.7,2.8,9.7l6.9,2.3l-1.5-4.9L265.7,199.6z"/>
	<path fill="#A05A2D" d="M260.3,293.8c-0.6,0.3-1.3,0.1-1.6-0.5c-0.3-0.6-0.1-1.4,0.5-1.7l37.1-18.9c0.6-0.3,1.3-0.1,1.6,0.5
		c0.3,0.6,0.1,1.4-0.5,1.7L260.3,293.8z"/>
	<path fill="#A05A2D" d="M267.7,300.5c-0.6,0.4-1.3,0.2-1.7-0.4s-0.2-1.3,0.3-1.7l34.7-22.9c0.6-0.4,1.3-0.2,1.7,0.3
		c0.4,0.6,0.2,1.3-0.3,1.7L267.7,300.5z"/>
	<path fill="#A05A2D" d="M275.3,307c-0.5,0.5-1.2,0.6-1.7,0.1s-0.6-1.2-0.1-1.7l27.5-31.2c0.5-0.5,1.2-0.5,1.7-0.1s0.6,1.2,0.1,1.7
		L275.3,307z"/>
	<path fill="#A05A2D" d="M311.3,282l-8.6,17.7l-1.5-1.6l-3.3,4.6l-9.1-4.9l11.2-22L311.3,282z"/>
	<path fill="#D52B1E" d="M315,309.2l6.1-29.1l-0.6-25.4l-44-42.1l-3.1,9.6l-6.1-4.9l-1.8,10.1c0,0-7.7-5.5-8-4.6s-2.1,23.3-2.7,35.8
	c-0.6,12.5-1.1,31.2,12.5,33.7c23.9,4.3,41.6-13.5,41.6-13.5s5.8,5.5,6.1,6.4c0.3,0.9-2.1,11.6-3.1,15.9
	C311,305.5,315,309.2,315,309.2"/>
	<path fill="#FFE000" d="M284.4,220.8l-2.4,7l-4-2.1c0,0-10.1,51.1,6.4,55.1s18.4-2.8,18.4-2.8l-8-10.7l-6,2.7c0,0-2.9-7.9-2.9-18.6
	c0-9.6,1.5-19,1.5-19l3,2.1l0.6-7L284.4,220.8z"/>
	<path fill="#007934" d="M301.2,236.1l-10.1-8.6l-0.6,7l-4-2.7c0,0-2.2,7.4-2.2,16.8c0,9.5,1.2,18.7,1.2,18.7s7,2.4,10.7,0
	C300,264.8,301.2,236.1,301.2,236.1"/>
	<path fill="#E8A30F" d="M297.9,264.8c-8,3.4-24.2,9.5-19.9,17.2c4.3,7.6,16.8,4.6,24.8-4C310.7,269.4,297.9,264.8,297.9,264.8"/>
	<path fill="#FFFFFF" d="M397.9,216.2c-0.6,0.9-5.7,8.3-5.7,8.3h-7.3l3-4.1L397.9,216.2z"/>
	<path fill="#FFFFFF" d="M386.8,208.9c-0.6,0.9-5.7,8.3-5.7,8.3h-7.3l3-4.1L386.8,208.9z"/>
	<path fill="#FFFFFF" d="M376.6,199.6c-0.3,1.1-2.8,9.7-2.8,9.7l-7,2.3l1.5-4.9L376.6,199.6z"/>
	<path fill="#A05A2D" d="M382,293.8c0.6,0.3,1.4,0.1,1.6-0.5c0.3-0.6,0.1-1.4-0.5-1.7L346,272.7c-0.6-0.3-1.3-0.1-1.7,0.5
		c-0.3,0.6-0.1,1.4,0.5,1.7L382,293.8z"/>
	<path fill="#A05A2D" d="M374.5,300.5c0.6,0.4,1.3,0.2,1.7-0.4c0.4-0.6,0.2-1.3-0.3-1.7l-34.7-22.9c-0.6-0.4-1.3-0.2-1.7,0.3
		c-0.4,0.6-0.2,1.3,0.3,1.7L374.5,300.5z"/>
	<path fill="#A05A2D" d="M367,307c0.4,0.5,1.2,0.6,1.7,0.1s0.6-1.2,0.1-1.7l-27.5-31.2c-0.4-0.5-1.2-0.5-1.7-0.1s-0.6,1.2-0.1,1.7
		L367,307z"/>
	<path fill="#A05A2D" d="M330.9,282l8.6,17.7l1.5-1.6l3.3,4.6l9.1-4.9l-11.2-22L330.9,282z"/>
	<path fill="#D52B1E" d="M327.3,309.2l-6.1-29.1l0.6-25.4l44-42.1l3.1,9.6l6.1-4.9l1.8,10.1c0,0,7.6-5.5,7.9-4.6s2.2,23.3,2.8,35.8
	c0.6,12.5,1.1,31.2-12.5,33.7c-23.9,4.3-41.6-13.5-41.6-13.5s-5.8,5.5-6.1,6.4c-0.3,0.9,2.1,11.6,3.1,15.9
	C331.2,305.5,327.3,309.2,327.3,309.2"/>
	<path fill="#FFE000" d="M357.9,220.8l2.4,7l4-2.1c0,0,10.2,51.1-6.4,55.1s-18.4-2.8-18.4-2.8l8-10.7l6,2.7c0,0,2.9-7.9,2.9-18.6
	c0-9.6-1.5-19-1.5-19l-3,2.1l-0.6-7L357.9,220.8z"/>
	<path fill="#007934" d="M341,236.1l10.1-8.6l0.6,7l4-2.7c0,0,2.2,7.4,2.2,16.8c0,9.5-1.2,18.7-1.2,18.7s-7,2.4-10.7,0
	C342.2,264.8,341,236.1,341,236.1"/>
	<path fill="#E8A30F" d="M344.4,264.8c8,3.4,24.2,9.5,19.9,17.2c-4.3,7.6-16.8,4.6-24.8-4S344.4,264.8,344.4,264.8"/>
	<path fill="#D52B1E" d="M296.1,208.4c2.6,3,2.5,7.3-0.3,9.6c-2.7,2.3-7,1.7-9.5-1.4c-2.6-3-2.4-7.3,0.3-9.6
	C289.2,204.8,293.5,205.4,296.1,208.4"/>
	<path fill="#E7E7E7" d="M347.4,208.4c-2.6,3-2.4,7.3,0.3,9.6c2.7,2.3,7,1.7,9.5-1.4c2.6-3,2.5-7.3-0.3-9.6
	C354.3,204.8,350,205.4,347.4,208.4"/>
	<g transform="translate(18 19.03)">
		<path fill="#007934" d="M303.1,206.7v-11c0,0-18.1-8.6-19.3-19.3c-1.2-10.7,4.9-20.5,2.8-22s-13.5,8.3-14.1,18.7
		s9.9,26.1,16.8,29.1C296.3,205.1,303.1,206.7,303.1,206.7"/>
		<path fill="#007934" d="M303.1,206.7v-11c0,0,18-8.6,19.3-19.3c1.2-10.7-4.9-20.5-2.8-22s13.5,8.3,14.1,18.7s-9.9,26.1-16.8,29.1
		C310,205.1,303.1,206.7,303.1,206.7"/>
	</g>
	<path d="M321.1,214.3c0,0,1.8-6.4,13.8-10.1c11.9-3.7,23.2-6.4,27.5-6.7s-15.6-6.4-20.7-7c-5-0.6-9-0.6-9.9,3.1s-6.1,1.5-10.7,2.1
	s-9.8-0.9-11.9-4s-5.8-1.8-9.8-1.5s-21.4,7.3-21.4,7.3s26.3,4.3,31.8,7c5.5,2.8,0.3,12.6-1.2,15.3
	C307.1,222.6,317.7,219,321.1,214.3"/>
	<path fill="#00A6DE" d="M288.4,251c0-19.8,14.7-35.8,32.7-35.8c18.1,0,32.7,16,32.7,35.8s-14.6,35.8-32.7,35.8
	C303.1,286.9,288.4,270.8,288.4,251"/>
	<path fill="#E8A30F" d="M297.1,251c0-15.5,10.8-28.1,24-28.1c13.3,0,24,12.6,24,28.1c0,15.6-10.8,28.2-24,28.2
	S297.1,266.6,297.1,251"/>
	<path fill="#D52B1E" d="M310.7,238.8c0-5.7,4.7-10.4,10.4-10.4c5.8,0,10.4,4.7,10.4,10.4c0,5.8-4.7,10.4-10.4,10.4
	C315.4,249.2,310.7,244.5,310.7,238.8"/>
	<path fill="#007934" d="M321.1,279.2c12.8,0,23.2-11.6,24-26.4c-7.8-2.9-20.8-14-24-14c-3.4,0-7.6,3.7-13.2,8.6
	c-2.8,2.5-7.2,4.6-10.8,5.9C298.2,267.8,308.5,279.2,321.1,279.2"/>
	<path fill="#E8A30F" d="M324.2,198.1c0,1.5-3.2,2.8-7,2.8c-3.9,0-7-1.2-7-2.8c0-1.5,3.2-2.8,7-2.8S324.2,196.6,324.2,198.1"/>
	<path fill="#FFFFFF" d="M309,264.8h7.3l2.1-6.1l2.8,3.4l-3.1,8.9h-6.7L309,264.8z"/>
	<path fill="#B37D0A" d="M327.6,270c0,2.9-1.4,5.2-3.2,5.2s-3.2-2.3-3.2-5.2c0-2.9,1.4-5.2,3.2-5.2S327.6,267.2,327.6,270"/>
	<path fill="#B37D0A" d="M332.2,275.2c0,0.3-0.3,0.6-0.6,0.6c-0.3,0-0.6-0.3-0.6-0.6v-15.9c0-0.3,0.3-0.6,0.6-0.6
		c0.3,0,0.6,0.3,0.6,0.6V275.2z"/>
	<path fill="#32B266" d="M336.8,257.8c0,2.7-2.4,4.9-5.3,4.9c-3,0-5.3-2.2-5.3-4.9c0-2.7,2.4-4.9,5.3-4.9S336.8,255.1,336.8,257.8"/>
</svg>
