<svg xmlns="http://www.w3.org/2000/svg" width="640px" height="480px" viewBox="0 0 640 480">
	<path fill="#FFD520" d="M0.1,0h640.1v480H0.1V0z"/>
	<path fill="#FF4E12" d="M0.1,480h640.1V0L0.1,480z"/>
	<path fill="#FFF5DC" d="M353.5,124c-7,1.5-17.9-2.2-17.9-2.2c2.3,3.9,8.3,6.5,13.7,8.1c-4.4,0.4-9.4,0.7-14.9,0.6
			c-22.3-0.5-32.8,14.1-32.8,14.1c7.9-5,16.1-5,28.3-3.2c12.2,1.7,38-6,38-6l2.2-9.9C370.1,125.5,360.4,122.6,353.5,124z"/>
	<path fill="#FFF5DC" d="M376.4,77.5c0,0,11.5,2.4,23.3,9.2c-0.7,0.4-1.4,0.8-2,1.4c-3.8-1.9-8.4-3.4-14.3-4c0,0,6.1,1.6,12,6.2
			c-1.5,1.8-2.8,3.8-3.8,5.7c-13-13.9-27-4.6-27-4.6c17.4-1.3,21.5,9.9,22.5,15.3c-3.4-2.3-6.6-4.1-9.5-5.6c0.4-0.3,0.7-0.6,1.2-1
			c0,0-1.1,0-2.6,0.3C353.9,89.6,343,98,343,98c9.9-1.2,19,1.4,26.2,4.6c-3.2,1.8-5.3,5.1-3.6,10.5c-12.5-3.4-28.1-6.7-35.8-4.7
			c-13.9,3.7-9.4,16.6-9.4,16.6s0.2-8.7,9.7-10.7c7.1-1.5,42.2,9.7,42.2,9.7l11.4-5.5l-4.7-4c0,0-9.1-3.6-5.2-9.9
			c6.5,3.5,10.6,6.9,10.6,6.9l2.8-4.1c0.1,1.1,0.2,1.8,0.2,1.8l7.9-3.5l1.7-2.5c0.7-3.8,1.8-6.4,3.2-8.5c2.3,2.9,4.2,6.5,5.1,10.9
			l7.2,0.7c0,0-1.2-8.3-9.2-14.9c0.7-0.5,1.4-0.9,2.1-1.2c5.3,3.8,10.3,8.6,13.7,14.5l13.3-0.2C432.5,104.8,410.7,80.5,376.4,77.5z"
	/>
	<circle fill="#FFF5DC" cx="503.1" cy="194.8" r="16.6"/>
	<circle fill="#FFF5DC" cx="464.3" cy="334.7" r="22.3"/>
	<circle fill="#FFF5DC" cx="294.2" cy="323.9" r="17.7"/>
	<circle fill="#FFF5DC" cx="253.6" cy="407.9" r="20.4"/>
	<path fill="#FFF5DC" d="M448,151.4c0,0,38.2,13.6,47.5,18.2c13,6.5,33.5-12.5,47.8,2.2c0,0-2.5-9.8-14.4-10.5
			c0,0,0.2-9.7-10.9-9.2c0,0,8.2,6,3.5,10.2c0,0-3.2-7.2-12.4-6c0,0,6.9,2.7,5.2,6.9c0,0-11,5.3-16,1.9c-5-3.5-44.2-24.6-56.6-25.1
			L448,151.4z"/>
	<path fill="#F5F5F5" d="M438.2,163.3c0,0,8.2,2.4,20.1,14.9c5.5,5.8,19.7,6.1,17.5-5c-2.2-11.2-29.8-18.1-32.8-18.1
		C440.1,155.1,438.2,163.3,438.2,163.3z"/>
	<path fill="#FFF5DC" d="M497.9,138.7l-15.6,5.2c0,0,1.7,10.6-7.2,15.3c-5.5,2.9-9.2,10.3-8.9,15.8c0,0,5.2-7.2,12.7-11.2
			c1.8-0.9,3.4-1.8,4.8-2.6c-0.3,3.7-0.4,7.6,0.1,11c1.5,10.2-1.7,13.7-1.7,13.7s8.7-6.7,7.7-17.6c-0.4-4.2,0.3-7.2,1.4-9.4
			c0.8,7.6,4.8,11.2,4.8,11.2c-3-6,3.2-12.4,5.7-17.6C504.1,147.1,497.9,138.7,497.9,138.7z"/>
	<path fill="#FFF5DC" d="M537.4,117.1c-6.2-2.1-12.1,1.7-15.6,4.8c-1.5,1.3-5.5,2-9.5,2.4c2.7-1.9,5.6-4.2,7.1-6.1
			c3.3-4.3,9.5-5,14.7-6.7c5.2-1.7,7.4-8.4,7.4-8.4s-2.8,4.1-10.6,3.7c-7.8-0.4-10.4-0.7-15.6,4.8c-1.6,1.7-3.8,3-6.2,4.1
			c0.1-2.4,0.3-5.5,1-7.6c1.3-3.9,7.3-7.1,7.6-14.9c0.4-7.8,0.7-7.1,5.2-11.7c4.5-4.7,5.8-13.4,4.5-10.6c-1.3,2.8-7.3,6.1-12.3,10.8
			c-5,4.7-1.5,9.9-4.1,14c-2.6,4.1-8.7,5-9.1,12.7c-0.4,7.6-5.8,12.1-5.8,12.1s-13.2,7.3,2.6,13c15.8,5.8,28.6-10.3,36.5-9.9
			c17.5,0.9,22.2-4.8,22.2-4.8C554.4,118.8,546.7,120.3,537.4,117.1z"/>
	<path fill="#FFF5DC" d="M345.5,239.7c-1-0.7-18.1-19.6-23.8-22.3l1.2,4.7c0,0-3.7-0.2-10.4-8.4c-6.7-8.2-11.7-10.4-11.7-10.4
			s4.7,7.4,4.5,12.2c0,0-10.2-0.7-21.1,4.5c0,0-5-9.7-9.2-11.4c0,0,1.5,10.2-2,12.7c-3.5,2.5,32.8,19.6,37.7,20.1
			C315.7,241.7,345.5,239.7,345.5,239.7z"/>
	<path fill="#FFF5DC" d="M368.1,202.7c-0.4-0.1-2.2,1.2-4.5,2.9c-1-6-3.1-18.2-3.1-18.8c0-0.7-16.9-24.3-17.4-25.3c0,0-0.1,0-0.1,0
			c1.6-4,3.4-10.7-6.6-5.4c-13.7,7.2-19.1,23.8-19.1,23.8c3.1-3.2,8.5-5.7,12.9-7.3c0.1,2,0.1,4.4-2.7,8.6
			c-5.7,8.4-2.5,11.7-2.5,11.7c4.5-7.7,14.4-8.4,14.4-8.4c-1.5,9.2,3.7,14.4,3.7,14.4l4.2-5c-0.5,7.1,3.3,14.7,5.6,18.7
			c-0.9,0.5-1.8,0.8-2.4,0.9c-4.2,0.5-10.9,3.7-10.9,3.7s5.4-1.2,8.5,1.2c3.1,2.4,8,4.2,10.7,3.6c0,0-1.3,6.4,0.1,8.8
			c0,0-3.5-1-7.6-0.8c-4.1,0.1-7-2.7-7-2.7s7.4,10.7,12.9,12.9s14.9-6,14.9-6S369.1,203,368.1,202.7z"/>
	<path fill="#FFF5DC" d="M239.8,358.3c0,0-4.7,0.5-9.2,7.2l-2-6.9c0,0-5.5,4-11.4,1.5c0,0,5.5-1.2,6.5-6.2s3-5.5,3-5.5
			s-3.7-4-7.7-3.7c0,0,10.9-5.7,16.9-0.2C241.8,349.9,239.8,358.3,239.8,358.3z"/>
	<path fill="#FFF5DC" d="M371.1,303.5c0,0-4.7,0.5-9.2,7.2l-2-7c0,0-5.5,4-11.4,1.5c0,0,5.5-1.2,6.5-6.2c1-5,3-5.5,3-5.5
			s-3.7-4-7.7-3.7c0,0,10.9-5.7,16.9-0.2C373.1,295.1,371.1,303.5,371.1,303.5z"/>
	<path fill="#FFF5DC" d="M451.6,232.9c0,0-2.3,4.1,0.6,11.7l-6.8-2.4c0,0,0.1,6.8-5.3,10.2c0,0,2.1-5.2-1.4-8.8
			c-3.5-3.7-2.8-5.6-2.8-5.6s-5.4,0.8-7.5,4.2c0,0,1.6-12.2,9.5-14C445.8,226.4,451.6,232.9,451.6,232.9z"/>
	<path fill="#FF6E55" d="M475.5,316.8l4.8,2.9C478.9,318.4,477.2,317.5,475.5,316.8z"/>
	<path fill="#FFF5DC" d="M204.5,340.7c0,0-22.1,31-47.4,37.7l8.9-11.4c0,0-11.9,10.4-25.3,12.7l16.1-18.6c0,0-36,33.5-82.2,40.5
		c0,0,35.7-22.6,42.9-30.5c0,0-17.4,7-33,7.2c0,0,44.9-17.4,52.4-24.3c0,0-17.9,4-29,0.2c0,0,38.7-11.2,44.2-9.7
		c0,0-22.3-8.9-35.7-7.9c0,0,22.8-5.5,49.4,0l-5.7-6.2c0,0,15.1-4,30-5c14.9-1,7.4-2.2,7.4-2.2l1.7-5c0,0-9.7,1.2-17.6,0
		c0,0,23.8-13.4,30.5-19.4c6.7-6,2.2-3.2,2.2-3.2s-12.4,4.2-16.9,5c0,0,11.2-12.9,14.6-21.3c0,0-10.2,4-18.9,0c0,0,10.4-3,15.6-8.2
		c5.2-5.2,12.9-18.2,12.9-18.2l-8.9,3.9c0,0,7.8-13.4,14.7-16.8c0,0-11.7,0.9-15.4-1.9c0,0,12.5-3,16.2-6c3.7-3,11.9-10.8,20.3-7.8
		c0,0,11.7-10.8,7.8-17.9c0,0,7.6,0.6,11.5,5.2c3.9,4.7,10.1,8.6,10.1,8.6l-31.9,24.9l-24.3,78.9L204.5,340.7z"/>
	<path fill="#F5F5F5" d="M517,191.8c9.2,14.9-2.2,16.4-2.2,16.4c-1.7-14.1-13.7-12.4-13.7-12.4l3.2,10.4
			c-19.9,2.5-18.4-17.4-18.4-17.4c-3,2.5-7.9,12.7-7.9,12.7s-53.6,17.9-89.8-35.2c0,0-1-9.4,2-13.9l-22.3-16.9l-28.8,4
			c0,0-11.4,25.8,2.5,41.7c13.9,15.9,30.3,38.2,27.3,48.6c-1.8,6.2-7,8.7-14.3,8.2c-5-0.4-11-2.2-17.5-5.2
			c-15.9-7.4-54.6-23.3-82.4-10.4c-27.8,12.9-30.8,35.2-36.2,52.6c-4.8,15.4-15.5,54.7-91.3,90.5c-3.6,1.7-1.8,7.2,2.1,6.3
			c32.9-8.2,77.7-21.8,91.6-37.9l11.2,0.4l-4.1,17.1c0,0,14.5,4.5,16.8,25.7c0,0-25.4,6.9-11,28.8c0,0,2.2-15.9,19.9-16.6
			c0,0,4,5.2,12.7,6c0,0,4.5,7.2,2.2,13.2c0,0,17.6-5.5,2.7-26.6c0,0,16.6-4,18.9,16.9c0,0,10.7-33.8-27.4-31.3c0,0,0-6-10.1-16.8
			c0,0-2.5-6.1,0-14.5c0.7-2.5,1.4-5.2,2-7.9c2.1,1.1,5.3,2.5,9.4,2.7c0,0,6.2,10.2,24.6,8.4c0,0-13.4-6.2-12.2-18.1
			c1.2-11.9,16.9-18.4,23.6-13.7c0,0-1.7-15.6-26.1-5.5c0,0,0-11.7,12.9-12.4c0,0-20.8-15.9-25.6,14.4l-8.6,2.2
			c-4.2-11.7-9.6-38.8,14.1-48.7c24.9-10.4,51,13,97.2,15.3c0,0-4.5,27.2,10.4,33.9c14.9,6.7,51.4,13,51.4,13
			c-0.4,39.2,28.2,34,28.2,34c-13.9-8.3-13.9-24.1-5.3-33.4c11.7-12.6,31.9-0.6,31.9-0.6c-0.3-19.1-27.1-16.1-27.1-16.1
			c4.2-12.4,20.8-15.6,20.8-15.6c-23.1-8.4-42.2,16.5-42.2,16.5l-39.1-11.2c0,0-1.5-7.8,7.8-18.2c9.3-10.4,17.1-27.9,14.5-46.5
			c0,0,10.8-7.6,24.2-0.1c13.4,7.4,42.2-8.9,42.2-8.9c12.4,15.9,41.9,12.9,45.9-6.2C531.4,194,517,191.8,517,191.8z"/>
	<path fill="#F5F5F5" d="M476.1,146.1c-7.4-4.3-20.6-7.9-25.1,2c-4.5,9.9-9.4,19.9-24.8,19.4c-15.4-0.5-22.3,12.7-33,8.9
			c0,0,9.9-3.2,11.9-7.9c2-4.7,9.9-13.4,9.9-13.4l-1-8.9c0,0-18.4,1-23.8,6.2c-5.5,5.2-26.1-4.5-26.1-4.5l2.5-21.6
			c0,0,15.9-24.3,38-22.6c22.1,1.7,25.8-4,36.5-3.2c10.7,0.7,16.1,11.7,27.5,14.1c11.4,2.5,34.2-2.2,37.2,4.7
			c3,6.9-5.7,9.7-7.9,19.4C495.7,148.4,491,154.8,476.1,146.1z"/>
	<path fill="#FFF5DC" d="M411.5,139.9c0,0-10.7,7.2-19.6,4.2c-8.9-3-16.9-2-26.1,1c0,0,16.9-2,23.8,4.5c6.9,6.5,24.6,2.2,25.8-0.5
			L411.5,139.9z"/>
	<path fill="#FFF5DC" d="M417,156.6c0,0-10.4,7.4-20.8,5.5c-10.4-2-19.9,2.2-19.9,2.2s7.7-8.4,18.1-6.9c10.4,1.5,14.1-8.7,14.1-8.7
			l7,0.5L417,156.6z"/>
	<circle fill="#FFF5DC" cx="425.4" cy="147.4" r="13.9"/>
	<path fill="#FFF5DC" d="M417.2,137c0,0-5.5-6.9-19.1-4.2c-13.7,2.7-16.9-2.2-16.9-2.2s6.5,9.9,16.6,8.7
			c10.2-1.2,14.4,5.7,14.4,5.7L417.2,137z"/>
	<path fill="#FFF5DC" d="M463.2,119.6c1.2-1.7,2.8-3.3,4.9-4.5c1.2-0.7,2.5-1.2,3.8-1.6c0.3-1.9,0-3.9-1.1-5.8
			c-2.3-4-7.2-5.6-10.9-3.4c-3.7,2.1-4.7,7.1-2.4,11.2C458.8,117.7,460.9,119.1,463.2,119.6z"/>
	<path fill="#FFF5DC" d="M451,135.6c0.7-2,1.7-4,3.4-5.7c1-1,2.1-1.8,3.2-2.6c-0.3-1.9-1.1-3.8-2.7-5.2c-3.4-3.2-8.5-3.3-11.4-0.2
			c-2.9,3.1-2.5,8.2,0.9,11.4C446.3,135,448.7,135.7,451,135.6z"/>
</svg>
