<svg xmlns="http://www.w3.org/2000/svg" width="640px" height="480px" viewBox="0 0 640 480">
	<path fill="#00319C" d="M364.4,297.4H640V480H364.4V297.4z"/>
	<path fill="#D62918" d="M0,298h275v182H0V298z"/>
	<path fill="#00319C" d="M0-0.2h275.6v204.6H0V-0.2z"/>
	<path fill="#D62918" d="M366.2,0H640v206.3H366.2V0z"/>
	<path fill="#64B496" d="M314.7,282.3c0,0,6,2.2,5.2,9.7l2.4,0c0,0-1.5-8.7-2.8-9.7S314.7,282.3,314.7,282.3z"/>
	<path fill="#64B496" d="M320.7,281.1c-2.5,0-7,0-11.7-1.3c1-1.1,2.5-3.3,2.5-7.1c0-6-4.1-2.2-4.1-2.2s-2.7,2.3-1.1,8.4
		c-1.6-0.6-3.2-1.4-4.7-2.4c0.9-1.2,2.8-3.9,3.9-8.3c0,0-6.8-1.4-8.7,3.8c-1.1-1.5-2.1-3.1-2.9-4.9c1.8,0,4.2-1.1,4.2-7.8
		c0,0-4.5,0-5.7,3.9c-0.5-1.6-0.8-3.4-1.1-5.2c1.8,0.5,6.4,0.9,6.4-9.1c0,0-5.5,0-6.8,4.9c-0.1-1.3-0.1-2.6-0.1-3.9
		c2.7-1.4,6.4-4.5,6-10.9c0,0-2.6,0.6-4.9,2.5c0.5-2.4,0.3-5.9-3.4-8.9c0,0-3.4,6,1.6,10.9c-0.4,0.6-0.8,1.3-1.1,2.1
		c-1.1-1.7-2.9-3.3-5.8-4.2c0,0-1.3,8.1,6.2,11.4c0.2,4.7,0.9,8.9,2.2,12.5c-2.2-1.9-3.9-4.5-3.9-4.5c0-8.9-7.3-9.2-7.3-9.2
		c-1.4,10.2,6.2,10.6,6.2,10.6l4.1,4.5c-8.9-1.5-8.9,6-8.9,6c6,1.5,8.9-1.5,8.9-1.5l3.2,1.7c-5.7,0.2-7.7,5.8-7.7,5.8
		c7.2,1.2,12.4-0.5,14.2-1.2c7.2,5.1,16.2,5.1,20.3,5.1L320.7,281.1L320.7,281.1L320.7,281.1z"/>
	<path fill="#64B496" d="M320.2,281.1c2.5,0,7,0,11.7-1.3c-1-1.1-2.5-3.3-2.5-7.1c0-6,4.1-2.2,4.1-2.2s2.7,2.3,1.1,8.4
		c1.6-0.6,3.2-1.4,4.7-2.4c-0.9-1.2-2.8-3.9-3.9-8.3c0,0,6.8-1.4,8.7,3.8c1.1-1.5,2.1-3.1,2.9-4.9c-1.8,0-4.2-1.1-4.2-7.8
		c0,0,4.5,0,5.7,3.9c0.5-1.6,0.8-3.4,1.1-5.2c-1.8,0.5-6.4,0.9-6.4-9.1c0,0,5.5,0,6.8,4.9c0.1-1.3,0.1-2.6,0.1-3.9
		c-2.7-1.4-6.4-4.5-6-10.9c0,0,2.6,0.6,4.9,2.5c-0.5-2.4-0.3-5.9,3.4-8.9c0,0,3.4,6-1.6,10.9c0.4,0.6,0.8,1.3,1.1,2.1
		c1.1-1.7,2.9-3.3,5.8-4.2c0,0,1.3,8.1-6.2,11.4c-0.2,4.7-0.9,8.9-2.2,12.5c2.2-1.9,3.9-4.5,3.9-4.5c0-8.9,7.3-9.2,7.3-9.2
		c1.4,10.2-6.2,10.6-6.2,10.6l-4.1,4.5c8.9-1.5,8.9,6,8.9,6c-6,1.5-8.9-1.5-8.9-1.5l-3.2,1.7c5.7,0.2,7.7,5.8,7.7,5.8
		c-7.2,1.2-12.4-0.5-14.2-1.2c-7.2,5.1-16.2,5.1-20.3,5.1L320.2,281.1L320.2,281.1L320.2,281.1z"/>
	<path fill="#41479B" d="M295.3,216.1c-5.2,3.4-9.9,7.6-13.6,12.7c1.6,1.2,3.2,2.4,4.8,3.5c3.3-4.5,7.4-8.2,12-11.2L295.3,216.1z"/>
	<path fill="#FF6B71" d="M320.5,254.9h20.9v11.9c0,3.3-2.7,6-6,6h-8.9c-2.5,0-4.6,1.2-6,3L320.5,254.9L320.5,254.9z"/>
	<polygon fill="#5F64B9" points="324.9,241.4 324.9,225 347.3,225 341.3,231 341.3,247.4 324.9,247.4 "/>
	<rect x="333.9" y="247.4" fill="#F5F5F5" width="7.5" height="7.5"/>
	<path fill="#FF6B71" d="M320.5,254.9h-20.9v11.9c0,3.3,2.7,6,6,6h8.9c2.5,0,4.6,1.2,6,3L320.5,254.9L320.5,254.9z"/>
	<path fill="#F5F5F5" d="M316.7,273.1c1.5,0.5,2.8,1.4,3.7,2.6h0.1c0.9-1.2,2.2-2.1,3.7-2.6v-12.3h-7.5L316.7,273.1L316.7,273.1z"/>
	<polygon fill="#5F64B9" points="316,241.4 316,225 293.6,225 299.6,231 299.6,247.4 316,247.4 "/>
	<rect x="299.6" y="247.4" fill="#F5F5F5" width="7.5" height="7.5"/>
	<polygon fill="#41479B" points="307.1,232.5 307.1,237 311.5,240 311.5,237 "/>
	<polygon fill="#F5F5F5" points="311.5,237 311.5,241.4 317.5,244.4 317.5,242.9 "/>
	<polygon fill="#41479B" points="333.9,232.5 333.9,237 329.4,240 329.4,237 "/>
	<polygon fill="#F5F5F5" points="329.4,237 329.4,241.4 323.5,244.4 323.5,242.9 "/>
	<path fill="#FF4B55" d="M329.5,265.3h-18c-4.1,0-7.4-3.3-7.4-7.5v-23.1l16.5,11.1l16.3-11.1v23.1C336.9,262,333.6,265.3,329.5,265.3
	z"/>
	<polygon fill="#41479B" points="310,238.5 304.1,234 304.1,250.4 310,253.4 	"/>
	<polygon fill="#41479B" points="330.9,238.5 336.9,234 336.9,250.4 330.9,253.4 	"/>
	<rect x="311.5" y="253.4" fill="#41479B" width="17.9" height="7.5"/>
	<polygon fill="#FF4B55" points="311.5,240 320.5,244.4 329.4,240 329.4,253.4 311.5,253.4 "/>
	<path fill="#F5F5F5" d="M327.2,241.4v15c0,1.2-1,2.2-2.2,2.2H316c-1.2,0-2.2-1-2.2-2.2v-14.9l-4.5-3v17.9c0,3.7,3,6.7,6.7,6.7h8.9
		c3.7,0,6.7-3,6.7-6.7v-18L327.2,241.4z"/>
	<path fill="#F5F5F5" d="M328.7,251.8c-2.5,0.2-5.3,0.5-8.3,1.5c-2.9-1-5.8-1.3-8.3-1.5c-4.2-0.4-6.7-0.7-8.1-3.3v4.3
		c2.2,1.4,5,1.7,7.9,1.9c2.6,0.2,5.3,0.5,8,1.5l0.5,0.2l0.5-0.2c2.7-1,5.4-1.3,8-1.5c2.9-0.3,5.7-0.5,7.9-1.9v-4.3
		C335.4,251,332.9,251.4,328.7,251.8z"/>
	<polygon fill="#FFE15A" points="323.5,237.7 321.2,237.7 321.2,235.5 319.7,235.5 319.7,237.7 317.5,237.7 317.5,239.2 319.7,239.2
	319.7,245.9 321.2,245.9 321.2,239.2 323.5,239.2 "/>
	<rect x="312.2" y="228.7" transform="matrix(0.7071 -0.7071 0.7071 0.7071 -76.6351 290.8198)" fill="#464655" width="1.2" height="18.5"/>
	<polygon fill="#FFE15A" points="303.7,228.9 305.4,232.2 307,230.5 "/>
	<rect x="314" y="227.4" transform="matrix(0.8083 -0.5888 0.5888 0.8083 -79.0338 230.5981)" fill="#464655" width="1.2" height="18.5"/>
	<polygon fill="#FFE15A" points="307.1,226.4 308.2,229.9 310.1,228.5 "/>
	<rect x="310.7" y="230.2" transform="matrix(0.5725 -0.8199 0.8199 0.5725 -63.2822 357.5696)" fill="#464655" width="1.2" height="18.5"/>
	<polygon fill="#FFE15A" points="300.8,232.2 303,235.1 304.3,233.2 "/>
	<rect x="318.9" y="237.3" transform="matrix(0.7071 -0.7071 0.7071 0.7071 -72.0965 301.757)" fill="#464655" width="18.5" height="1.2"/>
	<polygon fill="#FFE15A" points="337.2,228.9 335.6,232.2 333.9,230.5 "/>
	<rect x="317.1" y="236.1" transform="matrix(0.5888 -0.8083 0.8083 0.5888 -57.0788 361.1043)" fill="#464655" width="18.5" height="1.2"/>
	<polygon fill="#FFE15A" points="333.9,226.4 332.7,229.9 330.9,228.5 "/>
	<rect x="320.4" y="238.9" transform="matrix(0.8199 -0.5725 0.5725 0.8199 -77.7279 231.8853)" fill="#464655" width="18.5" height="1.2"/>
	<polygon fill="#FFE15A" points="340.1,232.2 337.9,235.1 336.6,233.2 "/>
	<path fill="#F5F5F5" d="M319.7,272.3c0,0-5.8-6.2-4.6-11.9c0.9-4.6,3.6-9.6,5.8-10.8c0,0,3-0.2,2.3,2.4c-0.8,2.6-1.7,3.3-1.4,5.9
	C322.1,262.4,322.9,267.7,319.7,272.3z"/>
	<path fill="#41479B" d="M321.5,249.7c-0.4,0-0.6,0-0.6,0c-2.1,1.2-4.9,6.3-5.8,10.8c-0.5,2.6,0.4,5.3,1.6,7.4
	C315.9,258.5,318.6,255.2,321.5,249.7z"/>
	<path fill="#FF4B55" d="M321.7,257.9c-0.3-2.6,0.7-3.3,1.4-5.9c0.5-1.8-0.8-2.3-1.6-2.4c0,0-1.9,4.4-2,7.4
	c-0.1,2.6,0.6,13.2,0.3,15.3C322.9,267.7,322.1,262.4,321.7,257.9z"/>
	<path fill="#F5F0F0" d="M317.8,251.9c1.2-1.2,2.9-1.7,4.5-1.4c-0.8-2.5-1.6-5-2.4-7.6c-1.7-0.3-3.3,0.2-4.5,1.4
	C316.2,246.8,317,249.3,317.8,251.9z"/>
	<path fill="#F5F5F5" d="M322.3,250.5c1.2-1.2,2.9-1.7,4.5-1.4c-0.8-2.5-1.6-5-2.4-7.6c-1.7-0.3-3.3,0.2-4.5,1.4
	C320.7,245.4,321.5,247.9,322.3,250.5z"/>
	<path fill="#5F64B9" d="M313.7,217.7c-8.1-0.2-16.1,1.8-23.1,5.8c-1-1.7-1.9-3.5-2.9-5.2c8-4.5,17-6.7,26.2-6.5
	C313.8,213.7,313.7,215.7,313.7,217.7z"/>
	<path fill="#41479B" d="M345.6,216.1c5.2,3.4,9.9,7.6,13.6,12.7c-1.6,1.2-3.2,2.4-4.8,3.5c-3.3-4.5-7.4-8.2-12-11.2L345.6,216.1z"/>
	<path fill="#5F64B9" d="M327.3,217.7c8.1-0.2,16.1,1.8,23.1,5.8c1-1.7,1.9-3.5,2.9-5.2c-8-4.5-17-6.7-26.2-6.5
	C327.2,213.7,327.2,215.7,327.3,217.7z"/>
	<path fill="#41479B" d="M332.4,216.1c-7.8-2.1-16-2.1-23.9,0c-0.5-1.9-1.1-3.8-1.6-5.8c8.8-2.4,18.2-2.4,27,0
	C333.4,212.3,332.9,214.2,332.4,216.1z"/>
	<path fill="#FF6B71" d="M300.5,282.9c-6.4,1.7-12.7,3.9-18.8,6.8c0.8,1.8,1.7,3.6,2.5,5.4c5.8-2.8,11.9-4.9,18.1-6.5L300.5,282.9z"
	/>
	<path fill="#FF6B71" d="M340.5,282.9c6.4,1.7,12.7,3.9,18.8,6.8c-0.8,1.8-1.7,3.6-2.5,5.4c-5.8-2.8-11.9-4.9-18.1-6.5L340.5,282.9z
		"/>
	<path fill="#FF4B55" d="M344.5,287.5c-15.7-3.8-32-3.8-47.7,0c-0.5-1.9-0.9-3.9-1.4-5.8c16.6-4,33.9-4,50.5,0
		C345.4,283.7,344.9,285.6,344.5,287.5z"/>
	<path fill="#FF4B55" d="M320.5,289.2l-4.1,1c-0.9,0.2-1.9-0.5-1.9-1.4v-2.1c0-1,0.9-1.7,1.9-1.4l4.1,1V289.2z"/>
	<path fill="#FF4B55" d="M320.5,286.2l4.1-1c0.9-0.2,1.9,0.5,1.9,1.4v2.1c0,1-0.9,1.7-1.9,1.4l-4.1-1V286.2z"/>
	<path fill="#FF6B71" d="M320.8,289.2h-0.6c-0.6,0-1.2-0.5-1.2-1.2v-0.6c0-0.6,0.5-1.2,1.2-1.2h0.6c0.6,0,1.2,0.5,1.2,1.2v0.6
	C322,288.6,321.4,289.2,320.8,289.2z"/>
</svg>
