<svg xmlns="http://www.w3.org/2000/svg" width="640px" height="480px" viewBox="0 0 640 480">
	<path fill="#FFE800" d="M0,0h640v480H0V0z"/>
	<path fill="#00148E" d="M0,240h640v240H0V240z"/>
	<path fill="#DA0010" d="M0,360h640v120H0V360z"/>
	<path fill="#FFE15A" d="M311.3,246.5l135-115.8v167.5c0,28.2-22.9,51.1-51.1,51.1l0,0c-12.6,0-24.8-4.7-34.2-13.1l-49.7-44.8
		L311.3,246.5L311.3,246.5z"/>
	<path fill="#FF4B55" d="M382.6,312.4l-39.1-35.2v-58.3l70.7-60.6v42.4v97.6c0,10.5-8.5,19-19,19
		C390.6,317.2,386.1,315.5,382.6,312.4z"/>
	<path fill="#41479B" d="M362.8,202.4v66.2l32.2,29v-97.4v-25.4l19.3-16.5v42.4v97.6c0,10.5-8.5,19-19,19c-4.7,0-9.2-1.7-12.7-4.9
		l-39.1-35.2v-58.3L362.8,202.4z"/>
	<path fill="#FFE15A" d="M349.9,246.5l-135-115.8v167.5c0,28.2,22.9,51.1,51.1,51.1l0,0c12.6,0,24.8-4.7,34.2-13.1l49.7-44.8V246.5z
		"/>
	<path fill="#FF4B55" d="M278.7,312.4l39.1-35.2v-58.3L247,158.3v42.4v97.6c0,10.5,8.5,19,19,19
		C270.7,317.2,275.2,315.5,278.7,312.4z"/>
	<path fill="#41479B" d="M298.5,202.4v66.2l-32.2,29v-97.4v-25.4L247,158.3v42.4v97.6c0,10.5,8.5,19,19,19c4.7,0,9.2-1.7,12.7-4.9
			l39.1-35.2v-58.3L298.5,202.4z"/>
	<rect x="441.7" y="131.3" fill="#41479B" width="9.2" height="55.4"/>
	<rect x="210.2" y="131.3" fill="#41479B" width="9.2" height="55.4"/>
	<path fill="#5A4646" d="M311.3,105c0,0,12.9-61.1-32.2-53.1c-45,8-45,20.9-96.5,46.6c0,0,57.9,12.9,83.6,6.4
			c0,0,19.3,25.7,38.6,32.2h19.3L311.3,105z"/>
	<path fill="#5A4646" d="M349.9,105c0,0-12.9-61.1,32.2-53.1c45,8,45,20.9,96.5,46.6c0,0-57.9,12.9-83.6,6.4
			c0,0-19.3,25.7-38.6,32.2h-19.3L349.9,105z"/>
	<path fill="#5A4646" d="M349.9,137.2h-38.6v-32.4c0-10.5,8.5-19.1,19.1-19.1h0.5c10.5,0,19.1,8.5,19.1,19.1L349.9,137.2
			L349.9,137.2L349.9,137.2z"/>
	<ellipse transform="matrix(0.1602 -0.9871 0.9871 0.1602 174.0251 414.5545)" fill="#E6E1CD" cx="330.6" cy="105" rx="12.9" ry="12.9"/>
	<path fill="#FFD0AF" d="M303,96.7l24.2,12.9c2,1.1,4.5,0.7,6.2-0.9l0,0c2-2,2-5.3,0-7.4l-15.6-15.6H314C308,85.7,303,90.6,303,96.7
		L303,96.7z"/>
	<path fill="#FFAF94" d="M311.4,98.6h-19.4l8.5-9.9c1.6-1.9,3.9-2.9,6.4-2.9h10.9v6.5C317.8,95.7,314.9,98.6,311.4,98.6z"/>
	<path fill="#8CB400" d="M385.5,137.2c-4.3-5.1-5.3-12-3.1-17.9c6.2-1.1,12.8,1,17.1,6.1c3.7,4.4,4.8,10,3.7,15.2
			c1.3,2.2,2.9,5,4.6,8.3c0.1-0.5,0.1-0.9,0.2-1.4c1.5-5.3,5.7-9.1,10.8-10.4c3.6,3.7,5.2,9.2,3.7,14.5c-1.3,4.6-4.7,7.9-8.8,9.6
			c1.6,3.7,3.2,7.7,4.7,11.9c0.1-0.2,0.1-0.5,0.2-0.7c2.1-5.1,6.7-8.4,11.8-9.1c3.2,4.1,4.2,9.7,2.1,14.8c-1.8,4.5-5.6,7.5-10,8.6
			c2.2,8.8,3.7,18.2,3.7,27.6h-6.4c0-8.2-1.3-16.4-3.2-24.3c-4,1.3-8.4,1-12.2-1.3c-4.7-2.9-7.2-7.9-7-13c4.5-2.4,10.1-2.5,14.8,0.4
			c0.2,0.1,0.3,0.3,0.4,0.4c-1.4-4-2.8-7.7-4.4-11.2c-3.9,1.8-8.4,2.1-12.6,0.1c-5-2.3-8-7.1-8.4-12.2c4.2-2.9,9.8-3.6,14.7-1.3
			c-1.8-3.4-3.4-6.3-4.6-8.4C392.9,142.9,388.6,140.9,385.5,137.2z"/>
	<path fill="#8CB400" d="M275.8,137.2c4.3-5.1,5.3-12,3.1-17.9c-6.2-1.1-12.8,1-17.1,6.1c-3.7,4.4-4.8,10-3.7,15.2
			c-1.3,2.2-2.9,5-4.6,8.3c-0.1-0.5-0.1-0.9-0.2-1.4c-1.5-5.3-5.7-9.1-10.8-10.4c-3.6,3.7-5.2,9.2-3.7,14.5c1.3,4.6,4.7,7.9,8.8,9.6
			c-1.6,3.7-3.2,7.7-4.7,11.9c-0.1-0.2-0.1-0.5-0.2-0.7c-2.1-5.1-6.7-8.4-11.8-9.1c-3.2,4.1-4.2,9.7-2.1,14.8
			c1.8,4.5,5.6,7.5,10,8.6c-2.2,8.8-3.7,18.2-3.7,27.6h6.4c0-8.2,1.3-16.4,3.2-24.3c4,1.3,8.4,1,12.2-1.3c4.7-2.9,7.2-7.9,7-13
			c-4.5-2.4-10.1-2.5-14.8,0.4c-0.2,0.1-0.3,0.3-0.4,0.4c1.4-4,2.8-7.7,4.4-11.2c3.9,1.8,8.4,2.1,12.6,0.1c5-2.3,8-7.1,8.4-12.2
			c-4.2-2.9-9.8-3.6-14.7-1.3c1.8-3.4,3.4-6.3,4.6-8.4C268.4,142.9,272.7,140.9,275.8,137.2z"/>
	<path fill="#FFE15A" d="M330.6,278.6l-135-115.8v167.5c0,28.2,22.9,51.1,51.1,51.1l0,0c12.6,0,24.8-4.7,34.2-13.1l49.7-44.8V278.6z
		"/>
	<path fill="#FF4B55" d="M259.4,344.5l39.1-35.2v-58.3l-70.7-60.6v42.4v97.6c0,10.5,8.5,19,19,19
		C251.4,349.4,255.9,347.7,259.4,344.5z"/>
	<path fill="#41479B" d="M279.2,234.6v66.2l-32.2,29v-97.4V207l-19.3-16.5v42.4v97.6c0,10.5,8.5,19,19,19c4.7,0,9.2-1.7,12.7-4.9
		l39.1-35.2v-58.3L279.2,234.6z"/>
	<path fill="#FFE15A" d="M330.6,278.6l135-115.8v167.5c0,28.2-22.9,51.1-51.1,51.1l0,0c-12.6,0-24.8-4.7-34.2-13.1l-49.7-44.8V278.6
		z"/>
	<path fill="#FF4B55" d="M401.9,344.5l-39.1-35.2v-58.3l70.7-60.6v42.4v97.6c0,10.5-8.5,19-19,19
		C409.9,349.4,405.4,347.7,401.9,344.5z"/>
	<path fill="#41479B" d="M382.1,234.6v66.2l32.2,29v-97.4V207l19.3-16.5v42.4v97.6c0,10.5-8.5,19-19,19c-4.7,0-9.2-1.7-12.7-4.9
		l-39.1-35.2v-58.3L382.1,234.6z"/>
	<ellipse fill="#69C3FF" cx="330.6" cy="233.6" rx="64.3" ry="96.5"/>
	<path fill="#009B64" d="M272.8,259.4h115.8l6.4-25.7l-29.3,4.9c-5.9,1-11.9-0.7-16.4-4.6L316,205.4c-3-2.5-6.8-4-10.7-4l0,0
		c-4.4,0-8.5,1.7-11.6,4.8l-20.9,20.9V259.4L272.8,259.4z"/>
	<path fill="#F5F5F5" d="M324.5,229.3l11-7.1l-19.6-16.8c-3-2.5-6.8-4-10.7-4l0,0c-4.4,0-8.5,1.7-11.6,4.8l-20.9,20.9v6.4l32.2-6.4
		l5.7,2.8C315,232.3,320.3,232,324.5,229.3z"/>
	<polygon fill="#5AA0E6" points="272.8,259.4 279.2,297.9 311.3,330.1 330.6,330.1 356.4,323.7 382.1,297.9 388.5,259.4 	"/>
	<path fill="#FFC88C" d="M330.6,336.5c-39,0-70.7-46.2-70.7-102.9s31.7-102.9,70.7-102.9s70.7,46.2,70.7,102.9
		S369.6,336.5,330.6,336.5z M330.6,143.6c-31.9,0-57.9,40.4-57.9,90s26,90,57.9,90s57.9-40.4,57.9-90S362.5,143.6,330.6,143.6z"/>
	<path fill="#E1E1E1" d="M285.3,329.5c-5.4-7.4-13.4-12.3-22.5-12.3s-17.1,4.8-22.5,12.3c9.2,2.5,16.7,10,20.3,19.9
			c1.4,4,2.2,8.3,2.2,12.9C262.8,346.3,272.4,333.1,285.3,329.5z"/>
	<path fill="#E1E1E1" d="M267.9,349.8c0,0-0.5,8.6-4.9,12.6l-0.2-0.2c-4.4-4-4.9-12.6-4.9-12.6L267.9,349.8z"/>
	<path fill="#966446" d="M411.1,352.6H250.2c-1.8,0-3.2-1.4-3.2-3.2v-0.1c0-1.8,1.4-3.2,3.2-3.2h160.9c1.8,0,3.2,1.4,3.2,3.2v0.1
		C414.2,351.2,412.8,352.6,411.1,352.6z"/>
	<path fill="#BE915A" d="M362.9,362.2h-64.6c-7,0-12.7-5.7-12.7-12.7v-0.3c0-7,5.7-12.7,12.7-12.7h64.6c7,0,12.7,5.7,12.7,12.7v0.3
		C375.7,356.6,370,362.2,362.9,362.2z"/>
	<path fill="#B9B9B9" d="M272.8,346.2h-22.5c-1.8,0-3.2,1.4-3.2,3.2c0,1.8,1.4,3.2,3.2,3.2h22.5V346.2z"/>
	<polygon fill="#FF4B55" points="330.6,362.2 330.6,421 304.9,413.7 317.8,362.2 	"/>
	<polygon fill="#41479B" points="324.2,362.2 311.3,407.3 285.6,400.8 304.9,362.2 	"/>
	<polygon fill="#FFE15A" points="298.5,362.2 279.2,388 298.5,394.4 311.3,362.2 	"/>
	<polygon fill="#FF4B55" points="330.6,362.2 330.6,421 356.4,413.7 343.5,362.2 	"/>
	<polygon fill="#41479B" points="337.1,362.2 349.9,407.3 375.7,400.8 356.4,362.2 	"/>
	<polygon fill="#FFE15A" points="362.8,362.2 382.1,388 362.8,394.4 349.9,362.2 	"/>
	<polygon fill="#41479B" points="200.2,218.3 191,209 191,162.9 200.2,162.9 		"/>
	<polygon fill="#41479B" points="470.2,209 461,218.3 461,162.9 470.2,162.9 		"/>
</svg>
