<svg xmlns="http://www.w3.org/2000/svg" width="640px" height="480px" viewBox="0 0 640 480">
	<path fill="#C60B1E" d="M0,0h640v480H0V0z"/>
	<path fill="#FFC400" d="M0,120h640v240H0V120z"/>
	<path fill="#C60B1E" d="M284.1,244.6l8.8-39.7c0.8-3.7-2-7.1-5.7-7.1H281c-3.7,0-6.5,3.5-5.7,7.1L284.1,244.6z"/>
	<rect x="273.7" y="223.8" fill="#F5F5F5" width="20.8" height="88.3"/>
	<rect x="268.5" y="213.4" fill="#FAB446" width="31.2" height="10.4"/>
	<rect x="247.7" y="244.6" fill="#C60B1E" width="52" height="10.4"/>
	<polygon fill="#C60B1E" points="299.7,286.2 268.5,275.8 268.5,265.4 299.7,275.8 	"/>
	<path fill="#C60B1E" d="M128.2,244.6l8.8-39.7c0.8-3.7-2-7.1-5.7-7.1h-6.2c-3.7,0-6.5,3.5-5.7,7.1L128.2,244.6z"/>
	<path fill="#F5F5F5" d="M164.6,213.4c-5.7,0-10.4,4.7-10.4,10.4v67.6c0,12.6,11.8,36.4,52,36.4s52-23.7,52-36.4v-67.6
	c0-5.7-4.7-10.4-10.4-10.4H164.6z"/>
	<path fill="#C60B1E" d="M206.1,265.4h-52v-41.6c0-5.7,4.7-10.4,10.4-10.4h41.6V265.4z"/>
	<path fill="#C60B1E" d="M206.1,265.4h52v26c0,14.4-11.6,26-26,26l0,0c-14.4,0-26-11.6-26-26V265.4z"/>
	<path fill="#FAB446" d="M154.2,265.4h52v26c0,14.4-11.6,26-26,26l0,0c-14.4,0-26-11.6-26-26V265.4z"/>
	<path fill="#C60B1E" d="M195.8,312v-46.7h-10.4v51.4C189.2,316,192.7,314.3,195.8,312z"/>
	<path fill="#C60B1E" d="M175,316.8v-51.4h-10.4V312C167.6,314.3,171.1,316,175,316.8z"/>
	<rect x="164.6" y="244.6" fill="#FFB441" width="31.2" height="10.4"/>
	<rect x="164.6" y="223.8" fill="#FAB446" width="31.2" height="10.4"/>
	<rect x="169.8" y="230" fill="#FAB446" width="20.8" height="18.8"/>
	<rect x="117.8" y="223.8" fill="#F5F5F5" width="20.8" height="88.3"/>
	<rect x="112.6" y="307" fill="#FAB446" width="31.2" height="10.4"/>
	<rect x="112.6" y="213.4" fill="#FAB446" width="31.2" height="10.4"/>
	<rect x="107.4" y="317.3" fill="#5064AA" width="41.6" height="10.4"/>
	<rect x="273.7" y="307" fill="#FAB446" width="31.2" height="10.4"/>
	<rect x="263.3" y="317.3" fill="#5064AA" width="41.6" height="10.4"/>
	<rect x="175" y="203" fill="#FAB446" width="62.4" height="10.4"/>
	<rect x="201" y="171.9" fill="#FFB441" width="10.4" height="31.2"/>
	<path fill="#F5F5F5" d="M195.8,187.4c-8.6,0-15.6-7-15.6-15.6c0-8.6,7-15.6,15.6-15.6c8.6,0,15.6,7,15.6,15.6
		C211.3,180.4,204.4,187.4,195.8,187.4z M195.8,166.7c-2.9,0-5.2,2.3-5.2,5.2c0,2.9,2.3,5.2,5.2,5.2c2.9,0,5.2-2.3,5.2-5.2
		C201,169,198.6,166.7,195.8,166.7z"/>
	<path fill="#F5F5F5" d="M216.5,187.4c-8.6,0-15.6-7-15.6-15.6c0-8.6,7-15.6,15.6-15.6c8.6,0,15.6,7,15.6,15.6
		C232.1,180.4,225.1,187.4,216.5,187.4z M216.5,166.7c-2.9,0-5.2,2.3-5.2,5.2c0,2.9,2.3,5.2,5.2,5.2c2.9,0,5.2-2.3,5.2-5.2
		C221.7,169,219.4,166.7,216.5,166.7z"/>
	<path fill="#F5F5F5" d="M237.3,197.8c-8.6,0-15.6-7-15.6-15.6c0-8.6,7-15.6,15.6-15.6c8.6,0,15.6,7,15.6,15.6
		S245.9,197.8,237.3,197.8z M237.3,177c-2.9,0-5.2,2.3-5.2,5.2c0,2.9,2.3,5.2,5.2,5.2c2.9,0,5.2-2.3,5.2-5.2S240.2,177,237.3,177z"
	/>
	<path fill="#F5F5F5" d="M175,197.8c-8.6,0-15.6-7-15.6-15.6c0-8.6,7-15.6,15.6-15.6c8.6,0,15.6,7,15.6,15.6
		C190.6,190.8,183.6,197.8,175,197.8z M175,177c-2.9,0-5.2,2.3-5.2,5.2c0,2.9,2.3,5.2,5.2,5.2s5.2-2.3,5.2-5.2
		C180.2,179.4,177.8,177,175,177z"/>
	<path fill="#FAB446" d="M237.3,286.2v5.2c0,2.9-2.3,5.2-5.2,5.2c-2.9,0-5.2-2.3-5.2-5.2v-5.2H237.3 M247.7,275.8h-31.2v15.6
	c0,8.6,7,15.6,15.6,15.6c8.6,0,15.6-7,15.6-15.6L247.7,275.8L247.7,275.8z"/>
	<path fill="#FFA0D2" d="M232.1,255L232.1,255c-5.7,0-10.4-4.7-10.4-10.4v-10.4c0-5.7,4.7-10.4,10.4-10.4l0,0
	c5.7,0,10.4,4.7,10.4,10.4v10.4C242.5,250.3,237.9,255,232.1,255z"/>
	<circle fill="#5064AA" cx="206.2" cy="265.4" r="15.6"/>
	<rect x="201" y="151.1" fill="#FAB446" width="10.4" height="31.2"/>
	<path fill="#C60B1E" d="M175,203l-10.4-10.4l6.1-6.1c9.4-9.4,22.2-14.7,35.5-14.7l0,0c13.3,0,26.1,5.3,35.5,14.7l6.1,6.1L237.3,203
	H175z"/>
	<circle fill="#FFD250" cx="206.2" cy="192.6" r="5.2"/>
	<circle fill="#FFD250" cx="185.4" cy="192.6" r="5.2"/>
	<circle fill="#FFD250" cx="226.9" cy="192.6" r="5.2"/>
	<rect x="112.6" y="244.6" fill="#C60B1E" width="52" height="10.4"/>
	<polygon fill="#C60B1E" points="112.6,286.2 143.8,275.8 143.8,265.4 112.6,275.8 	"/>
</svg>
