<svg xmlns="http://www.w3.org/2000/svg" width="640px" height="480px" viewBox="0 0 640 480">
	<path fill="#68BFE5" d="M0,0v480h640V0H0z"/>
	<path fill="#002868" d="M0,0v240.3h358V0H0z"/>
	<path fill="#FFFFFF" d="M0,0v26.9l139,93.3L0,213.5v26.8h40L179,147l139,93.3h40v-26.8l-139-93.3l139-93.3V0h-40L179,93.3L40,0H0z"
	/>
	<path fill="#CE1126" d="M0,0v18l152.3,102.2L0,222.4v18h26.7l152.4-102.3l152.3,102.3H358v-18.1L205.7,120.3L358,18.1V0h-26.7
	L179.1,102.3L26.7,0H0z"/>
	<path fill="#FFFFFF" d="M149.2,0v80.1H0v80.1h149.2v80.1h59.7v-80H358V80H208.8V0H149.2L149.2,0z"/>
	<path fill="#CE1126" d="M161.1,0v96.1H0v48.1h161.1v96.1H197v-96.1h161v-48H197V0h-36H161.1z"/>
	<path fill="#F5F5F5" d="M419,197v128.9c0,52.3,73.4,79.1,82.4,82.2c8.9-3.1,82.4-30,82.4-82.2V197H419z"/>
	<polygon fill="#FF4B55" points="586.7,256.1 586.7,194.1 416.1,194.1 416.1,256.1 489.8,256.1 489.8,314.2 416.1,314.2
		416.1,337.5 489.8,337.5 489.8,407.2 501.4,411.1 513,407.2 513,337.5 586.7,337.5 586.7,314.2 513,314.2 513,256.1 	"/>
	<path fill="#F5F5F5" d="M443.3,226.1c5.8,9.6-4.2,19.6-13.8,13.8c-0.9-0.5-1.7-1.3-2.2-2.2c-5.8-9.6,4.2-19.6,13.8-13.8
		C442,224.4,442.7,225.2,443.3,226.1z"/>
	<path fill="#FFE15A" d="M453.9,218.8c-3.1-1.7-8.7-6.3-10.9-5.5c-2.3,0.8-2.8,2.4-5.9,2.6c-3.1,0.2-7.9,3.2-5.9,6.5
			c2.6,4.3,10.8,1,11.4-1.1c0,0,2,0.3,3.7-0.1c0,0,3.4,4.7,7.6,4.4c4.2-0.3,6.1-5.5,5.2-5.5C458.1,220.2,453.9,218.8,453.9,218.8z"
	/>
	<path fill="#FFE15A" d="M466.8,239.3c-0.7,1.3-6,5.8-14.9,7.9c-2,0.5-1.6,2.8-3.6,1.6s-7.5-2.1-12.3-2.3c-4.9-0.2-5.4-4.8-4.5-6.4
			c1.1-2.1,8.9-3.4,10.3-0.8c1.4,2.6,2.4,2,5.9,2.8c2.2,0.5,2.2,1.5,2.2,1.5s4-4,7.3-5.1s6.3-3.7,6.9-3.7s3.6,0.8,3.6,0.8
			L466.8,239.3z"/>
	<path fill="#FFE15A" d="M479.7,225.6c5.1,1.9,20.3,1.3,36.4-4c16.2-5.2,20.8-6.2,28.8-3.3c7.9,2.9,11.3-6.3,6.1-7.8
			c-8.2-2.4-33.4,12.2-51.7,4c0,0-0.5,2.2,0,3.3c0,0-13.3,0.5-10.1-13.3c0,0,0.9,5,7.2,4.4c11.9-1.1,13.6,7.3,38.7-0.5
			c14-4.3,24.8-2.2,24.9,4.6c0.1,8.2-11.1,10.1-11.1,10.1s4.4,9,13.2,5c8.8-4,9.3,2.9,10.1,5.2c0.8,2.3,2.3,4.6,4.2,4.8
			c0,0,1.4,4.2,0.9,4.7c-0.5,0.5-4.2,5.1-7.8,5.1c-3.6,0-11.6,0-11.6,0s-2.1-5.2,1.9-5.3c4-0.1,8.9-0.4,8.3-2.6
			c-0.6-2.2-3.8-3.2-3.7-5.6c0,0-9.4,6.8-15.2-1.2l-0.2,3.8c0,0-7.1-1.3-9.6-7c0,0,0.7,6.4-5.4,5.4c0,0,1.2,1.9,3.3,3.2
			c2.1,1.3-0.1,4.2-4.1,6.6c-4,2.4-16.5,9.4-22.1,2.3c-5.7-7.1,1.2-11.3,2.9-10.8c1.7,0.5,6.6,8,9.9,7c3.3-1,5-4.4,2.2-6.5
			c-2.8-2.1-4.9-4.1-3.1-6.2c2.4-2.9,11.4-2,11-4c-0.3-1.9-8.6-1.4-14.1,4c-5.4,5.4-29,17.9-38.4,10
			C472.2,233.3,479.7,225.6,479.7,225.6z"/>
	<path fill="#FFD25A" d="M476.7,222.1c0,0,7.1,7,19.1,9.2c0,0-2.2,3.4-8.6,2.4c0,0,2.6,2.2,4.3,5.9c0,0-4.1,0.9-7.7-1
		c0,0,0.5,3,2.2,5.5c0,0-4.8,0-8.8-3.6l-1.6,4.7c0,0-2.8-1.9-4.5-5.5c0,0-3.3,2.6-6.5,2.6c0,0,1.2-3.5,1.2-5.5c0,0-4.7,2.8-8.5,1.7
		c0,0,0.1-4.9,1.4-6.3c0,0-3,0.3-5-0.7c0,0,1.2-2.7,1.7-4.4c0,0-3.3,0.1-5.2-1.7c0,0,6.3-2.4,7.7-4.8L476.7,222.1z"/>
	<path fill="#FFBE5A" d="M465.2,202.5c1.4,0.8,3.6,2.5,4.6,5.4c0,0,2.6-3.7,7-4.4c0,0,1.9,2.2,1.4,7.8c0,0,4.9-1.4,7.5,1.2
		c0,0-5.2,1.2-7.6,5.5c0,0-0.9,4.4,0.7,7.1c0,0-1.8,0.2-3.6-0.6c0,0-0.9,4.4,0,5.8c0,0-2.6-0.3-4-3c0,0-2.1,3.2-1.9,5.1
		c0,0-2.8-1.6-2.9-4c0,0-1.9,3.6-4,4c0,0-0.2-5.1-1.2-7.1c0,0-1.8,1.9-4.1,1.9c0,0,0-4,1.9-5.8c0,0-3.3,1-5-2.6c0,0,5.4,1.6,6.7-1.7
		c1.3-3.3,1.7-4.3,3.6-6.1C466,209.2,465.2,202.5,465.2,202.5z"/>
	<path fill="#FFE15A" d="M476.7,217.6c0,0-6.6,12.7-12.7,8.8c-6.6-4.2,1.6-14.1,2.7-15.1C466.7,211.3,471.6,212.6,476.7,217.6z"/>
	<path fill="#5ABEA0" d="M452.7,282.6c0,0-0.7-9.1-5.6-11.7c-4.6-2.5-7.4-3.7-7.9-6.9c0,0,4,1.9,8.3,3c3.9,1,7.6,7.6,6.5,14.9
		L452.7,282.6z"/>
	<path fill="#B46446" d="M437.1,290.1l0.6,1.2l0.5,2.5l-0.9,3c0,0,3.6,1.4,4.5,6.4c0.6,3.4,2.1,4.1,3,3.4c0.9-0.7,1.5-1.5,0.5-5.2
		c-1.2-4.7-4.5-9.2-4.5-9.2l-2.6-3.9L437.1,290.1z"/>
	<path fill="#5ABEA0" d="M440.7,292c-3.3-4.3-12.3-13.2-14.1-1c0,0-3.5-10.3,3.1-9.9C437.4,281.6,440.7,292,440.7,292z"/>
	<path fill="#5ABEA0" d="M437.8,291.2c-2.9-3.1-3.8-5.4-5.3-11.2c-1.5-5.8-1.9-7.5-3.7-7.4c-1.7,0.1-2.7,2-2.7,5.7
			c0,0-5-4.5-1.6-8.1c3.4-3.6,11.1-1.6,11.5,4.8s0.3,10.7,2.6,16L437.8,291.2z"/>
	<path fill="#5ABEA0" d="M438.6,288.4c0,0-6.1-13.3,11-20.5c0,0-15.1-4.1-13.3,17.4L438.6,288.4z"/>
	<path fill="#5ABEA0" d="M440.5,293.2c0,0-12.8-4.9-11.7,7c0,0,2.2-5.6,8.5-3.5L440.5,293.2z"/>
	<path fill="#B46446" d="M455,288.5c0,3.5,1.4,13.5-0.6,14.8c-1,0.6-3.7,0.1-3.5-2.3c0.2-2.4,1.3-14.3,1.3-17.2
		C452.3,280.9,455,288.5,455,288.5z"/>
	<path fill="#5ABEA0" d="M446.9,296.6c2.2-2.2,2.9-7.3,2.1-14.1c0,0,4.6,3.2,6,6.1c0,0,1.4-6.7-3.3-8.5s-7.2-0.8-8.1,1.4
			c-0.8,2.2,1.4,4.6,2.4,8.1C447,292.8,446.9,296.6,446.9,296.6z"/>
	<path fill="#5ABEA0" d="M454.7,286.7c0,0,0.8-3.6,3.3-5c0,0,5.2,3.6,4.8,8.5c0,0,1.4-6.6-1.4-9.3c-2.8-2.6-6-3.3-7.6-1
			C452.1,282.3,454.7,286.7,454.7,286.7z"/>
	<path fill="#5ABEA0" d="M455.9,279.9c0,0,1.6-9.5,5.6-11.6c4-2.1,11.5-4,12-4.5c0,0-8.9,0.5-10.4,0.5s-9.4,5.8-9.4,14.4
			c0,8.6,0.8,2.7,1,2.6C454.9,281.3,455.9,279.9,455.9,279.9z"/>
	<path fill="#B46446" d="M459.7,305.1c0.9,1.9,3.1,2.4,3.5,1.4c0.5-1,2.5-8.5,2.5-8.5l-2.9-1.4L459.7,305.1z"/>
	<path fill="#5ABEA0" d="M476.7,273.5c3.6-2.1,5.9,4.1,5.9,4.1c0-7.3-2.3-9.6-8-6.8c-1.7,0.8-3,2.6-3.9,4.6
		c-2.9-8.3-9.3-8.2-9.3-8.2l-1.4,1c5.2,1,8.2,7.3,9.5,10.7c-0.7,2.5-1,4.9-1.2,6.3c-3.4,3.5-5.6,11.4-5.6,11.4s2.5,1.4,2.9,1.4
		c0,0,1.6-4.9,3.6-4.8c2,0.1,4.3,3.3,4.4,5.3c0,0,3-6-0.6-8.3c-1.3-0.9-2.4-1.2-3.3-1.2l2.6-3c4.3,0.8,7.3,4.9,7.3,4.9
		c0.1-7.2-3.1-8.7-6.5-8.1C473.9,279.9,475.2,274.3,476.7,273.5z"/>
	<path fill="#B46446" d="M547.3,283.5c0,6.1,0,19.5,0,20.5s-4.4,4.9-4.4,4.9h11.6c0,0-3.7-4.3-3.7-4.9s0.8-19,0.8-19L547.3,283.5z"
	/>
	<path fill="#5ABEA0" d="M548,285.6c-2.8-0.2-10.4,6.1-12.6,15.7c0,0-6.8-11,10.2-20.2c0,0-7.5-2.2-19,9.7c-0.6,0.6-1.2-18,19.4-13
			c0,0-7.9-11.4-24-2.4c0,0,10.7-19.2,26.5-2c0,0,0.1-14.9,0.2-13.4c0.1,1.5,1.3,8.4,1.3,8.4l3.1-5.4l-2.4,11
			c0,0,14.1-18.8,26.1,0.8c0,0-15.5-6.4-22.9,0.8c0,0,15.9-4.3,14.6,14.1c0,0-6.3-10.9-16.4-9.5c0,0,12,5.5,8.2,20.4
			C560.2,300.6,553,286,548,285.6z"/>
	<path fill="#5ABEA0" d="M446.7,352c-0.6-0.8-1.4-1.2-2.2-1.3c0.3-1.1,0.5-1.6,0.4-2.4c0.2,0.1,0.5,0.2,0.7,0.2l0.1-0.9
			c-0.9-0.1-2-0.5-3-1.2c0.7-0.6,1.1-1.4,1.1-2.5c0-1.1-0.5-2.1-1.3-2.6c-0.7,0.5-1.3,1.5-1.3,2.6c0,0.9,0.4,1.5,0.8,2.1
			c-0.4-0.3-0.8-0.6-1.2-0.9c-0.1-0.7-0.4-1.4-1-2c-0.8-0.8-1.9-1-2.8-0.8c-0.1,0.9,0.3,1.9,1.1,2.7c0.6,0.6,1.4,0.8,2.2,0.8
			c0.2,0.1,0.3,0.3,0.5,0.4c-0.5-0.1-1.1,0-1.6,0.2c-1.1,0.4-1.8,1.2-2,2.1c0.8,0.5,1.8,0.7,2.9,0.3c0.9-0.3,1.5-1,1.9-1.8
			c0.6,0.4,1.3,0.7,2,1l-0.1,0c0,0.6,0,0.9-0.3,2.1c-0.7-0.5-1.7-0.7-2.7-0.4c-1.1,0.3-1.9,1.1-2.2,2c0.7,0.6,1.8,0.8,2.9,0.5
			c0.8-0.2,1.4-0.8,1.8-1.4c-0.1,0.5-0.3,0.9-0.6,1.4c-0.6,0.3-1.2,0.8-1.6,1.5c-0.5,1-0.4,2.1,0,2.9c0.9-0.2,1.8-0.8,2.3-1.8
			c0.4-0.8,0.4-1.6,0.2-2.3c0.1-0.2,0.2-0.4,0.3-0.6c0.1,0.5,0.3,1,0.6,1.5c0.7,0.9,1.7,1.4,2.6,1.4
			C447.5,354,447.4,352.9,446.7,352z"/>
	<path fill="#FFECDE" d="M441.4,349.1c3.9,0,8.9-0.1,8.8,3.7c-0.1,3.9-4.5,17,5.5,21s11.2,3.4,11.2,3.4l4.5,10.3l10.9-3.9l-10.4-8.3
		c0,0-0.9-5.7-3.4-9.5c0,0,6.4-3.3,8.6-6.1l-4.5-0.3c0,0,5.8-3.7,8.5-7.9l-3.1,0.3c0,0,3.6-3.6,4.5-7.7c0,0-5.8,5.8-11.8,6.6
		c0,0,2.5-6.6,3.1-9.1c0,0-4.5,2.8-7.6,4c-3.1,1.2-8,1.3-5.8,11.5c0,0-2.7-2.2-4.3-7s-2.2-6.6-4.5-6.6c-3.7,0-5.1,3.3-5.1,3.3
		L441.4,349.1z"/>
	<path fill="#B46446" d="M551.4,351c1.3-1.8,4-7.4,6.4-5.9c2.3,1.5,5.5,5,7.4,3.4c1.9-1.7,2-3.8-0.9-4.8c-2.9-1-6.1-2.7-8.2-2
		c-2,0.7-8.2,7-8.2,7L551.4,351z"/>
	<path fill="#FFE15A" d="M534.1,355.8c-0.1-2.6,1.6-13.7,8.6-12.3c3.8,0.8,5.7,4.8,10.6,6.7c5.2,2,8.6,3.2,7.6,6.7
		c-1,3.5-2.9,7.6-7.3,8.6C549.3,366.5,534.1,355.8,534.1,355.8z"/>
	<path fill="#5ABEA0" d="M529.5,365c-1.5,0.3-7,8.3-0.4,16.5c0,0,8,3.3,14.4-1.8c6.4-5.1,1.6-7.6,1.6-7.6L529.5,365z"/>
	<path fill="#5ABEA0" d="M530.1,366.8c-0.7-1-0.6-1.7-0.6-1.7s-0.3-11.5,4.5-11.8c4.8-0.2,22.1,11.2,22.1,13.1
			c0,1.9-5.6,7.4-10.3,8.5C541.1,375.9,530.1,366.8,530.1,366.8z"/>
	<path fill="#B46446" d="M518.2,394.7c0,0,15.3-6.9,12.4-12.4c-2.1-4-6.7-1.4-7.5,1.6C522.3,387.7,519.3,393.1,518.2,394.7z"/>
	<path fill="#464655" d="M501.4,414.2l-0.9-0.3c-0.9-0.3-21.9-7.1-43.4-21.2c-28.7-18.9-43.9-42.1-43.9-66.9V191.2h176.4v134.7
		c0,24.8-15.2,47.9-43.9,66.9c-21.4,14.1-42.5,20.9-43.4,21.2L501.4,414.2z M419,197v128.9c0,52.3,73.4,79.1,82.4,82.2
		c8.9-3.1,82.4-30,82.4-82.2V197H419z"/>
</svg>
