<svg xmlns="http://www.w3.org/2000/svg" width="640px" height="480px" viewBox="0 0 640 480">
	<path fill="#000066" d="M0,0h640v480H0V0z"/>
	<path fill="#FFFFFF" d="M0,0v25.6l317.1,203h40v-25.5L39.9,0H0z M357,0v25.6l-317,203H0v-25.5L317.1,0h40H357z"/>
	<path fill="#FFFFFF" d="M148.8,0v228.6h59.5V0H148.8z M0,76.2v76.2h357V76.2H0z"/>
	<path fill="#CC0000" d="M0,91.5v45.7h357V91.5H0z M160.7,0v228.6h35.7V0H160.7z M0,228.6l119-76.2h26.6l-119,76.2H0z M0,0l119,76.2
		H92.4L0,17V0z M211.4,76.2L330.4,0h26.7L238,76.2H211.4L211.4,76.2z M357.1,228.6l-119-76.2h26.6l92.4,59.2V228.6z"/>
	<path fill="#E67346" d="M384.5,450.2l-8-18.8l4,9.4l-4.1-9.4c1.7-0.7,41.5-18.9,41.5-72.3h20.4
		C438.4,426.3,386.7,449.3,384.5,450.2z"/>
	<path fill="#EB7D4B" d="M392.5,404.5l-14.4-14.4c27.6-27.6,42-35.2,43.5-36l9.1,18.3l-4.6-9.1l4.6,9.1
		C430.7,372.4,417.7,379.3,392.5,404.5z"/>
	<path fill="#E67346" d="M594.4,450.2l8-18.8l-4,9.4l4.1-9.4c-1.7-0.7-41.5-18.9-41.5-72.3h-20.4
		C540.6,426.3,592.2,449.3,594.4,450.2z"/>
	<path fill="#EB7D4B" d="M586.4,404.5l14.4-14.4c-27.6-27.6-42-35.2-43.5-36l-9.1,18.3l4.6-9.1l-4.6,9.1
		C548.3,372.4,561.2,379.3,586.4,404.5z"/>
	<path fill="#4173CD" d="M489.4,93.6H380.5c0,0,0,129.4,0,163.4s6.8,122.6,108.9,156.6C591.6,379.5,598.4,291,598.4,257
		s0-163.4,0-163.4L489.4,93.6L489.4,93.6z"/>
	<path fill="#C8C8C8" d="M537.1,134.4h-58.5c-6.2,0-12.2-2.1-17-6l-22.9-18.3c-2.4-1.9-5.4-3-8.5-3h-2c-7.5,0-13.6,6.1-13.6,13.6
		h-10.2c-5.6,0-10.2,4.6-10.2,10.2c0,5.6,4.6,10.2,10.2,10.2h10.2c3.8,0,6.8,3,6.8,6.8v34c0,12.7,8.7,23.2,20.4,26.3v21.4h13.6
		l5.1-20.4h63l6.8,6.8v13.6h6.8v-20.4h6.8v20.4h6.8v-22.3c4.1-2.4,6.8-6.7,6.8-11.7v-40.9C557.5,143.6,548.4,134.4,537.1,134.4z"/>
	<polygon fill="#73AF00" points="414.6,222.9 428.2,263.8 550.7,263.8 564.3,222.9 	"/>
	<path fill="#F5F5F5" d="M562,250.2c-18.2,0-18.2,13.6-36.3,13.6c-18.1,0-18.1-13.6-36.3-13.6c-18.1,0-18.1,13.6-36.3,13.6
		c-18.1,0-18.1-13.6-36.3-13.6c-18.1,0-18.2,13.6-36.2,13.6c0.2,7.6,0.9,16.9,2.5,27.1c15.5-1.3,16.4-13.5,33.6-13.5
		c18.1,0,18.1,13.6,36.3,13.6c18.1,0,18.1-13.6,36.3-13.6c18.1,0,18.1,13.6,36.3,13.6c18.2,0,18.2-13.6,36.3-13.6
		c17.3,0,18.2,12.2,33.8,13.5c1.7-10.3,2.3-19.5,2.5-27.1C580.2,263.8,580.1,250.2,562,250.2z"/>
	<path fill="#4173CD" d="M562,277.4c-18.2,0-18.2,13.6-36.3,13.6c-18.1,0-18.1-13.6-36.3-13.6c-18.1,0-18.1,13.6-36.3,13.6
		c-18.1,0-18.1-13.6-36.3-13.6c-17.2,0-18.1,12.2-33.6,13.5c1.3,8.2,3.3,16.9,6.3,26c9.9-3.5,12.8-12.2,27.4-12.2
		c18.1,0,18.1,13.6,36.3,13.6c18.1,0,18.1-13.6,36.3-13.6s18.1,13.6,36.3,13.6c18.2,0,18.2-13.6,36.3-13.6
		c14.6,0,17.5,8.8,27.5,12.2c2.9-9,4.9-17.8,6.3-26C580.1,289.7,579.2,277.4,562,277.4z"/>
	<path fill="#F5F5F5" d="M562,304.6c-18.2,0-18.2,13.6-36.3,13.6c-18.1,0-18.1-13.6-36.3-13.6c-18.1,0-18.1,13.6-36.3,13.6
		c-18.1,0-18.1-13.6-36.3-13.6c-14.6,0-17.5,8.7-27.4,12.2c2.3,7.2,5.3,14.6,9,22c4.6-3.5,9.1-7,18.3-7c18.1,0,18.1,13.6,36.3,13.6
		c18.1,0,18.1-13.6,36.3-13.6c18.1,0,18.1,13.6,36.3,13.6c18.2,0,18.2-13.6,36.3-13.6c9.3,0,13.8,3.5,18.4,7
		c3.7-7.4,6.7-14.8,9.1-22C579.5,313.4,576.6,304.6,562,304.6z"/>
	<path fill="#4173CD" d="M562,331.9c-18.2,0-18.2,13.6-36.3,13.6c-18.1,0-18.1-13.6-36.3-13.6c-18.1,0-18.1,13.6-36.3,13.6
		c-18.1,0-18.1-13.6-36.3-13.6c-9.2,0-13.7,3.5-18.3,7c3.5,7,7.8,14,12.8,20.8c1.6-0.3,3.4-0.5,5.5-0.5c18.1,0,18.1,13.6,36.3,13.6
		c18.1,0,18.1-13.6,36.3-13.6c18.1,0,18.1,13.6,36.3,13.6c18.2,0,18.2-13.6,36.3-13.6c2.1,0,3.9,0.2,5.6,0.5
		c5.1-6.8,9.3-13.8,12.8-20.8C575.8,335.4,571.2,331.9,562,331.9z"/>
	<path fill="#F5F5F5" d="M567.6,359.6c-1.7-0.3-3.5-0.5-5.6-0.5c-18.2,0-18.2,13.6-36.3,13.6c-18.1,0-18.1-13.6-36.3-13.6
		c-18.1,0-18.1,13.6-36.3,13.6c-18.1,0-18.1-13.6-36.3-13.6c-2.1,0-3.9,0.2-5.5,0.5c11,14.8,26,28.7,46.3,40
		c13.8-2,15.3-13.3,31.8-13.3c16.5,0,18,11.3,31.9,13.3C541.6,388.3,556.5,374.4,567.6,359.6z"/>
	<rect x="486" y="250.2" fill="#FF965A" width="6.8" height="115.7"/>
	<rect x="469" y="267.2" fill="#FF965A" width="40.9" height="6.8"/>
	<rect x="469" y="308" fill="#FF965A" width="40.9" height="6.8"/>
	<rect x="469" y="274" fill="#FFE15A" width="40.9" height="26.9"/>
	<polygon fill="#FF4B55" points="486,250.2 486,263.8 465.6,257 	"/>
	<rect x="531.4" y="250.2" fill="#FF965A" width="6.8" height="80"/>
	<rect x="514.4" y="267.2" fill="#FF965A" width="40.9" height="6.8"/>
	<rect x="514.4" y="308" fill="#FF965A" width="40.9" height="6.8"/>
	<rect x="514.4" y="274" fill="#FFE15A" width="40.9" height="26.9"/>
	<polygon fill="#FF4B55" points="531.4,250.2 531.4,263.8 511,257 	"/>
	<rect x="440.4" y="250.2" fill="#FF965A" width="6.8" height="79.4"/>
	<rect x="423.4" y="267.2" fill="#FF965A" width="40.9" height="6.8"/>
	<rect x="423.4" y="308" fill="#FF965A" width="40.9" height="6.8"/>
	<rect x="423.4" y="274" fill="#FFE15A" width="40.9" height="26.9"/>
	<polygon fill="#FF4B55" points="440.4,250.2 440.4,263.8 419.9,257 	"/>
	<path fill="#FF965A" d="M523.5,325.1c0,18.8-15.3,34-34,34s-34-15.3-34-34h-6.8h-6.8l-46.1-10.4l-1.5,6.6l20.3,4.6v6l15,6
		c5.9,27.7,30.5,48.5,59.9,48.5c29.1,0,53.5-20.4,59.7-47.7h22v-20.4L523.5,325.1z"/>
	<path fill="#F5F5F5" d="M598.4,93.6c0,0,0,129.4,0,163.4s-6.8,122.6-108.9,156.6C387.3,379.5,380.5,291,380.5,257
		c0-34,0-163.4,0-163.4h108.9L598.4,93.6 M605.2,86.8h-6.8H489.4H380.5h-6.8v6.8V257c0,80.7,40.3,138.6,113.6,163.1l2.2,0.7l2.2-0.7
		c73.3-24.4,113.6-82.3,113.6-163.1V93.6V86.8L605.2,86.8z"/>
	<path fill="#FF965A" d="M489.4,447.6c-50.1,0-96.6-16.8-124.3-44.9l19.4-19.1c22.7,23,61.9,36.8,104.9,36.8s82.2-13.8,104.9-36.8
		l19.4,19.1C586,430.8,539.6,447.6,489.4,447.6z"/>
</svg>
