<svg xmlns="http://www.w3.org/2000/svg" width="640px" height="480px" viewBox="0 0 640 480">
	<path fill="#4997D0" d="M0,0h640v480H0V0z"/>
	<path fill="#FFFFFF" d="M213.3,0h213.4v480H213.3V0z"/>
	<polygon fill="#FFC855" points="318.5,184.7 312.2,187.9 318,190.3 	"/>
	<path fill="#73AF00" d="M321.3,301.4c-35.1,0-63.6-28.6-63.6-63.6c0-21.8,11-41.8,29.4-53.6l1.6,2.6c-17.5,11.2-28,30.3-28,51.1
			c0,33.4,27.2,60.6,60.6,60.6L321.3,301.4L321.3,301.4z"/>
	<path fill="#73AF00" d="M284.8,305.4c2.4,0.5,6.2-0.1,10-1.9c3.8-1.8,6.7-4.2,7.9-6.4c-2.4-0.5-6.2,0.1-10,1.9
			C288.9,300.8,286,303.2,284.8,305.4z"/>
	<path fill="#73AF00" d="M302.8,297c0.5-2.4-0.1-6.2-1.9-10c-1.8-3.8-4.2-6.7-6.4-7.9c-0.5,2.4,0.1,6.2,1.9,10
			C298.1,293,300.6,295.8,302.8,297z"/>
	<path fill="#73AF00" d="M272.2,297.6c2.3,0.8,6.1,0.8,10.2-0.4c4.1-1.2,7.3-3.2,8.8-5.2c-2.3-0.8-6.1-0.8-10.2,0.4
			C276.9,293.6,273.7,295.6,272.2,297.6z"/>
	<path fill="#73AF00" d="M291.1,292c0.8-2.3,0.8-6.1-0.4-10.2c-1.2-4.1-3.2-7.3-5.2-8.8c-0.8,2.3-0.8,6.1,0.4,10.2
			C287.1,287.3,289.2,290.5,291.1,292z"/>
	<path fill="#73AF00" d="M260.4,287c2.1,1.2,5.9,1.8,10.1,1.4c4.2-0.5,7.7-1.8,9.6-3.5c-2.1-1.2-5.9-1.8-10.1-1.4
			S262.3,285.3,260.4,287z"/>
	<path fill="#73AF00" d="M280.1,284.9c1.2-2.1,1.8-5.9,1.4-10.1c-0.5-4.2-1.8-7.7-3.5-9.6c-1.2,2.1-1.8,5.9-1.4,10.1
			C277,279.5,278.4,283,280.1,284.9z"/>
	<path fill="#73AF00" d="M250.7,272.3c1.9,1.6,5.5,2.9,9.7,3.2c4.2,0.3,8-0.4,10-1.8c-1.9-1.6-5.5-2.9-9.7-3.2
			C256.6,270.3,252.8,271,250.7,272.3z"/>
	<path fill="#73AF00" d="M270.5,273.7c1.6-1.9,2.9-5.5,3.2-9.7c0.3-4.2-0.4-8-1.8-10c-1.6,1.9-2.9,5.5-3.2,9.7
			C268.4,267.9,269.1,271.6,270.5,273.7z"/>
	<path fill="#73AF00" d="M245.1,256.2c1.5,2,4.7,3.9,8.8,5.1c4.1,1.2,7.9,1.2,10.2,0.4c-1.5-2-4.7-3.9-8.8-5.1
			C251.2,255.4,247.4,255.3,245.1,256.2z"/>
	<path fill="#73AF00" d="M264.1,261.7c2-1.5,3.9-4.7,5.1-8.8c1.2-4.1,1.2-7.9,0.4-10.2c-2,1.5-3.9,4.7-5.1,8.8
			C263.3,255.6,263.2,259.4,264.1,261.7z"/>
	<path fill="#73AF00" d="M242.7,237.3c0.9,2.3,3.6,5,7.2,7.2c3.6,2.2,7.3,3.2,9.7,3c-0.9-2.3-3.6-5-7.2-7.2
			C248.8,238.1,245.1,237.1,242.7,237.3z"/>
	<path fill="#73AF00" d="M259.6,247.5c2.3-0.9,5-3.6,7.2-7.2c2.2-3.6,3.2-7.3,3-9.7c-2.3,0.9-5,3.6-7.2,7.2
			C260.4,241.4,259.4,245.1,259.6,247.5z"/>
	<path fill="#73AF00" d="M244.9,219.5c0.4,2.4,2.4,5.7,5.5,8.6c3.1,2.9,6.4,4.7,8.9,5c-0.4-2.4-2.4-5.7-5.5-8.6
			C250.8,221.6,247.4,219.8,244.9,219.5z"/>
	<path fill="#73AF00" d="M259.4,233.1c2.4-0.4,5.7-2.4,8.6-5.5c2.9-3.1,4.7-6.4,5-8.9c-2.4,0.4-5.7,2.4-8.6,5.5
			C261.4,227.3,259.7,230.6,259.4,233.1z"/>
	<path fill="#73AF00" d="M253.9,200.3c-0.5,2.4,0.1,6.2,1.9,10c1.8,3.9,4.2,6.8,6.4,8c0.5-2.4-0.1-6.2-1.9-10
			C258.5,204.4,256,201.5,253.9,200.3z"/>
	<path fill="#73AF00" d="M262.1,218.3c2.4,0.5,6.2-0.1,10-1.9c3.9-1.8,6.8-4.2,8-6.4c-2.4-0.5-6.2,0.1-10,1.9
			C266.2,213.7,263.3,216.1,262.1,218.3z"/>
	<path fill="#73AF00" d="M264.6,186c-1.1,2.2-1.6,6-0.9,10.2c0.7,4.2,2.2,7.6,4,9.4c1.1-2.2,1.6-6,0.9-10.2
			C267.9,191.2,266.3,187.8,264.6,186z"/>
	<path fill="#73AF00" d="M267.7,205.6c2.2,1.1,6,1.6,10.2,0.9c4.2-0.7,7.6-2.2,9.4-4c-2.2-1.1-6-1.6-10.2-0.9
			C272.9,202.2,269.4,203.8,267.7,205.6z"/>
	<path fill="#73AF00" d="M275.1,176.1c-1.5,2-2.4,5.7-2.4,9.9c0,4.2,1.1,7.9,2.6,9.9c1.5-2,2.4-5.7,2.4-9.9
			C277.6,181.7,276.6,178.1,275.1,176.1z"/>
	<path fill="#73AF00" d="M275.3,195.9c2,1.5,5.7,2.4,9.9,2.4c4.2,0,7.9-1.1,9.9-2.6c-2-1.5-5.7-2.4-9.9-2.4
			C280.9,193.3,277.2,194.4,275.3,195.9z"/>
	<path fill="#73AF00" d="M280.3,190.7c2.5,0.2,6.1-0.9,9.7-3.1c3.6-2.2,6.2-5,7.1-7.3c-2.5-0.2-6.1,0.9-9.7,3.1
			C283.8,185.6,281.3,188.4,280.3,190.7z"/>
	<path fill="#73AF00" d="M321.3,301.4v-3c33.4,0,60.6-27.2,60.6-60.6c0-20.8-10.5-39.9-28-51.1l1.6-2.6
			c18.4,11.8,29.4,31.8,29.4,53.6C384.9,272.9,356.4,301.4,321.3,301.4z"/>
	<path fill="#73AF00" d="M357.7,305.4c-2.4,0.5-6.2-0.1-10-1.9c-3.8-1.8-6.7-4.2-7.9-6.4c2.4-0.5,6.2,0.1,10,1.9
			C353.6,300.8,356.5,303.2,357.7,305.4z"/>
	<path fill="#73AF00" d="M339.8,297c-0.5-2.4,0.1-6.2,1.9-10c1.8-3.8,4.2-6.7,6.4-7.9c0.5,2.4-0.1,6.2-1.9,10
			C344.4,293,341.9,295.8,339.8,297z"/>
	<path fill="#73AF00" d="M370.4,297.6c-2.3,0.8-6.1,0.8-10.2-0.4c-4.1-1.2-7.3-3.2-8.8-5.2c2.3-0.8,6.1-0.8,10.2,0.4
			C365.7,293.6,368.9,295.6,370.4,297.6z"/>
	<path fill="#73AF00" d="M351.4,292c-0.8-2.3-0.8-6.1,0.4-10.2c1.2-4.1,3.2-7.3,5.2-8.8c0.8,2.3,0.8,6.1-0.4,10.2
			C355.4,287.3,353.4,290.5,351.4,292z"/>
	<path fill="#73AF00" d="M382.1,287c-2.1,1.2-5.9,1.8-10.1,1.4c-4.2-0.5-7.7-1.8-9.6-3.5c2.1-1.2,5.9-1.8,10.1-1.4
			S380.3,285.3,382.1,287z"/>
	<path fill="#73AF00" d="M362.4,284.9c-1.2-2.1-1.8-5.9-1.4-10.1c0.5-4.2,1.8-7.7,3.5-9.6c1.2,2.1,1.8,5.9,1.4,10.1
			S364.1,283,362.4,284.9z"/>
	<path fill="#73AF00" d="M391.8,272.3c-1.9,1.6-5.5,2.9-9.7,3.2c-4.2,0.3-8-0.4-10-1.8c1.9-1.6,5.5-2.9,9.7-3.2
			C386,270.3,389.7,271,391.8,272.3z"/>
	<path fill="#73AF00" d="M372.1,273.7c-1.6-1.9-2.9-5.5-3.2-9.7c-0.3-4.2,0.4-8,1.8-10c1.6,1.9,2.9,5.5,3.2,9.7
			C374.1,267.9,373.4,271.6,372.1,273.7z"/>
	<path fill="#73AF00" d="M397.5,256.2c-1.5,2-4.7,3.9-8.8,5.1c-4.1,1.2-7.9,1.2-10.2,0.4c1.5-2,4.7-3.9,8.8-5.1
			C391.4,255.4,395.2,255.3,397.5,256.2z"/>
	<path fill="#73AF00" d="M378.5,261.7c-2-1.5-3.9-4.7-5.1-8.8c-1.2-4.1-1.2-7.9-0.4-10.2c2,1.5,3.9,4.7,5.1,8.8
			C379.3,255.6,379.3,259.4,378.5,261.7z"/>
	<path fill="#73AF00" d="M399.9,237.3c-0.9,2.3-3.6,5-7.2,7.2c-3.6,2.2-7.3,3.2-9.7,3c0.9-2.3,3.6-5,7.2-7.2
			C393.8,238.1,397.4,237.1,399.9,237.3z"/>
	<path fill="#73AF00" d="M382.9,247.5c-2.3-0.9-5-3.6-7.2-7.2c-2.2-3.6-3.2-7.3-3-9.7c2.3,0.9,5,3.6,7.2,7.2
			C382.1,241.4,383.2,245.1,382.9,247.5z"/>
	<path fill="#73AF00" d="M397.6,219.5c-0.4,2.4-2.4,5.7-5.5,8.6c-3.1,2.9-6.4,4.7-8.9,5c0.4-2.4,2.4-5.7,5.5-8.6
			C391.8,221.6,395.1,219.8,397.6,219.5z"/>
	<path fill="#73AF00" d="M383.2,233.1c-2.4-0.4-5.7-2.4-8.6-5.5c-2.9-3.1-4.7-6.4-5-8.9c2.4,0.4,5.7,2.4,8.6,5.5
			C381.1,227.3,382.9,230.6,383.2,233.1z"/>
	<path fill="#73AF00" d="M388.7,200.3c0.5,2.4-0.1,6.2-1.9,10s-4.2,6.8-6.4,8c-0.5-2.4,0.1-6.2,1.9-10
			C384.1,204.4,386.5,201.5,388.7,200.3z"/>
	<path fill="#73AF00" d="M380.4,218.3c-2.4,0.5-6.2-0.1-10-1.9c-3.9-1.8-6.8-4.2-8-6.4c2.4-0.5,6.2,0.1,10,1.9
			C376.3,213.7,379.2,216.1,380.4,218.3z"/>
	<path fill="#73AF00" d="M378,186c1.1,2.2,1.6,6,0.9,10.2c-0.7,4.2-2.2,7.6-4,9.4c-1.1-2.2-1.6-6-0.9-10.2S376.2,187.8,378,186z"/>
	<path fill="#73AF00" d="M374.9,205.6c-2.2,1.1-6,1.6-10.2,0.9c-4.2-0.7-7.6-2.2-9.4-4c2.2-1.1,6-1.6,10.2-0.9
			C369.7,202.2,373.1,203.8,374.9,205.6z"/>
	<path fill="#73AF00" d="M367.5,176.1c1.5,2,2.4,5.7,2.4,9.9c0,4.2-1.1,7.9-2.6,9.9c-1.5-2-2.4-5.7-2.4-9.9
			C365,181.7,366,178.1,367.5,176.1z"/>
	<path fill="#73AF00" d="M367.3,195.9c-2,1.5-5.7,2.4-9.9,2.4s-7.9-1.1-9.9-2.6c2-1.5,5.7-2.4,9.9-2.4S365.3,194.4,367.3,195.9z"/>
	<path fill="#73AF00" d="M362.2,190.7c-2.5,0.2-6.1-0.9-9.7-3.1c-3.6-2.2-6.2-5-7.1-7.3c2.5-0.2,6.1,0.9,9.7,3.1
			C358.7,185.6,361.3,188.4,362.2,190.7z"/>
	<path fill="#966446" d="M286.5,287.3l-11,11l-5.4-10.9l16.3-16.3l5.4,5.4l-1.6,4.7C289.5,283.6,288.2,285.6,286.5,287.3z"/>
	<path fill="#B9B9B9" d="M346.2,205.9l-59.8,59.8c-1.5,1.5-1.5,3.9,0,5.4l2.7,2.7L300,263l43.5-49l5.4-5.4L346.2,205.9z"/>
	<path fill="#966446" d="M301.1,256.4c-0.7,0.7-1.1,1.7-1.1,2.7v3.8l43.5-49L301.1,256.4z"/>
	<polygon fill="#A0A0A0" points="348.9,208.6 346.2,205.9 343.5,208.6 346.2,211.3 348.9,214 378.9,178.7 	"/>
	<path fill="#966446" d="M359,287.3l11,11l5.4-10.9l-16.3-16.3l-5.4,5.4l1.6,4.7C356.1,283.6,357.4,285.6,359,287.3z"/>
	<path fill="#B9B9B9" d="M299.4,205.9l59.8,59.8c1.5,1.5,1.5,3.9,0,5.4l-2.7,2.7L345.6,263l-43.5-49l-5.4-5.4L299.4,205.9z"/>
	<path fill="#966446" d="M344.5,256.4c0.7,0.7,1.1,1.7,1.1,2.7v3.8l-43.5-49L344.5,256.4z"/>
	<polygon fill="#A0A0A0" points="296.6,208.6 299.4,205.9 302.1,208.6 299.4,211.3 296.6,214 266.7,178.7 	"/>
	<path fill="#B9B9B9" d="M300.5,285.1l2.7,2.5c9.9-10.8,27.1-29.7,54.5-54.3C357.6,233.2,335,247.2,300.5,285.1z"/>
	<path fill="#FFE15A" d="M292.8,296.1L292.8,296.1c-1-0.9-1-2.4-0.2-3.4l5.8-6.4c0.9-1,2.4-1,3.4-0.2l0,0c1,0.9,1,2.4,0.2,3.4
		l-5.8,6.4C295.3,297,293.8,297,292.8,296.1z"/>
	<path fill="#FFC855" d="M298.3,283.1l-1.6,0.7c-1.4,0.7-5.1,2.8-5.7,5.7c-0.3,1.4,0.1,2.8,1.2,4.1c0.1-0.3,0.2-0.5,0.5-0.7l0.7-0.8
		c-0.5-0.7-0.8-1.4-0.6-2.1c0.4-1.9,2.9-3.5,4.4-4.3l6.9,6.3l1.7-1.9L298.3,283.1z"/>
	<path fill="#B9B9B9" d="M345.1,288l-2.7,2.5c-9.9-10.8-27.1-29.7-54.5-54.3C287.9,236.2,310.6,250.2,345.1,288z"/>
	<path fill="#FFE15A" d="M352.7,299.1L352.7,299.1c1-0.9,1-2.4,0.2-3.4l-5.8-6.4c-0.9-1-2.4-1-3.4-0.2l0,0c-1,0.9-1,2.4-0.2,3.4
		l5.8,6.4C350.3,300,351.8,300,352.7,299.1z"/>
	<path fill="#FFC855" d="M347.3,286l1.6,0.7c1.4,0.7,5.1,2.8,5.7,5.7c0.3,1.4-0.1,2.8-1.2,4.1c-0.1-0.3-0.2-0.5-0.5-0.7l-0.7-0.8
		c0.5-0.7,0.8-1.4,0.6-2.1c-0.4-1.9-2.9-3.5-4.4-4.3l-6.9,6.3l-1.7-1.9L347.3,286z"/>
	<path fill="#69B469" d="M324,187.9c0.2-0.5,0.3-1.1,0.3-1.7c0-2.5-2-4.5-4.5-4.5c-2.5,0-4.5,2-4.5,4.5c0,1.5,0.7,2.8,1.8,3.6
		c-1.6,13.2,11.4,14.2,16.3,16.1c7.5,2.8,17,8.5,16.4,24.3c-0.6,15.4-10.3,30.3-10.3,30.3l8.1-11c-3,12.5-9.9,28.4-26.3,47.4
		c0,0,11.2-11,20.6-25.1c-6.9,16.2-14.5,31.2-14.5,31.2s13.5-17.6,24.4-47.9C365,218.2,337.2,196.1,324,187.9z"/>
	<rect x="300.1" y="242.3" fill="#F4E08F" width="12.1" height="6.1"/>
	<circle fill="#ECD077" cx="300.1" cy="248.4" r="6.1"/>
	<circle fill="#ECD077" cx="300.1" cy="209" r="6.1"/>
	<path fill="#FCF0A8" d="M336.4,215c3.3,0,6.1-2.7,6.1-6.1s-2.7-6.1-6.1-6.1h-36.4c3.3,0,6.1,2.7,6.1,6.1s-2.7,6.1-6.1,6.1
		c-3.3,0-6.1-2.7-6.1-6.1c0,10.2,8.5,22.5,11.3,33.3c0,0,0.9,2.7,0.9,6.1c0,3.3-2.7,6.1-6.1,6.1h36.4c3.3,0,6.1-2.7,6.1-6.1
		c0-10.2-8.5-22.5-11.3-33.3L336.4,215L336.4,215z"/>
	<path fill="#F4E08F" d="M306.1,209c0,3.3-2.7,6.1-6.1,6.1h36.4c3.3,0,6.1-2.7,6.1-6.1H306.1z"/>
	<path fill="#F4E08F" d="M306.1,248.4c0,3.3-2.7,6.1-6.1,6.1h36.4c3.3,0,6.1-2.7,6.1-6.1H306.1z"/>
</svg>
