<svg xmlns="http://www.w3.org/2000/svg" width="640px" height="480px" viewBox="0 0 640 480">
	<path fill="#171796" d="M0,0h640v480H0V0z"/>
	<path fill="#FFFFFF" d="M0,0h640v320H0V0z"/>
	<rect fill="#FF0000" width="640" height="160"/>
	<polygon fill="#338AF3" points="390.9,152.1 344.3,152.1 352,93.8 383.1,70.5 414.2,93.8 414.2,140.4 		"/>
	<polygon fill="#338AF3" points="251,152.1 297.7,152.1 289.9,93.8 258.8,70.5 227.7,93.8 227.7,140.4 		"/>
	<polygon fill="#0052B4" points="352,152.1 289.9,152.1 289.9,93.8 321,70.5 352,93.8 	"/>
	<path fill="#F0F0F0" d="M227.7,140.4v128.2c0,30.5,14.7,57.7,37.5,74.7l16.3-4.1l20.6,20.7c6.1,1.3,12.4,1.9,18.8,1.9
		c6.4,0,12.7-0.7,18.7-1.9l23.5-19.6l13.5,2.9c22.7-17,37.5-44.1,37.5-74.6V140.4H227.7z"/>
	<rect x="227.7" y="140.4" fill="#D80027" width="37.3" height="37.3"/>
	<rect x="302.3" y="140.4" fill="#D80027" width="37.3" height="37.3"/>
	<rect x="376.9" y="140.4" fill="#D80027" width="37.3" height="37.3"/>
	<rect x="265" y="177.7" fill="#D80027" width="37.3" height="37.3"/>
	<rect x="339.6" y="177.7" fill="#D80027" width="37.3" height="37.3"/>
	<rect x="227.7" y="215" fill="#D80027" width="37.3" height="37.3"/>
	<rect x="265" y="252.3" fill="#D80027" width="37.3" height="37.3"/>
	<rect x="302.3" y="215" fill="#D80027" width="37.3" height="37.3"/>
	<rect x="376.9" y="215" fill="#D80027" width="37.3" height="37.3"/>
	<rect x="339.6" y="252.3" fill="#D80027" width="37.3" height="37.3"/>
	<rect x="302.3" y="289.6" fill="#D80027" width="37.3" height="37.3"/>
	<path fill="#D80027" d="M265,289.6h-34.9c3.2,13.9,9.5,26.5,18.1,37.3H265V289.6z"/>
	<path fill="#D80027" d="M376.9,326.9h16.8c8.6-10.7,14.9-23.4,18.1-37.3h-34.9V326.9z"/>
	<path fill="#D80027" d="M265,326.9v16.3c10.8,8.2,23.5,14,37.3,16.8v-33.1L265,326.9L265,326.9z"/>
	<path fill="#D80027" d="M339.6,326.9V360c13.8-2.8,26.4-8.7,37.3-16.8v-16.3H339.6z"/>
</svg>
