<svg xmlns="http://www.w3.org/2000/svg" width="640px" height="480px" viewBox="0 0 640 480">
  <path fill="#D21034" d="M0,0h640v480H0V0z"/>
  <path fill="#00209F" d="M0,0h640v240H0V0z"/>
  <g transform="matrix(1.25 0 0 -1.25 0 45)">
    <path fill="#FFFFFF" d="M323.7-212.9H188.3v113.3h135.5V-212.9z"/>
    <path fill="#006A16" d="M323.7-197.2c-17.1,8.7-40.2,14.1-67.1,14.1c-27,0-51.3-5.4-68.3-14.1v-15.7h135.5V-197.2z"/>
    <path fill="#00209F" d="M228.4-141.5l13.3-14.9l-1.7-9.4l-2.9,1.6l-2.6-9.8h-0.7l-1.2-5.1l-22.5,1.9l0.5,16.1l5.4-1.6l0.7,15
				l7.9-5.4l0.4,9.1L228.4-141.5z"/>
    <path fill="#D21C33" d="M256.6-170.6v-22.8l-17.1,5l-4.3,6.4l-3,2.2l1.6,5.8l2.6,10h3.9l1,8.4L256.6-170.6z"/>
    <path fill="#D21C33" d="M207.5-160.3c2,2.4,5.8,0.8,6,0c0.1-0.8-1.5-0.7-3-2s-1.1-5.6-3.7-5
					C204.3-166.8,207.5-160.3,207.5-160.3"/>
    <path fill="#D21C33" d="M216.7-147.6c2.6,1.8,5.8-0.8,5.7-1.6c-0.1-0.8-1.6-0.3-3.4-1.1s-2.6-5-4.9-3.8
					C211.8-153,216.7-147.6,216.7-147.6"/>
    <path fill="#D21C33" d="M227.6-139.9c2.8,1.4,5.7-1.6,5.5-2.4c-0.2-0.8-2.2,0.6-4.1,0c-1.9-0.6-2.7-5.3-4.8-3.8
					C222-144.5,227.6-139.9,227.6-139.9"/>
    <path fill="#F1B517" d="M221.8-133.5l8.8-5.4l-1-2.6l23.7-26.3v-2l-24.7,27.7l-3.2,0.5L221.8-133.5z"/>
    <path fill="#F1B517" d="M209.1-141.5c0,0,8.8-3.4,8.8-3.8c0-0.4,1.6-3.1,1.6-3.1l32.1-26l-0.9-1.2l-31.9,26l-4.6,2L209.1-141.5z
					"/>
    <path fill="#F1B517" d="M199.8-154.8c0,0,10.2-1.4,10.3-1.8c0.1-0.4,0.8-2.7,0.8-2.7l37.3-20.3l-1.6-1l-36.3,20.1l-4.2,0.3
					L199.8-154.8z"/>
    <path fill="#F1B517" d="M208.6-174.1l38.3-4.7l-3.6-4.4l-5.7-0.6l4.2-5.7l-2-2.3l-5.7,6.2c0,0-1.8-9.1-9.5-9.1
					s-10.2,7.7-10.2,10.3c0,2.6,0.7,3.9,0.7,3.9h-7.3L208.6-174.1z"/>
    <path fill="#00209F" d="M284.4-140.6L270.5-157l0.6-9.5l3.6,2.4l2.6-9.8h0.7l1.2-5.1l22.5,1.9l-0.5,16.1l-5.4-1.5l-0.7,15
				l-7.9-5.4l-0.4,9.1L284.4-140.6z"/>
    <path fill="#D21C33" d="M256.6-170.6v-22.8l16.3,5l4,6.4l2.8,2.2l-1.7,5.8l-2.7,10l-3-2.3l-1,9.3L256.6-170.6z"/>
    <path fill="#D21C33" d="M304.2-160.3c-2,2.4-5.8,0.8-6,0c-0.1-0.8,1.5-0.7,3-2s1.1-5.6,3.7-5
					C307.5-166.8,304.2-160.3,304.2-160.3"/>
    <path fill="#D21C33" d="M295-147.6c-2.6,1.8-5.8-0.8-5.7-1.6c0.1-0.8,1.6-0.3,3.4-1.1c1.8-0.9,2.6-5,4.9-3.8
					C299.9-153,295-147.6,295-147.6"/>
    <path fill="#D21C33" d="M284.1-139.9c-2.8,1.4-5.7-1.6-5.5-2.4c0.2-0.8,2.2,0.6,4.1,0c1.9-0.6,2.7-5.3,4.8-3.8
					C289.7-144.5,284.1-139.9,284.1-139.9"/>
    <path fill="#F1B517" d="M289.9-133.5l-8.8-5.4l1.7-2.6l-23-26.3v-2l23.9,27.7l2.9,0.5L289.9-133.5z"/>
    <path fill="#F1B517"
          d="M302.5-141.5c0,0-8.8-3.4-8.8-3.8c0-0.4-1.6-3.1-1.6-3.1l-32.1-26l1-1.2l31.9,26l4.6,2L302.5-141.5z"/>
    <path fill="#F1B517" d="M311.9-154.8c0,0-10.2-1.4-10.3-1.8c-0.1-0.4-0.8-2.7-0.8-2.7l-37.3-20.3l1.6-1l36.3,20.1l4.2,0.3
					L311.9-154.8z"/>
    <path fill="#F1B517" d="M303.1-174.1l-38.3-4.7l3.6-4.4l5.7-0.6l-4.2-5.7l2.1-2.3l5.7,6.2c0,0,1.8-9.1,9.5-9.1
					c7.7,0,10.2,7.7,10.2,10.3c0,2.6-0.7,3.9-0.7,3.9h7.3L303.1-174.1z"/>
    <path fill="#FFFFFF" d="M311.8-203.1c0,0-6.7-0.2-13.8,1.3c-7,1.5-8.3,4.3-11.3,3.7c-3.1-0.6-10.2-3.3-16-4
				c-5.8-0.7-14.2-1-14.2-1s-7.7,0.2-13.5,1c-5.8,0.7-12.3,3.4-15.3,4c-3.1,0.6-4.3-2.1-11.3-3.7c-7-1.5-13.8-1.3-13.8-1.3l1.8-3.3
				l-1.8-1.6c15.9-0.3,23.3,4.8,23.3,4.8c8-5.3,30.7-5.4,30.7-5.4s23.4,0.1,31.4,5.4c0,0,7.7-5.1,23.6-4.8l-1.7,1.6L311.8-203.1z"/>
    <path fill="#F1B517" d="M259.9-154.8c0-17-1.5-30.7-3.3-30.7c-1.8,0-3.3,13.8-3.3,30.7c0,17,1.5,30.7,3.3,30.7
				C258.4-124.1,259.9-137.8,259.9-154.8"/>
    <path fill="#D21C33" d="M263.1-196.6h-13v13h13V-196.6z"/>
    <path fill="#FFFFFF" d="M263.9-182.8c0-1.5-3.1-2.7-7-2.7c-3.9,0-7,1.2-7,2.7s3.1,2.7,7,2.7C260.8-180.1,263.9-181.3,263.9-182.8
				"/>
    <path fill="#D21C33" d="M263.9-195.8c0-1.5-3.1-2.7-7-2.7c-3.9,0-7,1.2-7,2.7s3.1,2.7,7,2.7C260.8-193.1,263.9-194.3,263.9-195.8
				"/>
    <path fill="#006A16" d="M285.1-118.4c-2.6,3.1-9.3,3-13.9,3.1c-4.5,0.1-6.8-1.5-4.8,0.7c2,2.2,5.2,1.6,8.5,1.8
				c3.3,0.1,3.9,0.5,1.9,1.6c-2,1.1-5.6,2.4-10.3,1.2c-4.7-1.2-7.6-4.1-10.1-4.6c-2.5,0.5-5.6,3.4-10.2,4.6
				c-4.8,1.2-8.4-0.1-10.5-1.2c-2-1.1-1.5-1.5,1.8-1.6c3.3-0.1,6.4,0.4,8.5-1.8c2-2.2-0.3-0.5-4.8-0.7c-4.5-0.1-11.3,0-13.9-3.1
				c-2.6-3.1,2.3-1.1,4.9-0.7c2.6,0.4,6.4,0.5,6.4,0.5s-6.4-1.9-8.1-4.3c-1.8-2.4,0.5-4.6,3.8-2.7c3.3,1.9,8.3,4.5,11,4.7
				c0,0-7.1-2.9-10.2-5.5c-3.1-2.5,0.1-2.3,2.5-2.3c2.4,0,4.8,1,6.8,2.4c2,1.5-1.3-3-1.9-5.8c-0.5-2.8,3.7-2.2,4.4,0
				c0.7,2.2,3.2,6.5,3.2,6.5s-1.1-6.2-0.9-10.4c0.1-4.2,1.5-4.5,2.6-2.6c1.1,1.9,4.8-1.1,4.8-1.1s3.4,3,4.5,1.1
				c1.1-1.9,2.1-1.6,2.3,2.6c0.1,4.2-0.9,10.4-0.9,10.4s2.4-4.3,3.2-6.5c0.8-2.2,4.9-2.8,4.4,0c-0.5,2.8-3.9,7.3-1.9,5.8
				c2-1.5,4.5-2.4,6.8-2.4c2.4,0,5.6-0.3,2.5,2.3c-3.1,2.5-10.2,5.5-10.2,5.5c2.7-0.3,7.7-2.8,11-4.7c3.3-1.9,5.6,0.3,3.8,2.7
				c-1.8,2.4-8.1,4.3-8.1,4.3s3.8-0.1,6.4-0.5C282.9-119.5,287.7-121.5,285.1-118.4"/>
  </g>
</svg>
