<svg xmlns="http://www.w3.org/2000/svg" width="640px" height="480px" viewBox="0 0 640 480">
	<path fill="#000063" d="M640,417.4c-7.2,6.6-13.3,21.6-32.4,21.6c-38.1,0-47.6-31.8-76.3-31.8c-19,0-28.5,31.9-47.6,31.9
	c-38.1,0-47.6-31.9-76.3-31.9c-19,0-28.5,31.9-47.5,31.9c-38.1,0-47.7-31.9-76.2-31.9c-19.1,0-28.6,31.9-47.6,31.9
	c-38.1,0-47.6-31.9-76.2-31.9c-19.1,0-28.6,31.9-47.6,31.9c-38.1,0-47.6-31.9-76.2-31.9c-19.1,0-24.7,22.7-36.2,22.7v41
	c11.4,0,17.1-22.7,36.2-22.7c28.5,0,38.1,31.9,76.1,31.9c19.1,0,28.6-31.9,47.6-31.9c28.6,0,38.1,31.9,76.2,31.9
	c19,0,28.5-31.9,47.6-31.9c28.6,0,38.1,31.9,76.2,31.9c19.1,0,28.6-31.9,47.6-31.9c28.6,0,38.1,31.9,76.2,31.9
	c19.1,0,28.6-31.9,47.6-31.9c28.6,0,38.1,31.9,76.2,31.9c19.1,0,25.2-9,32.4-15.5L640,417.4L640,417.4z M640,337.8
	c-7.2,6.6-13.3,21.6-32.4,21.6c-38.1,0-47.6-31.9-76.3-31.9c-19,0-28.5,31.9-47.6,31.9c-38.1,0-47.6-31.9-76.3-31.9
	c-19,0-28.5,31.9-47.5,31.9c-38.1,0-47.7-31.9-76.2-31.9c-19.1,0-28.6,31.9-47.6,31.9c-38.1,0-47.6-31.9-76.2-31.9
	c-19.1,0-28.6,31.9-47.6,31.9c-38.1,0-47.6-31.9-76.2-31.9c-19.1,0-24.7,22.8-36.2,22.8v41c11.4,0,17.1-22.7,36.2-22.7
	c28.5,0,38.1,31.9,76.1,31.9c19.1,0,28.6-31.9,47.6-31.9c28.6,0,38.1,31.9,76.2,31.9c19,0,28.5-31.9,47.6-31.9
	c28.6,0,38.1,31.9,76.2,31.9c19,0,28.5-31.9,47.6-31.9c28.6,0,38.1,31.9,76.2,31.9c19.1,0,28.6-31.9,47.6-31.9
	c28.6,0,38.1,31.9,76.2,31.9c19.1,0,25.2-9,32.4-15.5L640,337.8L640,337.8z M640,258.2c-7.2,6.6-13.3,21.6-32.4,21.6
	c-38.1,0-47.6-31.9-76.3-31.9c-19,0-28.5,31.9-47.6,31.9c-38.1,0-47.6-31.9-76.3-31.9c-19,0-28.5,31.9-47.5,31.9
	c-38.1,0-47.7-31.9-76.2-31.9c-19.1,0-28.6,31.9-47.6,31.9c-38.1,0-47.6-31.9-76.2-31.9c-19.1,0-28.6,31.9-47.6,31.9
	c-38.1,0-47.6-31.9-76.2-31.9c-19.1,0-24.7,22.8-36.2,22.8v41c11.4,0,17.1-22.7,36.2-22.7c28.5,0,38.1,31.9,76.1,31.9
	c19.1,0,28.6-31.9,47.6-31.9c28.6,0,38.1,31.9,76.2,31.9c19,0,28.5-31.9,47.6-31.9c28.6,0,38.1,31.9,76.2,31.9
	c19,0,28.5-31.9,47.6-31.9c28.6,0,38.1,31.9,76.2,31.9c19.1,0,28.6-31.9,47.6-31.9c28.6,0,38.1,31.9,76.2,31.9
	c19.1,0,25.2-9.1,32.4-15.6L640,258.2L640,258.2z M640,178.6c-7.2,6.5-13.3,21.6-32.4,21.6c-38.1,0-47.6-31.9-76.3-31.9
	c-19,0-28.5,31.9-47.6,31.9c-38.1,0-47.6-31.9-76.3-31.9c-19,0-28.5,31.9-47.5,31.9c-38.1,0-47.7-31.9-76.2-31.9
	c-19.1,0-28.6,31.9-47.6,31.9c-38.1,0-47.6-31.9-76.2-31.9c-19.1,0-28.6,31.9-47.6,31.9c-38.1,0-47.6-31.9-76.2-31.9
	c-19.1,0-24.7,22.8-36.2,22.8v41c11.4,0,17.1-22.7,36.2-22.7c28.5,0,38.1,31.9,76.1,31.9c19.1,0,28.6-31.9,47.6-31.9
	c28.6,0,38.1,31.9,76.2,31.9c19,0,28.5-31.9,47.6-31.9c28.6,0,38.1,31.9,76.2,31.9c19,0,28.5-31.9,47.6-31.9
	c28.6,0,38.1,31.9,76.2,31.9c19.1,0,28.6-31.9,47.6-31.9c28.6,0,38.1,31.9,76.2,31.9c19.1,0,25.2-9.1,32.4-15.6L640,178.6L640,178.6
	z M640,98.9c-7.2,6.6-13.3,21.7-32.4,21.7c-38.1,0-47.6-31.9-76.3-31.9c-19,0-28.5,31.9-47.6,31.9c-38.1,0-47.6-31.9-76.3-31.9
	c-19,0-28.5,31.9-47.5,31.9c-38.1,0-47.7-31.9-76.2-31.9c-19.1,0-28.6,31.9-47.6,31.9c-38.1,0-47.6-31.9-76.2-31.9
	c-19.1,0-28.6,31.9-47.6,31.9c-38.1,0-47.6-31.9-76.2-31.9C17.1,88.8,11.4,111.6,0,111.6v41c11.4,0,17.1-22.7,36.2-22.7
	c28.6,0,38.1,31.9,76.2,31.9c19,0,28.5-31.9,47.6-31.9c28.6,0,38.1,31.9,76.2,31.9c19,0,28.5-31.9,47.5-31.9
	c28.6,0,38.1,31.9,76.3,31.9c19.1,0,28.6-31.9,47.6-31.9c28.6,0,38.1,31.9,76.2,31.9c19.1,0,28.6-31.9,47.6-31.9
	c28.6,0,38.1,31.9,76.2,31.9c19,0,25.2-9.1,32.4-15.6V99.1L640,98.9z M640,19.4c-7.2,6.5-13.3,21.6-32.4,21.6
	C569.5,41,560,9.1,531.4,9.1c-19,0-28.5,31.9-47.6,31.9c-38.1,0-47.6-31.9-76.3-31.9c-19,0-28.5,31.9-47.5,31.9
	c-38.1,0-47.7-31.9-76.2-31.9c-19.1,0-28.6,31.9-47.6,31.9C198.1,41,188.6,9.1,160,9.1c-19.1,0-28.6,31.9-47.6,31.9
	C74.3,41,64.8,9.1,36.2,9.1C17.1,9.1,11.4,31.9,0,31.9v41.1c11.4,0,17.1-22.7,36.2-22.7c28.6,0,38.1,31.9,76.2,31.9
	c19,0,28.5-31.9,47.6-31.9c28.6,0,38.1,31.9,76.2,31.9c19,0,28.5-31.9,47.5-31.9c28.6,0,38.1,31.9,76.3,31.9
	c19.1,0,28.6-31.9,47.6-31.9c28.6,0,38.1,31.9,76.2,31.9c19.1,0,28.6-31.9,47.6-31.9c28.6,0,38.1,31.9,76.2,31.9
	c19,0,25.2-9.1,32.4-15.6L640,19.4L640,19.4z"/>
	<path fill="#000063" d="M0,0h245v148.1H0V0z"/>
	<path fill="#FFFFFF" d="M0,0v16.6l217.6,131.5H245v-16.6L27.5,0.1L0,0L0,0z M245,0v16.6L27.5,148.1H0v-16.6L217.6,0.1L245,0L245,0z"
	/>
	<path fill="#FFFFFF" d="M102.1,0v148.1h40.8V0H102.1L102.1,0z M0,49.5v49.3h245V49.4L0,49.5L0,49.5z"/>
	<path fill="#CC0000" d="M0,59.3v29.6h245V59.3H0z M110.3,0v148.1h24.5V0H110.3z M0,148.1l81.7-49.4h18.3l-81.7,49.4H0z M0,0
	l81.7,49.4H63.4L0,11.1V0L0,0z M145,49.4l81.7-49.3H245l-81.6,49.3L145,49.4L145,49.4z M245,148.1l-81.6-49.4h18.2l63.4,38.3V148.1z
	"/>
	<path fill="#965032" d="M428.8,431.7L428.8,431.7c-5.1,0-9.2-4.1-9.2-9.2V127.3H438v295.2C438,427.6,433.9,431.7,428.8,431.7z"/>
	<polygon fill="#73AF00" points="557.9,164.2 539.5,155 471.6,146.5 513.6,92.5 520.1,72.9 500.5,79.4 446.5,121.4 438,53.5
		428.8,35.1 419.6,53.5 411.1,121.4 357,79.4 337.5,72.9 344,92.5 386,146.5 318.1,155 299.6,164.2 318.1,173.4 386,181.9 344,236
		337.5,255.5 357,249 415.7,203.3 428.8,182.7 441.8,203.3 500.5,249 520.1,255.5 513.6,236 471.6,181.9 539.5,173.4 	"/>
	<path fill="#FFE15A" d="M469,271.6c-8.3-8.3-26-5.2-35.5-2.8v-7.7c0-2.5-2.1-4.6-4.6-4.6s-4.6,2.1-4.6,4.6v7.7
		c-9.5-2.4-27.3-5.4-35.5,2.8c-7.9,7.9-2.2,27,3.3,40.2v12.3c0,3.4,2.7,6.1,6.1,6.1h61.5c3.4,0,6.1-2.7,6.1-6.1v-12.3
		C471.1,298.6,476.9,279.5,469,271.6z M462.4,278.2c3.5,3.5-0.4,19-6.8,33.6h-22.2v-33.5C443.8,275.4,457.9,273.7,462.4,278.2z
		 M395.2,278.2c4.5-4.5,18.7-2.8,29,0.2v33.5h-22.2C395.6,297.1,391.6,281.7,395.2,278.2z"/>
</svg>
