<svg xmlns="http://www.w3.org/2000/svg" width="640px" height="480px" viewBox="0 0 640 480">
	<rect x="0" fill="none" width="640" height="480"/>
	<path fill="#FFFFFF" d="M0,0h640v480H0V0z"/>
	<path fill="#DA0000" d="M0,322.3h640V480H0V322.3z"/>
	<path fill="#239F40" d="M0,0h640v157.7H0V0z"/>
	<path fill="#DA0000" d="M342.3,185.2c7.9,9.8,32.3,63.4-14.7,98.6c-22.2,16.7-8.4,17.4-7.8,20.3c35.6-18.8,47.2-44.5,46.9-67.5
		C366.5,213.7,354.3,193.4,342.3,185.2L342.3,185.2z"/>
	<path fill="#DA0000" d="M347,182.6c32.4,19.7,42.7,62,23,94.4c-2.4,3.9-5.2,7.6-8.3,10.9C387.2,282.4,419.8,207,347,182.6
		L347,182.6z M293,182.6c-32.4,19.8-42.6,62-22.9,94.4c2.4,3.9,5.2,7.6,8.3,10.9C252.8,282.4,220.2,207,293,182.6L293,182.6z"/>
	<path fill="#DA0000" d="M297.7,185.2c-7.9,9.8-32.3,63.4,14.7,98.6c22.1,16.7,8.4,17.4,7.8,20.3c-35.6-18.8-47.2-44.5-46.9-67.5
		C273.5,213.7,285.7,193.4,297.7,185.2L297.7,185.2z"/>
	<path fill="#DA0000" d="M365.2,299.2c-14,0.2-31.5-1.9-44.5-8.7c2.2,4.2,3.9,6.8,6.1,11C339.1,302.6,356.3,304,365.2,299.2
		L365.2,299.2z M276.1,299.2c14,0.2,31.5-1.9,44.5-8.7c-2.2,4.2-3.9,6.8-6.1,11C302.2,302.6,285,304,276.1,299.2L276.1,299.2z
		 M301.7,169.1c2.8,7.5,10.2,8.6,18.1,4.2c5.8,3.4,14.7,3.7,17.8-3.8c2.3,18.6-17.2,14.1-17.8,10.5C312.5,187,299,183,301.7,169.1
		L301.7,169.1z"/>
	<path fill="#DA0000" d="M320.4,310.9l7.3-8.4l1-112.6l-8.7-7.7l-8.7,7.3l1.8,113.4L320.4,310.9L320.4,310.9z"/>
	<rect x="55.6" y="129.6" fill="#FFFFFF" width="27.8" height="28"/>
	<rect y="129.6" fill="#FFFFFF" width="27.8" height="28"/>
	<rect x="111.3" y="129.6" fill="#FFFFFF" width="27.8" height="28"/>
	<rect x="166.9" y="129.6" fill="#FFFFFF" width="27.8" height="28"/>
	<rect x="222.6" y="129.6" fill="#FFFFFF" width="27.8" height="28"/>
	<rect x="278.2" y="129.6" fill="#FFFFFF" width="27.8" height="28"/>
	<rect x="333.9" y="129.6" fill="#FFFFFF" width="27.8" height="28"/>
	<rect x="389.5" y="129.6" fill="#FFFFFF" width="27.8" height="28"/>
	<rect x="445.2" y="129.6" fill="#FFFFFF" width="27.8" height="28"/>
	<rect x="500.8" y="129.6" fill="#FFFFFF" width="27.8" height="28"/>
	<rect x="556.5" y="129.6" fill="#FFFFFF" width="27.8" height="28"/>
	<rect x="612.1" y="129.6" fill="#FFFFFF" width="27.8" height="28"/>
	<rect x="55.7" y="322.3" fill="#FFFFFF" width="27.8" height="29.3"/>
	<rect x="0" y="322.3" fill="#FFFFFF" width="27.8" height="29.3"/>
	<rect x="111.3" y="322.3" fill="#FFFFFF" width="27.8" height="29.3"/>
	<rect x="167" y="322.3" fill="#FFFFFF" width="27.8" height="29.3"/>
	<rect x="222.6" y="322.3" fill="#FFFFFF" width="27.8" height="29.3"/>
	<rect x="278.3" y="322.3" fill="#FFFFFF" width="27.8" height="29.3"/>
	<rect x="333.9" y="322.3" fill="#FFFFFF" width="27.8" height="29.3"/>
	<rect x="389.6" y="322.3" fill="#FFFFFF" width="27.8" height="29.3"/>
	<rect x="445.2" y="322.3" fill="#FFFFFF" width="27.8" height="29.3"/>
	<rect x="500.9" y="322.3" fill="#FFFFFF" width="27.8" height="29.3"/>
	<rect x="556.5" y="322.3" fill="#FFFFFF" width="27.8" height="29.3"/>
	<rect x="612.2" y="322.3" fill="#FFFFFF" width="27.8" height="29.3"/>
</svg>
