<svg xmlns="http://www.w3.org/2000/svg" width="640px" height="480px" viewBox="0 0 640 480">
	<path fill="#000066" d="M0,0h640v480H0V0z"/>
	<path fill="#FFFFFF" d="M0,0v27l334.4,215.3h42.1v-27L42.1,0H0z M376.5,0v27L42.1,242.4H0v-27L334.4,0H376.5z"/>
	<path fill="#FFFFFF" d="M156.9,0v242.3h62.7V0H157H156.9z M0,80.8v80.7h376.5V80.8H0z"/>
	<path fill="#CC0000" d="M0,97v48.4h376.5V96.9L0,97L0,97z M169.4,0v242.3h37.7V0H169.4z M0,242.3l125.5-80.8h28L28.2,242.3H0z M0,0
		l125.5,80.8h-28L0,18V0z M223,80.8L348.3,0h28.1L251,80.8H223z M376.5,242.3L251,161.5h28l97.5,62.7V242.3z"/>
	<circle fill="#6DA544" cx="491" cy="185.3" r="52.5"/>
	<rect x="399.2" y="172.2" fill="#D80027" width="183.6" height="78.7"/>
	<path fill="#496E2D" d="M582.8,316.5L582.8,316.5L582.8,316.5z"/>
	<path fill="#FFDA44" d="M399.2,368.9v52.5h27.6c16.5,16.2,39.2,26.2,64.2,26.2c25,0,47.6-10,64.2-26.2h1.4h26.2v-52.5H399.2z"/>
	<path fill="#338AF3" d="M399.2,237.8v78.7c0,70.3,91.8,91.8,91.8,91.8s91.8-21.5,91.8-91.8v-78.7L399.2,237.8L399.2,237.8z"/>
	<path fill="#F3F3F3" d="M491,279.8c-22.9,0-22.9,21-45.9,21c-22.9,0-22.9-21-45.9-21v36.7c22.9,0,22.9,21,45.9,21
			c22.9,0,22.9-21,45.9-21c22.9,0,22.9,21,45.9,21c22.9,0,22.9-21,45.9-21v-36.7c-22.9,0-22.9,21-45.9,21
			C514,300.8,514,279.8,491,279.8z"/>
	<path fill="#F3F3F3" d="M491,206.3c-22.9,0-22.9,21-45.9,21c-22.9,0-22.9-21-45.9-21V243c22.9,0,22.9,21,45.9,21
			c22.9,0,22.9-21,45.9-21c22.9,0,22.9,21,45.9,21c22.9,0,22.9-21,45.9-21v-36.7c-22.9,0-22.9,21-45.9,21
			C514,227.3,514,206.3,491,206.3z"/>
</svg>
