<svg xmlns="http://www.w3.org/2000/svg" width="640px" height="480px" viewBox="0 0 640 480">
	<path fill="#D3AE3B" d="M0,0h640v480H0V0z"/>
	<path fill="#C40308" d="M24,24h592v432H24V24z"/>
	<circle fill="#41479B" cx="417.6" cy="316.2" r="18.2"/>
	<path fill="#E6B432" d="M449.6,211.5c-13.4,11.3-22.5,11.8-22.5,11.8c23.9-9.7,21.4-28.3,21.4-28.3c-11.3,14.9-22.8,19-22.8,19
			c24-16.3,20.2-38.1,20.2-38.1c-7.8,17.3-17.8,24.1-17.8,24.1c20-26.6,10.2-43.7,10.2-43.7c-7.8,24.6-14.4,31.7-14.4,31.7
			c15.3-41,2.2-52.8,2.2-52.8c0,22-8.2,34.6-8.2,34.6c8.6-29-4.9-45.6-4.9-45.6s-0.1,23.6-4.7,36c-1.1-1.7-1.7-1.4-1.7-1.4
			c-2.3,15.2-10.5,25.9-14,29.9c-0.8-3.8-3.1-4.9-3.1-4.9s-0.4,3.7-3.8,9.2c-2.2,3.6-12.5,12-14.2,19.3c-1.3,5.9,4.5,10.8,6.4,12
			c1.9,1.2,3.9,3.3,3.1,6.8c-0.8,3.4-7,3.1-11.4,3c-4.4-0.1-5,7.1-9.9,6.9l-0.8,5.4l-1.9,0.4c0,0-20,39.8-21.7,53.3l-14.7,1.9
			L306,300c-1.7-13.5-21.7-53.3-21.7-53.3l-1.9-0.4l-0.8-5.4c-4.9,0.2-5.5-7-9.9-6.9c-4.4,0.1-10.6,0.5-11.4-3
			c-0.8-3.4,1.2-5.6,3.1-6.8s7.7-6.1,6.4-12c-1.7-7.4-12-15.7-14.2-19.3c-3.3-5.5-3.8-9.2-3.8-9.2s-2.4,1.2-3.1,4.9
			c-3.5-4-11.7-14.7-14-29.9c0,0-0.6-0.2-1.7,1.4c-4.6-12.4-4.7-36-4.7-36s-13.4,16.6-4.9,45.6c0,0-8.2-12.6-8.2-34.6
			c0,0-13.1,11.8,2.2,52.8c0,0-6.6-7.1-14.4-31.7c0,0-9.8,17.1,10.2,43.7c0,0-9.9-6.8-17.8-24.1c0,0-3.8,21.9,20.2,38.1
			c0,0-11.5-4.2-22.8-19c0,0-2.5,18.5,21.4,28.3c0,0-9-0.5-22.5-11.8c0,0-2.4,16.4,28.8,24.8c0,0-12.7-0.2-25.7-8.9
			c0,0-0.4,16.2,26.3,19.4c0,0-8.8,1.3-18.7-2.3c0,0,0.4,13.1,23.5,14.7c0,0-9.1,0.7-15.1-0.7c0,0,0.6,13.4,18.9,11.2
			c0,0-6.2,2-8.2,2.6c0,0,0.4,11,19.4,7c0,0-3.4,2.1-8,2.8c0,0,3.9,9.1,19.8,5.1l-3.3,3.6c0,0,12.3,7.1,21.7-2.7l-3.4,6.1
			c0,0,8,3,13-4.8c0,0-1.4,11.8-18,13.9c0,0,0.6,2.5,1.3,3.4c0,0-1.1,2-10.7,3.7c0,0,2,3.1,4.2,4c0,0-4.2,3.6-6.4,4.3
			c0,0,3.6,1.8,5.8,2.1c0,0-5,4.9-11.2,5c-6.2,0.1-17.2-0.6-17.2-0.6s-0.1-5.9-3-11c-2.9-5.1-3.8-5.5-3.8-5.5s0.6-4.1-1.2-5.8
			c-1.8-1.7-2.8-2.5-2.8-2.5s1-8.2-1.7-13.3c-2.6-5.1-11.9-16.3-12.4-24.6c-0.5-8.3-0.1-11.4-0.1-11.4l-2.9,0.7l-1.9-3.9l3.2-0.4
			l-1.3-5.9l-4.4,1.7l-0.6-5.1l-5.2,2.1l2.6,4.6l-4.6,1.3l2.7,5.5l3.6-2.3l1,4.8c0,0-2.1,0.5-3.3,2.4c0,0,5.9,3.9,7.6,8.6
			c2.7,7.4,1.9,24,5.8,29c3.9,5,7,8.4,7,8.4s-1.1,3.4,0.1,5.3s3,2.4,3,2.4s-1.1,7.6,1.7,12.6c2.8,5,4.4,6.2,4.4,6.2
			s-10.1,6.1-2.9,13.3c0,0-1,6.5,5.8,8c0,0,0.4,5.1,6.2,4.5c0,0,2.9-0.8,3.6,0.6c0.7,1.4,0,9.6,0,9.6s2.6-0.2,4.3-1.4l5.2,2.6
			l0.1-5.8l6.5-2.6c0,0-2.9,0.5-8.7-5c0,0,1-0.6,1.7-5.2c0,0,4.6-3.7,5.6-6.7c1-3,7.5-9.5,15.1-11.6l1,4.6c0,0,10.9-9.6,15.4-10.2
			l3.7,4.9c0,0,14-20.8,20.2-24.5c-0.5,1.7,3,1.9-4.7,10.5c-7.7,8.6-2.9,15.3-2.9,15.3c-4.8,3.9-3.8,7.5-4.4,11.5
			c-0.6,4-16.4,14.5-16.4,14.5c5,6.3,10.6,4.9,10.6,4.9c-3.1,2-2.1,8.8-2.1,8.8c4.5,1.2,9-0.8,9-0.8c-1.5,4.3,0.8,7.2,0.8,7.2
			c2.9-1.8,9.4-2.9,9.4-2.9c-0.8,7.4,3.9,11.3,3.9,11.3l4.2-4.5c0.7,8.3,8.1,13.1,8.1,13.1s7.4-4.8,8.1-13.1l4.2,4.5
			c0,0,4.8-3.9,3.9-11.3c0,0,6.5,1.1,9.4,2.9c0,0,2.4-3,0.8-7.2c0,0,4.5,2,9,0.8c0,0,1-6.8-2.1-8.8c0,0,5.6,1.4,10.6-4.9
			c0,0-15.8-10.5-16.4-14.5c-0.6-4,0.4-7.6-4.4-11.5c0,0,4.8-6.8-2.9-15.3c-7.7-8.6-4.2-8.8-4.7-10.5c6.2,3.7,20.2,24.5,20.2,24.5
			l3.7-4.9c4.5,0.5,15.4,10.2,15.4,10.2l1-4.6l0.2-0.2c5.7,3.1,15,7.2,18.8,10.1c4,3.1,7.4,3.3,17.1,0s27.9-8.4,25.2-14.5
			c-0.1-0.3-0.3-0.6-0.5-0.8c0.4-1.6,0.6-4.3-2.3-6.7c0,0,0,0.7,0,1.5l-9.3-3.5c-0.3-0.8-0.8-1.6-1.7-2.3c0,0,0,0.7-0.1,1.7
			l-2.4-0.9l4.8-13.4c-0.4-0.2-0.8-0.3-1.1-0.5c0.1-1.2,0.3-2.9,0.7-4.6c1.2,0.4,2.2,0.9,3,1.5l1.3-4.9c0,0-1.4-0.1-3.3-0.5
			c0.5-1.5,1.1-2.8,1.7-3.7l-6.3-1.9c0,0,0.2,1.9,0.1,4.3c-1.2-0.5-2.3-1.1-3.3-1.9l-1.5,5.4c0.5,0,2.2,0.2,4.2,0.5
			c-0.4,1.6-1,3-1.9,4.1c-0.2,0-0.4-0.1-0.7-0.1l-4.6,13l-12.5-4.7c-0.5,0.8-1,1.8-1.3,2.7c0.1-0.1,0.1-0.3,0.2-0.4
			c0,0-4.8,2.5-4.8,6.3c-0.9,0.3-1.7,1-2.1,2.2c-1.4,3.7,7.3,12.1,5.2,13.2c-2.1,1-13.1-8-14.8-9.5c2.3-0.4,5.6-2.1,5.6-2.1
			c-2.3-0.7-6.4-4.3-6.4-4.3c2.1-1,4.2-4,4.2-4c-9.6-1.7-10.7-3.7-10.7-3.7c0.7-1,1.3-3.4,1.3-3.4c-16.6-2.1-18-13.9-18-13.9
			c5,7.8,13,4.8,13,4.8l-3.4-6.1c9.4,9.8,21.7,2.7,21.7,2.7l-3.3-3.6c15.9,4,19.8-5.1,19.8-5.1c-4.6-0.7-8-2.8-8-2.8
			c19.1,3.9,19.4-7,19.4-7c-2-0.6-8.2-2.6-8.2-2.6c18.3,2.3,18.9-11.2,18.9-11.2c-5.9,1.4-15.1,0.7-15.1,0.7
			c23.2-1.7,23.5-14.7,23.5-14.7c-9.9,3.6-18.7,2.3-18.7,2.3c26.6-3.2,26.3-19.4,26.3-19.4c-12.9,8.7-25.7,8.9-25.7,8.9
			C451.9,227.9,449.6,211.5,449.6,211.5z M422.6,329c-1.3-2.1,1.8-3.9,3.1-5.9l5.3,2C429.2,327.3,423.9,331.2,422.6,329z
			 M419.1,320.7c-1.7,2.6-2.9,5.6-8.2,5.8c-6.6,0.2-7.7-5.7-9.1-8.9c-0.4-0.9-1.1-1.6-2-2.1c0-0.6,0-1.2,0.1-1.8L419.1,320.7z"/>
	<path fill="#E6B432" d="M318.7,195.2c0,0-8.5-7.2-11-11.1c0,0,2.9-1.2,4.3-2.9c0,0-7.7-4.1-11.8-8.3c0,0,2.7-0.4,4.7-2.1
			c0,0-6.9-1.2-10.4-6.9c8-2.7,5.3-10.1,5.3-10.1c-1.6,2.1-8.2,4.8-15.3,1.8s-15-0.9-15,3c0,0-16-4.6-12,10.9c0,0,2.6-5.8,8.3-3.7
			c5.7,2.1,11.5,9.4,11.5,9.4s-3.6,2-10.2-0.2c0,0,2.7,10.2,14.7,5.1c0,0,4.8,2.6,5,10c0,0,2-1.1,3.3-3.4c0,0,1.9,7.2-0.6,13.2
			c0,0,3.3-0.6,4.4-1.7c0,0,1,6.3-3.2,11.4c0,0,18.3,8.7,29.9-0.8c0,0-4.4-5-5.8-9.6C314.9,199.1,317.3,198.1,318.7,195.2z"/>
	<path fill="#E6B432" d="M371.7,158.5c0-3.9-7.8-6.1-15-3s-13.7,0.4-15.3-1.8c0,0-2.7,7.4,5.3,10.1c-3.5,5.6-10.4,6.9-10.4,6.9
			c2,1.7,4.7,2.1,4.7,2.1c-4.1,4.2-11.8,8.3-11.8,8.3c1.4,1.8,4.3,2.9,4.3,2.9c-2.5,3.9-11,11.1-11,11.1c1.4,2.9,3.8,3.9,3.8,3.9
			c-1.4,4.6-5.8,9.6-5.8,9.6c11.6,9.5,29.9,0.8,29.9,0.8c-4.2-5.1-3.2-11.4-3.2-11.4c1.1,1.1,4.4,1.7,4.4,1.7
			c-2.5-5.9-0.6-13.2-0.6-13.2c1.3,2.4,3.3,3.4,3.3,3.4c0.2-7.5,5-10,5-10c12,5.2,14.7-5.1,14.7-5.1c-6.6,2.1-10.2,0.2-10.2,0.2
			s5.8-7.3,11.5-9.4c5.7-2.1,8.3,3.7,8.3,3.7C387.8,153.8,371.7,158.5,371.7,158.5z"/>
	<path fill="#E6B432" d="M364.5,253.1c-1.6-9.1-2.9-17,1-26l0.7-1.7l-15.6-17.9l-1.8,0.6c-0.2,0.1-16.4,5.4-26.8,0.2l-1.3-0.7
			l-1.3,0.7c-10.4,5.2-26.7-0.1-26.8-0.2l-1.8-0.6l-15.6,17.9l0.7,1.7c3.9,9,2.6,16.9,1,26c-1.5,8.6-3.1,18.3-0.2,30.2
			c3.2,12.9,13.9,17.5,23.4,21.5c7.3,3.1,14.2,6.1,18.1,12.3l2.5,3.9l2.5-3.9c3.9-6.2,10.8-9.1,18.1-12.3
			c9.5-4.1,20.2-8.6,23.4-21.5C367.6,271.5,365.9,261.7,364.5,253.1z M281.9,226.5l10.7-12.3c4.8,1.3,17.9,4.2,28.1-0.1
			c10.2,4.3,23.3,1.4,28.1,0.1l10.7,12.3c-3.7,9.9-2.3,18.5-0.7,27.6c1.2,6.8,2.3,13.8,1.4,21.9h-78.8c-1-8.1,0.2-15.1,1.4-21.9
			C284.2,245,285.6,236.4,281.9,226.5z M339,299.6c-6.6,2.8-13.4,5.7-18.3,11.2c-4.9-5.5-11.7-8.4-18.3-11.2
			c-9.3-4-17.3-7.4-19.9-17.1h76.4C356.2,292.1,348.2,295.6,339,299.6z"/>
	<path fill="#41479B" d="M281.9,226.5l10.7-12.3c4.8,1.3,17.9,4.2,28.1-0.1c10.2,4.3,23.3,1.4,28.1,0.1l10.7,12.3
		c-3.7,9.9-2.3,18.5-0.7,27.6c1.2,6.8,2.3,13.8,1.4,21.9h-78.8c-1-8.1,0.2-15.1,1.4-21.9C284.2,245,285.6,236.4,281.9,226.5z"/>
	<path fill="#73AF00" d="M282.1,280.7c0.1,0.4,0.2,0.8,0.3,1.2c2.5,10.1,10.6,13.6,20.1,17.6c6.6,2.8,13.4,5.7,18.3,11.2
		c4.9-5.5,11.7-8.4,18.3-11.2c9.4-4,17.6-7.5,20.1-17.6c0.1-0.4,0.2-0.8,0.3-1.2H282.1z"/>
	<path fill="#E6B432" d="M355.5,247c0-5.3-5-6.1-9.5-6c-4.5,0.1-11.2-0.7-11.4-4.3c-0.1-2.2,3.6-2.4,6-1.6c1.4,0.4,10.1,2,12.8-3.8
			c0,0-3.2,0.1-6.5-0.6c-2.6-0.6-13.2,0.7-15.1,4.8c-1.9,4.1,4.2,8.2,11.3,8.2c7.1,0,8.1,1.4,8,3.1c-0.1,2.3-5.7,2.9-8.9,2.9
			c-5.1-1.8-16.9-0.4-17-0.6c-0.1-0.3-2.7-4.9-2.7-4.9s4.9-0.3,5.5-1.2c0.6-0.9-3.7-4.3-3.7-4.3s3.6-1.4,3.8-2.5
			c0.2-1.1-2.9-3.8-2.9-3.8s1.2-1.2,2.1-3.2c0.6-1.4-4.5-1.8-4.5-1.8c0.3-1.1,0.2-2.1-1.2-2.6c-1-0.4-4.9,1.1-7.5,1.1
			c-2.6,0-3.6,1.9-3.6,1.9s-4.6,0.5-5.3,1.1c-0.6,0.5,0.2,4.1,0.2,4.1c-2.4-0.4-3.5-2.5-3.5-2.5c-1.2,5.4,4.4,5.9,4.4,5.9l0.9,2.9
			c0,0,0,0,2.3,0.3c2.3,0.3,1.2,2.5-2.4,2.5c-3.5,0-5,4.2-5,4.2c-2.5,0.1-3.8-1.9-4.4-4.4c-0.6-2.8-0.2-7.1,0.2-9.8
			c0.5-3.3-1.1-4.2-1.1-4.2l-1.1,2.7c-0.1-2.8-2.5-3.1-2.5-3.1l-0.4,3.4c-1.2-2.3-3.4-1.2-3.4-1.2s2.1,7.4,2,7.8
			c-0.1,0.4-0.8,0.8-1.7-0.3c-1-1-1.6-0.3-1.6-0.3c1,7.4,5,6.3,5,6.3s0.2,2.3,1.4,7c1.3,5,6.5,4.1,6.5,4.1c0,1.6,1.3,4,1.6,9.4
			c0.4,5.4-4.6,9.3-4.6,9.3c-4.5-0.1-4.1,4.4-4.1,4.4h12.5c0-11.6,5-13.6,5-13.6c7.4,0.3,14.5-2.7,14.5-2.7
			c-1.1,4.4,0.8,6.3,0.8,6.3c3-0.4,1.5,5.5,0.6,5.5c-0.9,0-2.7,0-3.8,0s-4.2,3.4-4.2,3.4h13c0,0,2-2.9,2.7-4.3
			c0.7-1.4-1.5-3.4-1.6-4.9c-0.1-1.5,2.3-2.5,2.3-2.5c2.5,3.6,8.3,3.8,8.3,3.8l-0.1-2.7c0,0,3,1,3.7,1.9c0.7,0.9,0.5,5-3.1,5.5
			c-3.6,0.5-3.9,3.1-3.9,3.1s8.3,0,9.9,0s2.9-3.1,2.9-4.2s0-8.8,0-10.4s-1.4-1.4-4.6-1.8c-2.9-0.3-2.6-3.5-3.8-7.2
			C349,252.3,355.5,251.4,355.5,247z"/>
	<path fill="#E6B432" d="M354.8,122.7c-0.8-7.2-6.5-16.3-28.3-20.6c-0.1-2.3-1.5-4.3-3.5-5.1v-4h3.6v-4.3h-3.6v-3.6h-4.3v3.6h-3.6
			v4.3h3.6v4c-2,0.8-3.5,2.8-3.5,5.1c-21.8,4.3-27.5,13.4-28.3,20.6c-1,8.9,5.4,17.4,11.2,20.7v4.5h45.6v-4.5
			C349.4,140.2,355.8,131.7,354.8,122.7z M330.9,136.5h-6.4v-26.3c5.3,2.4,8.5,6,9.5,11C335.2,127.5,332.7,133.9,330.9,136.5z
			 M307.6,121.3c0.9-5,4.2-8.7,9.5-11v26.3h-6.4C308.9,133.9,306.4,127.5,307.6,121.3z M302.3,114c-1,2.1-1.7,4.2-2.1,6.1
			c-1,5.8,0.2,11.8,2.1,16.4h-1.5c-3.2-2.2-7.3-7.6-6.7-13C294.6,119.8,297.5,116.6,302.3,114z M340.7,136.5h-1.5
			c2-4.6,3.1-10.5,2.1-16.4c-0.3-1.9-1-4-2.1-6.1c4.9,2.6,7.7,5.8,8.2,9.5C348,128.9,343.9,134.3,340.7,136.5z"/>
</svg>
