<svg xmlns="http://www.w3.org/2000/svg" width="640px" height="480px" viewBox="0 0 640 480">
	<path fill="#0071BC" d="M0,0h640v480H0V0z"/>
	<path fill="#F5F5F5" d="M320,431.8c-107.8,0-195.6-87.7-195.6-195.6S212.2,40.7,320,40.7s195.6,87.7,195.6,195.6
		S427.8,431.8,320,431.8z M320,81.1c-85.5,0-155.1,69.6-155.1,155.1S234.5,391.3,320,391.3s155.1-69.6,155.1-155.1
		S405.5,81.1,320,81.1z"/>
	<path fill="#FFDC00" d="M320,418.3c-100.4,0-182.1-81.7-182.1-182.1S219.6,54.1,320,54.1s182.1,81.7,182.1,182.1
			S420.4,418.3,320,418.3z M320,67.6c-93,0-168.6,75.6-168.6,168.6S227,404.8,320,404.8s168.6-75.6,168.6-168.6S413,67.6,320,67.6z"
	/>
	<circle fill="#FFDC00" cx="144.7" cy="236.2" r="13.5"/>
	<circle fill="#FFDC00" cx="495.3" cy="236.2" r="13.5"/>
	<circle fill="#FFDC00" cx="320" cy="60.9" r="13.5"/>
	<circle fill="#FFDC00" cx="196" cy="112.2" r="13.5"/>
	<circle fill="#FFDC00" cx="444" cy="112.2" r="13.5"/>
	<circle fill="#FFDC00" cx="482" cy="169.1" r="13.5"/>
	<circle fill="#FFDC00" cx="252.9" cy="74.2" r="13.5"/>
	<circle fill="#FFDC00" cx="158" cy="169.1" r="13.5"/>
	<circle fill="#FFDC00" cx="387.1" cy="74.2" r="13.5"/>
	<circle fill="#FFDC00" cx="492" cy="202" r="13.5"/>
	<circle fill="#FFDC00" cx="285.8" cy="64.3" r="13.5"/>
	<circle fill="#FFDC00" cx="174.2" cy="138.8" r="13.5"/>
	<circle fill="#FFDC00" cx="417.4" cy="90.5" r="13.5"/>
	<circle fill="#FFDC00" cx="465.8" cy="138.8" r="13.5"/>
	<circle fill="#FFDC00" cx="222.6" cy="90.5" r="13.5"/>
	<circle fill="#FFDC00" cx="148" cy="202" r="13.5"/>
	<circle fill="#FFDC00" cx="354.2" cy="64.3" r="13.5"/>
	<path fill="#FFA000" d="M495.3,243c-3.7,0-6.7-3-6.7-6.7c0-93-75.6-168.6-168.6-168.6s-168.6,75.6-168.6,168.6c0,3.7-3,6.7-6.7,6.7
		s-6.7-3-6.7-6.7c0-100.4,81.7-182.1,182.1-182.1s182.1,81.7,182.1,182.1C502.1,240,499.1,243,495.3,243z"/>
	<path fill="#B4B4B4" d="M357.5,438.5h-74.9c-16,0-28.5-13.9-26.8-29.8l23.8-226.5h80.9l23.8,226.5
		C386,424.7,373.5,438.5,357.5,438.5z"/>
	<path fill="#AAAAAA" d="M360.1,182.3h-80.5c-3.5,0-6.5-2.7-6.9-6.2l-5-46.3c-0.9-8,5.4-14.9,13.4-14.9h77.8c8,0,14.3,7,13.4,14.9
		l-5,46C366.9,179.5,363.8,182.3,360.1,182.3z"/>
	<path fill="#F5F5F5" d="M323.1,130.6l25,71.9l76.1,1.6c3.1,0.1,4.4,4,1.9,5.9l-60.7,46l22.1,72.9c0.9,3-2.5,5.5-5.1,3.7L320,289
		l-62.5,43.5c-2.6,1.8-6-0.7-5.1-3.7l22.1-72.9l-60.7-46c-2.5-1.9-1.2-5.9,1.9-5.9l76.1-1.6l25-71.9
		C317.9,127.6,322.1,127.6,323.1,130.6z"/>
</svg>
