<svg xmlns="http://www.w3.org/2000/svg" width="640px" height="480px" viewBox="0 0 640 480">
	<path fill="#CE1126" d="M426.7,0H640v480H426.7V0z"/>
	<path fill="#FFFFFF" d="M213.3,0h213.4v480H213.3V0z"/>
	<path fill="#006847" d="M0,0h213.3v480H0V0z"/>
	<polygon fill="#FFD250" points="337.9,245.8 318.9,255.3 318.9,264.8 328.4,264.8 	"/>
	<path fill="#00C3A0" d="M318.9,288.5c-2.6,0-4.7-2.1-4.7-4.7v-19c0-2.6,2.1-4.7,4.7-4.7c2.6,0,4.7,2.1,4.7,4.7v19
			C323.7,286.3,321.5,288.5,318.9,288.5z"/>
	<path fill="#00C3A0" d="M318.9,269.5c-18.6,0-36.6-7.2-50.6-20.2c-1.9-1.8-2-4.8-0.2-6.7c1.8-1.9,4.8-2,6.7-0.2
			c12.3,11.4,28,17.7,44.2,17.7c16.2,0,31.9-6.3,44.2-17.7c1.9-1.8,4.9-1.7,6.7,0.2c1.8,1.9,1.7,4.9-0.2,6.7
			C355.5,262.3,337.5,269.5,318.9,269.5z"/>
	<path fill="#00AADC" d="M318.9,288.5c-12.1,0-23.9-3.5-34-10.3l5.2-7.9c17.1,11.4,40.5,11.4,57.6,0l5.2,7.9
		C342.8,284.9,331.1,288.5,318.9,288.5z"/>
	<polygon fill="#732D37" points="311.4,224.5 301,240.7 299.2,246 326.4,239.7 	"/>
	<path fill="#AAD264" d="M289.9,251.2c-12.5,0-27.6-10.5-31.6-34l9.3-1.6c3.3,19.5,15.3,26.2,22.5,26.1c2.2-0.1,4.5-0.8,4.7-2.4
		c0.2-1.9,0.3-2.3-4.7-4c-2.7-0.9-5.7-1.9-7.9-4.4c-8.7-9.9,3.1-20.4,8.7-25.4c1-0.9,1.4-1.6,1.3-1.9c-0.3-0.8-2.2-2-4.3-2
		c-6,0-10.6-3.4-11.9-8.9c-1.4-5.7,1.2-11.6,6.2-14.2l4.3,8.4c-1.2,0.6-1.6,2.3-1.3,3.5c0.1,0.5,0.4,1.6,2.7,1.6
		c5.8,0,11.3,3.4,13.1,8.1c0.8,2,1.9,7.2-3.8,12.4c-6.2,5.6-9.9,9.7-7.9,12.1c0.5,0.5,2.5,1.2,3.8,1.7c4.3,1.4,12.2,4.1,11.1,14.1
		c-0.7,6.2-6.3,10.6-13.9,10.8C290.3,251.2,290.1,251.2,289.9,251.2z"/>
	<path fill="#874150" d="M328.4,198.4c0,0,9.5-19-9.5-28.4c0,0,66.3-9.5,56.9,75.8l0,0c-6.2-5-15.5-14.1-18.8-21.3l-28.6-16.6V198.4
		z"/>
	<path fill="#732D37" d="M318.9,217.4l47.4,28.4c0,0,0,0-19,9.5l-28.4-28.4V217.4z"/>
	<path fill="#783C46" d="M300,189L300,189c5.2,0,9.5,4.2,9.5,9.5l0,0c-5.7,5.7-7.1,14.3-3.5,21.4l2.1,4.3c0.9,1.8,2.1,3.4,3.5,4.8
		l26.3,26.3v-13.1c0-16.3-3.8-32.4-11.1-47l0,0c-4.8-9.6-14.7-15.7-25.4-15.7H300L300,189L300,189z"/>
	<path fill="#FFD250" d="M300,179.5l-9.5,9.5v9.5c0,0,11.3-5.7,15.1-7.5c2.7-1.3,2.2-4.3,0.6-5.7C305,184,300,179.5,300,179.5z"/>
	<path fill="#AAD264" d="M318.9,307.4c-44.4,0-80.6-36.1-80.6-80.6h9.5c0,39.2,31.9,71.1,71.1,71.1s71.1-31.9,71.1-71.1h9.5
		C399.5,271.3,363.3,307.4,318.9,307.4z"/>
	<circle fill="#FFE15A" cx="248.4" cy="255" r="6.4"/>
	<circle fill="#FFE15A" cx="262.6" cy="277.7" r="6.4"/>
	<circle fill="#FFE15A" cx="285.7" cy="294.9" r="6.4"/>
	<circle fill="#FFE15A" cx="390.2" cy="255" r="6.4"/>
	<circle fill="#FFE15A" cx="376" cy="277.7" r="6.4"/>
	<circle fill="#FFE15A" cx="352.9" cy="294.9" r="6.4"/>
	<path fill="#FFB478" d="M323.7,293.2h-9.5c-5.2,0-9.5-4.2-9.5-9.5l0,0c0-5.2,4.2-9.5,9.5-9.5h9.5c5.2,0,9.5,4.2,9.5,9.5l0,0
		C333.1,289,328.9,293.2,323.7,293.2z"/>
	<path fill="#9B4B5A" d="M357,224.5c3.2,9.3,9.9,17.8,18.8,21.3l0,0c9.5-85.3-56.9-75.8-56.9-75.8C366.3,170,357,224.5,357,224.5z"
	/>
</svg>
