<svg xmlns="http://www.w3.org/2000/svg" width="640px" height="480px" viewBox="0 0 640 480">
	<path fill="#0067C6" d="M0,0h640v480H0V0z"/>
	<path fill="#FFFFFF" d="M0,160h640v160H0V160z"/>
	<path fill="#FFDA44" d="M320.9,162.1c-43,0-77.9,34.9-77.9,77.9s34.9,77.9,77.9,77.9s77.9-34.9,77.9-77.9S363.9,162.1,320.9,162.1z
		 M320.9,284.5c-24.6,0-44.5-19.9-44.5-44.5s19.9-44.5,44.5-44.5s44.5,19.9,44.5,44.5S345.5,284.5,320.9,284.5z"/>
	<polygon fill="#0052B4" points="359.5,251.1 320.9,240 282.3,251.1 269.5,273.4 372.3,273.4 	"/>
	<polygon fill="#338AF3" points="320.9,184.3 295.2,228.9 320.9,240 346.6,228.9 	"/>
	<polygon fill="#6DA544" points="282.3,251.1 359.5,251.1 346.6,228.9 295.2,228.9 	"/>
</svg>
