<svg xmlns="http://www.w3.org/2000/svg" width="640px" height="480px" viewBox="0 0 640 480">
  <path fill="#EF2D29" d="M0,0h640v480H0V0z"/>
  <path fill="#009025" d="M174.6,317.3H640V480H174.6V317.3z"/>
  <path fill="#FFFFFF" d="M174.6,0H640v154.6H174.5L174.6,0z"/>
  <path fill="#F5F5F5"
        d="M35.1,94.8c-0.8,0.1-1.5,0.2-2.2,0.3v9.6c0.7,0.2,1.4,0.4,2.2,0.5C35.1,105.3,35.1,94.8,35.1,94.8z"/>
  <path fill="#F5F5F5"
        d="M68.3,113.1c-2-0.2-5.1-0.5-8.7-0.9l-23,20.5c3,0.5,6.6,1.1,8,1.5C50.5,129.1,58.4,122,68.3,113.1z"/>
  <polygon fill="#F5F5F5"
           points="102.9,80.6 102.9,79.6 102.9,78.6 62.1,78.6 62.1,79.6 62.1,80.6 62.1,81.5 102.9,81.5 	"/>
  <path fill="#F5F5F5"
        d="M72.7,22.2c0,2.9,4.3,5.3,9.5,5.3c5.1,0,9.5-2.4,9.5-5.3s-4.3-5.3-9.5-5.3S72.7,19.3,72.7,22.2z"/>
  <path fill="#F5F5F5" d="M63.8,93.6c-9.2,0-18.4,0.3-25.9,1v11.3c8.8,1.9,19.1,3.3,25.9,4.1V93.6z"/>
  <path fill="#F5F5F5"
        d="M16.3,149.5c3.6-0.1,11.6-1.5,17.1-5.8c1.7-1.3,4.5-3.7,8.6-7.2c-2.7-0.6-7.3-1.2-9.8-1.6L16.3,149.5z"/>
  <path fill="#F5F5F5" d="M69.1,75.8v-5.2c-0.7-1-1.4-2.1-2.1-3.2L60.7,72c1.2,2.1,2,3.5,2.2,3.8L69.1,75.8L69.1,75.8z"/>
  <path fill="#F5F5F5" d="M20.8,99.1c0,0.1-0.1,0.3,0.2,0.7c1.2,1.5,4.5,2.9,9,4.2v-8.4C24.7,96.4,21.2,97.6,20.8,99.1z"/>
  <path fill="#F5F5F5" d="M92.6,95V84.4H71.9v26.1h5.3C85.6,110.5,92.6,103.5,92.6,95z"/>
  <path fill="#F5F5F5"
        d="M59.3,56.2C48.3,39.9,36.4,22.7,33.5,19.3c0.4,1.5,1.4,4.4,3.7,9.7c3,6.9,10.3,20.1,16.4,30.8L59.3,56.2z"
  />
  <path fill="#F5F5F5" d="M55,62.2c1.6,2.8,3,5.3,4.2,7.4l6.1-4.4c-1.5-2.2-3-4.4-4.5-6.6L55,62.2z"/>
  <path fill="#F5F5F5" d="M69.1,110.4V93.6c-0.8,0-1.6,0-2.5,0v16.7C67.6,110.3,68.4,110.4,69.1,110.4z"/>
  <rect x="71.9" y="61.4" fill="#F5F5F5" width="20.7" height="2.9"/>
  <path fill="#F5F5F5" d="M121.3,75.6v0.2h1.1c0.8,0,1.4,0.6,1.4,1.4v5.7c0,0.8-0.6,1.4-1.4,1.4h-1.1v0.2c0,0.8,0.6,1.4,1.4,1.4h23.7
		c0.8,0,1.4-0.6,1.4-1.4v-8.9c0-0.8-0.6-1.4-1.4-1.4h-23.7C121.9,74.2,121.3,74.9,121.3,75.6z"/>
  <path fill="#F5F5F5"
        d="M147.8,149.4L132,134.9c-2.4,0.3-7,1-9.8,1.6c4.1,3.6,7,6,8.6,7.2C136.1,147.9,144,149.3,147.8,149.4z"/>
  <polygon fill="#F5F5F5" points="115.3,79.6 115.3,80.6 115.3,81.5 120.9,81.5 120.9,78.6 115.3,78.6 	"/>
  <path fill="#F5F5F5" d="M119.6,134.2c1.5-0.5,5.1-1.1,8.1-1.5l-33.9-30.3c-0.9,2.1-2.2,3.9-3.8,5.5l0.9,0.8
		C103.2,119.7,112.8,128.2,119.6,134.2z"/>
  <path fill="#F5F5F5" d="M43.7,84.5v-0.2h-1.1c-0.8,0-1.4-0.6-1.4-1.4v-5.7c0-0.8,0.6-1.4,1.4-1.4h1.1v-0.2c0-0.8-0.6-1.4-1.4-1.4
		H18.6c-0.8,0-1.4,0.6-1.4,1.4v8.9c0,0.8,0.6,1.4,1.4,1.4h23.7C43,85.9,43.7,85.3,43.7,84.5z"/>
  <polygon fill="#F5F5F5" points="49.6,80.6 49.6,79.6 49.6,78.6 44,78.6 44,81.5 49.6,81.5 	"/>
  <path fill="#F5F5F5" d="M103.5,72l-6.3-4.6c-0.6,1-1.3,1.9-1.9,2.8v5.5h6C101.5,75.6,102.3,74.2,103.5,72z"/>
  <polygon fill="#F5F5F5" points="73.8,52.8 90.7,52.8 87,48.7 77.5,48.7 	"/>
  <rect x="71.9" y="55.7" fill="#F5F5F5" width="20.7" height="2.8"/>
  <path fill="#F5F5F5" d="M82.1,30.3c-1.4,0-2.6-0.2-3.9-0.4v15.8h7.8V29.8C84.8,30.1,83.5,30.3,82.1,30.3z"/>
  <path fill="#F5F5F5" d="M71.9,70.1h20.6c0-0.2,0-0.3,0.1-0.5v-2.4H71.9L71.9,70.1L71.9,70.1z"/>
  <path fill="#F5F5F5" d="M98.8,65.2l6.1,4.4c1.2-2.1,2.7-4.6,4.2-7.4l-5.9-3.7C101.8,60.8,100.3,63,98.8,65.2z"/>
  <rect x="71.9" y="72.9" fill="#F5F5F5" width="20.7" height="2.9"/>
  <path fill="#F5F5F5" d="M110.6,59.8c6-10.6,13.3-23.9,16.4-30.8c2.3-5.4,3.3-8.2,3.7-9.7c-2.8,3.3-14.7,20.5-25.8,36.9L110.6,59.8z
		"/>
</svg>
