<svg xmlns="http://www.w3.org/2000/svg" width="640px" height="480px" viewBox="0 0 640 480">
	<path fill="#0038A8" d="M0,319.7h640V480H0V319.7z"/>
	<path fill="#FFFFFF" d="M0,160h640v160H0V160z"/>
	<path fill="#D52B1E" d="M0,0h640v160H0V0z"/>
	<path fill="#6DA544" d="M359.4,198.9l-14.7,14.7c6.3,6.3,10.2,14.9,10.2,24.5c0,19.2-15.5,34.7-34.7,34.7s-34.7-15.5-34.7-34.7
		c0-9.6,3.9-18.2,10.2-24.5L281,198.9c-10,10-16.3,23.9-16.3,39.2c0,30.6,24.8,55.5,55.5,55.5s55.5-24.8,55.5-55.5
		C375.7,222.8,369.5,209,359.4,198.9z"/>
	<polygon fill="#FFDA44" points="320.2,217.4 325.4,233.3 342.1,233.3 328.6,243.1 333.7,259 320.2,249.2 306.7,259 311.8,243.1
		298.3,233.3 315,233.3 	"/>
</svg>
