<svg xmlns="http://www.w3.org/2000/svg" width="640px" height="480px" viewBox="0 0 640 480">
  <path fill="#FFFFFF" d="M0,320h640v160H0V320z"/>
  <path fill="#0C4076" d="M0,160h640v160H0V160z"/>
  <path fill="#C6363C" d="M0,0h640v160H0V0z"/>
  <polygon fill="#FFE15A" points="281.7,156.5 169.2,156.5 164.5,128.4 286.4,128.4 	"/>
  <polygon fill="#FFD350" points="168,153 169.2,160 281.7,160 282.8,153 	"/>
  <rect x="223.1" y="66.3" fill="#FFE15A" width="4.7" height="18.7"/>
  <rect x="218.4" y="71" fill="#FFE15A" width="14.1" height="4.7"/>
  <path fill="#FFE15A" d="M282,141.3c-0.5,0-1.1-0.1-1.6-0.3c-2.4-0.9-3.7-3.6-2.8-6l9.9-27.4c0.5-1.4,0.4-2.9-0.3-4.1
			c-0.4-0.7-1.2-1.8-2.9-2.2c-12.1-2.6-35.6-6.9-56.7-6.9h-4.5c-21.1,0-44.6,4.3-56.7,6.9c-1.6,0.3-2.5,1.5-2.9,2.2
			c-0.7,1.2-0.8,2.7-0.3,4.1l9.9,27.4c0.9,2.4-0.4,5.1-2.8,6c-2.4,0.9-5.1-0.4-6-2.8l-9.9-27.4c-1.4-3.9-1.1-8.2,0.9-11.8
			c1.9-3.5,5.3-6,9.1-6.8c12.5-2.7,36.7-7.1,58.6-7.1h4.5c22,0,46.2,4.5,58.6,7.1c3.9,0.8,7.2,3.3,9.1,6.8c2,3.6,2.3,7.9,0.9,11.8
			l-9.9,27.4C285.7,140.1,283.9,141.3,282,141.3z"/>
  <path fill="#FFE15A" d="M225.4,137.2c-2.6,0-4.7-2.1-4.7-4.7V94.4c0-2.6,2.1-4.7,4.7-4.7s4.7,2.1,4.7,4.7v38.1
			C230.1,135.1,228,137.2,225.4,137.2z"/>
  <path fill="#FFE15A" d="M257.8,141.3c-0.3,0-0.6,0-1-0.1c-2.5-0.5-4.2-3-3.6-5.5l5.7-27.4c0.7-3.6-0.4-6.7-1.1-7.2
			c-6.5-2.4-19.5-6.6-31.1-6.6h-2.6c-11.6,0-24.6,4.2-31.4,6.7c-0.4,0.4-1.6,3.6-0.8,7.1l5.7,27.4c0.5,2.5-1.1,5-3.6,5.5
			s-5-1.1-5.5-3.6l-5.7-27.4c-1.4-6.8,0.8-15.6,6.7-17.8c9-3.3,22.2-7.3,34.6-7.3h2.6c12.4,0,25.7,4,34.6,7.3c6,2.2,8.2,11,6.7,17.8
			l-5.7,27.4C262,139.7,260,141.3,257.8,141.3z"/>
  <polygon fill="#FFD350" points="165.7,138.9 285.2,138.9 286.4,131.9 164.5,131.9 	"/>
  <path fill="#FF4B55" d="M136.4,160c-2.6,0-4.7,2.1-4.7,4.7v163.7c0,52,42,94.1,93.7,94.1s93.7-42.1,93.7-94.1V164.7
		c0-2.6-2.1-4.7-4.7-4.7H136.4L136.4,160z"/>
  <path fill="#F5F5F5" d="M234.8,314.6l9.4-23.4l-18.7,4.7l-18.7-4.7l9.4,23.4l-23.4,79.7c0,0,14.1,9.4,32.8,9.4s32.8-9.4,32.8-9.4
		L234.8,314.6z"/>
  <polygon fill="#FFE15A" points="191.5,333.5 183.2,335.6 201.4,302.9 193.2,298.3 171.1,338.1 150.5,338.1 150.5,347.5
		160.5,347.5 147.5,357.8 153.4,365.2 164.4,356.3 160.1,369.4 169,372.4 177.5,346.7 193.8,342.6 	"/>
  <path fill="#F5F5F5" d="M192.6,206.9l-21.4-10.7c-3.9-2-6-6.4-4.9-10.7l1.2-4.8c0.8-3.4-1.7-6.6-5.2-6.6c-1.6,0-3.1,0.7-4.2,2
		C147,190,141,207.2,141,225v99c0,0,19.6-3.9,37.2-29.6c3.2-4.7,8.6-7.5,14.3-7.8l-9.4,28.1l18.7,4.7l16.4-19.5L192.6,206.9z"/>
  <polygon fill="#FFE15A" points="259.4,333.5 267.6,335.6 249.5,302.9 257.6,298.3 279.7,338.1 300.4,338.1 300.4,347.5
		290.3,347.5 303.3,357.8 297.5,365.2 286.4,356.3 290.8,369.4 281.9,372.4 273.3,346.7 257.1,342.6 	"/>
  <path fill="#F5F5F5" d="M258.2,206.9l21.4-10.7c3.9-2,6-6.4,4.9-10.7l-1.2-4.8c-0.8-3.4,1.7-6.6,5.2-6.6c1.6,0,3.1,0.7,4.2,2
		c11.1,13.9,17.1,31.1,17.1,48.9v99c0,0-19.6-3.9-37.2-29.6c-3.2-4.7-8.6-7.5-14.3-7.8l9.4,28.1l-18.7,4.7l-16.4-19.5L258.2,206.9z"
  />
  <polygon fill="#FFE15A" points="197.3,174.1 173.9,174.1 180.9,183.4 197.3,188.1 187.9,192.8 202,192.8 		"/>
  <polygon fill="#FFE15A" points="253.5,174.1 277,174.1 269.9,183.4 253.5,188.1 262.9,192.8 248.9,192.8 		"/>
  <path fill="#F5F5F5" d="M256.8,170.4l-22,3.7l-9.4,18.7l-9.4-18.7l-22-3.7c-2.5-0.4-4.5,2.2-3.3,4.5l11.3,22.6l-9.4,9.4h32.8h32.8
		l-9.4-9.4l11.3-22.6C261.3,172.6,259.4,170,256.8,170.4z"/>
  <circle fill="#FFBE50" cx="225.4" cy="133.9" r="7"/>
  <ellipse fill="#41479B" cx="225.3" cy="150.7" rx="5.6" ry="3.9"/>
  <ellipse fill="#FF4B55" cx="197.6" cy="150.7" rx="5.6" ry="3.9"/>
  <ellipse fill="#41479B" cx="169.9" cy="150.7" rx="5.6" ry="3.9"/>
  <ellipse fill="#41479B" cx="280.8" cy="150.7" rx="5.6" ry="3.9"/>
  <ellipse fill="#FF4B55" cx="253" cy="150.7" rx="5.6" ry="3.9"/>
  <circle fill="#FFBE50" cx="258" cy="133.9" r="7"/>
  <circle fill="#FFBE50" cx="283.7" cy="133.9" r="7"/>
  <circle fill="#FFBE50" cx="192.9" cy="133.9" r="7"/>
  <circle fill="#FFBE50" cx="167.2" cy="133.9" r="7"/>
  <path fill="#41479B"
        d="M233.5,94.4c0.8-1.4,1.3-3,1.3-4.7c0-5.2-4.2-9.4-9.4-9.4s-9.4,4.2-9.4,9.4c0,1.7,0.5,3.3,1.3,4.7H233.5z"
  />
  <path fill="#FF4B55"
        d="M225.4,302.9c-19.4,0-35.1-15.8-35.1-35.1v-63.3h70.3v63.3C260.6,287.2,244.8,302.9,225.4,302.9z"/>
  <path fill="#A54B50" d="M258.2,206.9v60.9c0,18.1-14.7,32.8-32.8,32.8s-32.8-14.7-32.8-32.8v-60.9H258.2 M262.9,202.2h-4.7h-65.6
		h-4.7v4.7v60.9c0,20.7,16.8,37.5,37.5,37.5s37.5-16.8,37.5-37.5v-60.9L262.9,202.2L262.9,202.2z"/>
  <path fill="#F5F5F5"
        d="M218.4,299.8c2.3,0.5,4.6,0.8,7,0.8s4.8-0.3,7-0.8v-92.9h-14.1C218.4,206.9,218.4,299.8,218.4,299.8z"/>
  <rect x="192.6" y="245.5" fill="#F5F5F5" width="65.6" height="14.1"/>
</svg>
