<svg xmlns="http://www.w3.org/2000/svg" width="640px" height="480px" viewBox="0 0 640 480">
<path fill="#000066" d="M640,480V0H0v480H640z"/>
<path fill="#FFFFFF" d="M0,73.3h76L0,26.8V0h43.5l106.4,64.8V0h59.9v64.8L316,0h44v26.8l-76.4,46.5H360v73.4h-76.4l76.4,46.6V220
	h-44l-106.4-64.7V220H150v-64.7L43.4,220H0v-26.7l76-46.6H0V73.3z"/>
<path fill="#CE1126" d="M331.7,0L211.5,73.4h28.8L360,0H331.7z M360,220l-119.8-73.3H269l90.9,55.9V220H360z M120.4,73.4L0,0v17.5
	l91.4,55.9H120.4z M120.1,146.7L0,220h28.7L149,146.7L120.1,146.7L120.1,146.7z"/>
<path fill="#CE1126" d="M0,88.6h162.6V0h35.2v88.6H360v43H197.8V220h-35.2v-88.5H0V88.6L0,88.6z"/>
<path fill="#8FC5FF" stroke="#FFFFFF" stroke-width="1.1" d="M602.2,266.1c0,73.1-11.7,152.1-106.8,189.8
	c-94.7-37.7-106.3-116.7-106.8-189.8H602.2L602.2,266.1z"/>
<path fill="#FFFF00" stroke="#FFFFFF" stroke-width="1.1" d="M602.2,266.1c0-27.8-1.3-54.7-0.9-78.1
	c-33.7-13.1-69.7-19.6-105.9-19.3c-23.8,0-70.4,3.6-105.9,19.3c0.9,23.3-0.9,50.3-0.9,78.1H602.2L602.2,266.1z"/>
<path stroke="#000000" stroke-width="0.1" d="M471.2,187.1c-3.6,0-11.7,0-13.5,0.9c-1.3,0.9-1.8,1.3,0.9,1.8s7.6,2.2,10.3,3.6
	c2.7,1.8,4.5,4.5,4.5,9c-2,11.3,3.4,22.7,13.5,28.3c0.4,0.4,0.9,0.9,0.4,2.7l-1.3,4.9c0,0.9-0.4,1.8,0.9,1.3
	c-1.4,2.5-2.9,4.9-4.5,7.2c-7.2-0.9-13.5,0-13.5,8.1c0,0.9,0,1.8,0.9,0c1.3-1.8,2.7-3.6,5.8-4.5c-1.8,3.1-2.7,5.8-2.2,7.6
	c0,1.3,0.9,2.2,1.8,0c0.4-1.8,2.2-3.6,3.6-4.9c0.9-0.4,0.9-0.4,0.4,0.9c-0.4,1.3,0.4,4,1.3,4.9c0.9,0.9,1.3,0.4,0.9-0.9
	c0-1.8,0-4.9,2.2-5.8c2.7-1.8,5.4-0.9,6.3,0.9c1.3,2.2,2.2,0,0.9-1.8s-2.7-4-4.5-4l4.5-7.6c0-0.9,0.9-1.3,1.8-0.9
	c0,0.4,0.9,0.4,1.3-0.9l3.1-6.3l2.7-0.9l4.5,6.7v2.7c0,1.8-1.8,5.8-2.2,7.2c-5.4,0-8.1,0-9.9,3.1c-0.9,1.3,0.4,1.8,1.8,1.3
	c1.3-0.8,2.9-1.3,4.5-1.3c0.9,0,1.3,0.9,0,1.3c-3.1,1.3-5.4,3.6-5.4,6.7c0,0.9,0.9,1.3,1.3,0c1.3-2.2,3.6-4,5.8-4.5
	c0,2.2,0.4,5.8,2.2,6.7c1.3,0.9,1.3,0,0.9-1.3c-0.9-2.2,0-4.5,1.3-5.8c2.2-2.7,7.6,0.9,9,1.8c0.9,0.9,1.8,1.3,0.9-1.3
	c-0.4-3.1-4.9-4.5-9-5.4l5.4-18.8c2.2,1.3,4.5-2.2,8.1-0.9c6.3,2.7,15.7,8.5,17,9.9c1.8,1.3,2.2,0.9,3.1,0c0.9-0.4,2.2,0,3.6,0
	c0.9,0.4,1.8,0.9,0.4-1.8c-2.6-4.7-6.3-8.7-10.8-11.7c3.6,0,8.1,0,8.1-0.9s-5.4-2.7-7.6-2.7c2.7-0.5,5.2-1.8,7.2-3.6
	c0.9-0.9,0-1.3-3.6-1.3c-9.4,0-14.4,0-19.3-2.7c-8.1-4.5-13-9.9-17-11.7c-1.8-1.3-3.1-4-4.5-6.3c-2.2-6.7-2.2-10.3-8.1-12.6
	C482,181.3,474.4,184,471.2,187.1L471.2,187.1z"/>
</svg>
