<svg xmlns="http://www.w3.org/2000/svg" width="640px" height="480px" viewBox="0 0 640 480">
	<path fill="#19B6EF" d="M0,240h640v240H0V240z"/>
	<path fill="#FFFFFF" d="M0,0h640v240H0V0z"/>
	<path fill="#6DA544" d="M401.8,170.2l-84.2,84.2l-84.2-84.2c-10.9,16.2-17.2,35.6-17.2,56.5v27.7c0,44.4,28.7,82.2,68.5,95.9
		c-5.3,10.4-4.4,23.4,3.4,33.1c10.3-8.3,21.1-16.9,30.1-24.2c9.1,7.3,19.8,15.9,30.1,24.2c7.9-9.8,8.7-23,3.2-33.5
		c39.3-14,67.5-51.5,67.5-95.6v-27.7C419,205.8,412.7,186.3,401.8,170.2z"/>
	<path fill="#FFDA44" d="M317.6,328.1c-40.7,0-73.8-33.1-73.8-73.8v-27.7c0-40.7,33.1-73.8,73.8-73.8s73.8,33.1,73.8,73.8v27.7
		C391.4,295,358.3,328.1,317.6,328.1z"/>
	<path fill="#338AF3" d="M363.7,254.3v-27.7c0-25.4-20.7-46.1-46.1-46.1s-46.1,20.7-46.1,46.1v27.7l46.1,9.2L363.7,254.3z"/>
	<path fill="#6DA544" d="M271.5,254.3L271.5,254.3c0,25.4,20.7,46.1,46.1,46.1c25.4,0,46.1-20.7,46.1-46.1l0,0H271.5z"/>
	<path fill="#FFDA44" d="M372.9,152.9c0-15.3-12.4-27.7-27.7-27.7c-7.1,0-13.5,2.7-18.4,7V116h9.2V97.6h-9.2v-9.2h-18.4v9.2h-9.2
		V116h9.2v16.3c-4.9-4.4-11.4-7-18.4-7c-15.3,0-27.7,12.4-27.7,27.7c0,8.2,3.6,15.5,9.2,20.6v16.3h92.2v-16.3
		C369.4,168.5,372.9,161.1,372.9,152.9z"/>
</svg>
