<svg xmlns="http://www.w3.org/2000/svg" width="640px" height="480px" viewBox="0 0 640 480">
	<path fill="#0F47AF" d="M0,0h640v480H0V0z"/>
	<path fill="#FFFFFF" d="M0,160h640v160H0V160z"/>
	<path fill="#50AF69" d="M319.4,295c-27.9,0-50.7-22.7-50.7-50.7c0-11.9,4.2-23.5,11.9-32.6l2.2,1.9c-7.2,8.6-11.2,19.5-11.2,30.8
			c0,26.3,21.4,47.8,47.8,47.8L319.4,295L319.4,295z"/>
	<path fill="#50AF69" d="M300.9,280c-0.6,1.1-0.9,2.6-1.1,4.1c-0.6-0.4-1.2-0.8-1.8-1.1c0,0-1,3.5-0.2,6c0,0-2.6,0.3-5.1,2.8
			c0,0,0.8,0.6,2.3,1.2c-2.4,1.9-3.2,3.7-3.2,3.7c14.2,7.1,21-2.8,21.3-3.3C309.7,283.5,300.9,280,300.9,280z"/>
	<path fill="#50AF69" d="M313.1,293.5C313.1,293.5,313.2,293.5,313.1,293.5L313.1,293.5C313.2,293.4,313.1,293.4,313.1,293.5z"/>
	<path fill="#50AF69" d="M287.8,270.5c-0.9,0.7-1.7,1.8-2.4,3c-0.3-0.6-0.7-1.1-1.1-1.6c0,0-2.1,2.6-2.4,5c0,0-2.3-0.7-5.3,0.5
			c0,0,0.5,0.8,1.5,1.8c-2.7,0.7-4,2-4,2c9.4,11.2,18.7,5.3,19.2,5.1C293.9,276.7,287.8,270.5,287.8,270.5z"/>
	<path fill="#50AF69" d="M293.2,286.3C293.2,286.4,293.2,286.4,293.2,286.3L293.2,286.3C293.2,286.3,293.2,286.3,293.2,286.3z"/>
	<path fill="#50AF69" d="M279.6,258.2c-1,0.2-2.1,0.8-3.1,1.6c-0.1-0.6-0.2-1.2-0.3-1.7c0,0-2.7,1.3-3.8,3.2c0,0-1.7-1.4-4.5-1.6
			c0,0,0.1,0.8,0.5,2.1c-2.5-0.4-4,0.2-4,0.2c3.6,12.7,13.4,11.3,13.9,11.2C282.4,265.5,279.6,258.2,279.6,258.2z"/>
	<path fill="#50AF69" d="M278.2,273.1C278.2,273.2,278.2,273.2,278.2,273.1L278.2,273.1C278.3,273.1,278.2,273.1,278.2,273.1z"/>
	<path fill="#50AF69" d="M276.4,244.1c-1,0.1-2.1,0.5-3.2,1c0.1-0.5,0.1-1,0.1-1.6c0,0-2.7,0.8-4.2,2.3c0,0-1.2-1.4-3.7-1.9
			c0,0-0.1,0.7,0,1.9c-2.1-0.7-3.7-0.4-3.7-0.4c0.3,11.4,9.5,11.4,9.9,11.4C277.2,250.7,276.4,244.1,276.4,244.1z"/>
	<path fill="#50AF69" d="M271.7,256.9C271.7,256.9,271.7,256.9,271.7,256.9L271.7,256.9C271.7,256.9,271.7,256.9,271.7,256.9z"/>
	<path fill="#50AF69" d="M277.5,232.4c-0.8-0.2-1.9-0.1-2.9,0c0.2-0.4,0.4-0.8,0.5-1.3c0,0-2.5,0-4.1,0.9c0,0-0.6-1.5-2.6-2.6
			c0,0-0.3,0.6-0.5,1.6c-1.6-1.1-3-1.3-3-1.3c-2.7,9.7,5,12.1,5.3,12.2C276.4,238.2,277.5,232.4,277.5,232.4z"/>
	<path fill="#50AF69" d="M270.2,241.9C270.2,241.9,270.2,241.9,270.2,241.9L270.2,241.9C270.2,241.9,270.2,241.9,270.2,241.9z"/>
	<path fill="#50AF69" d="M271.4,218.2c0,0-2.6,6.9,1.4,10.9c0,0,5.3-1.6,7.9-7.1l-2.2-0.4l-1.1-3.4l-3.8,1.7L271.4,218.2z"/>
	<path fill="#50AF69" d="M278.8,207.1c0,0-4.1,6.1-1,10.9c0,0,5.5-0.3,9.3-5.1L285,212l-0.3-3.6l-4.1,0.8L278.8,207.1z"/>
	<path fill="#50AF69" d="M320,295v-2.9c26.3,0,47.8-21.4,47.8-47.8c0-11.3-4-22.2-11.2-30.8l2.2-1.9c7.7,9.1,11.9,20.7,11.9,32.6
			C370.7,272.2,347.9,295,320,295z"/>
	<path fill="#50AF69" d="M338.5,280c0.6,1.1,0.9,2.6,1.1,4.1c0.6-0.4,1.2-0.8,1.8-1.1c0,0,1,3.5,0.2,6c0,0,2.6,0.3,5.1,2.8
			c0,0-0.8,0.6-2.3,1.2c2.4,1.9,3.2,3.7,3.2,3.7c-14.2,7.1-21-2.8-21.3-3.3C329.8,283.5,338.5,280,338.5,280z"/>
	<path fill="#50AF69" d="M326.3,293.5C326.3,293.5,326.3,293.5,326.3,293.5L326.3,293.5C326.3,293.4,326.3,293.4,326.3,293.5z"/>
	<path fill="#50AF69" d="M351.6,270.5c0.9,0.7,1.7,1.8,2.4,3c0.3-0.6,0.7-1.1,1.1-1.6c0,0,2.1,2.6,2.4,5c0,0,2.3-0.7,5.3,0.5
			c0,0-0.5,0.8-1.5,1.8c2.7,0.7,4,2,4,2c-9.4,11.2-18.7,5.3-19.2,5.1C345.5,276.7,351.6,270.5,351.6,270.5z"/>
	<path fill="#50AF69" d="M346.2,286.3C346.3,286.4,346.2,286.4,346.2,286.3L346.2,286.3C346.2,286.3,346.2,286.3,346.2,286.3z"/>
	<path fill="#50AF69" d="M359.8,258.2c1,0.2,2.1,0.8,3.1,1.6c0.1-0.6,0.2-1.2,0.3-1.7c0,0,2.7,1.3,3.8,3.2c0,0,1.7-1.4,4.5-1.6
			c0,0-0.1,0.8-0.5,2.1c2.5-0.4,4,0.2,4,0.2c-3.6,12.7-13.4,11.3-13.9,11.2C357.1,265.5,359.8,258.2,359.8,258.2z"/>
	<path fill="#50AF69" d="M361.2,273.1C361.2,273.2,361.2,273.2,361.2,273.1L361.2,273.1C361.2,273.1,361.2,273.1,361.2,273.1z"/>
	<path fill="#50AF69" d="M363,244.1c1,0.1,2.1,0.5,3.2,1c-0.1-0.5-0.1-1-0.1-1.6c0,0,2.7,0.8,4.2,2.3c0,0,1.2-1.4,3.7-1.9
			c0,0,0.1,0.7,0,1.9c2.1-0.7,3.7-0.4,3.7-0.4c-0.3,11.4-9.5,11.4-9.9,11.4C362.2,250.7,363,244.1,363,244.1z"/>
	<path fill="#50AF69" d="M367.7,256.9C367.7,256.9,367.8,256.9,367.7,256.9L367.7,256.9C367.7,256.9,367.7,256.9,367.7,256.9z"/>
	<path fill="#50AF69" d="M361.9,232.4c0.8-0.2,1.9-0.1,2.9,0c-0.2-0.4-0.4-0.8-0.5-1.3c0,0,2.5,0,4.1,0.9c0,0,0.6-1.5,2.6-2.6
			c0,0,0.3,0.6,0.5,1.6c1.6-1.1,3-1.3,3-1.3c2.7,9.7-5,12.1-5.3,12.2C363,238.2,361.9,232.4,361.9,232.4z"/>
	<path fill="#50AF69" d="M369.2,241.9C369.2,241.9,369.2,241.9,369.2,241.9L369.2,241.9C369.2,241.9,369.2,241.9,369.2,241.9z"/>
	<path fill="#50AF69" d="M368,218.2c0,0,2.6,6.9-1.4,10.9c0,0-5.3-1.6-7.9-7.1l2.2-0.4l1.1-3.4l3.8,1.7L368,218.2z"/>
	<path fill="#50AF69" d="M360.6,207.1c0,0,4.1,6.1,1,10.9c0,0-5.5-0.3-9.3-5.1l2.1-0.9l0.3-3.6l4.1,0.8L360.6,207.1z"/>
	<path fill="#41479B" d="M319.7,264.5l-4.5,6.7c-0.8,1.1-0.6,2.7,0.4,3.6l4.1,4.1l4.1-4.1c1-1,1.1-2.5,0.4-3.6L319.7,264.5z"/>
	<path fill="#F5F5F5" d="M321.6,271.2l-1.9-6.7l-1.9,6.7c-0.3,1.1-0.3,2.7,0.2,3.6l1.8,4.1l1.8-4.1
		C321.9,273.9,321.9,272.4,321.6,271.2z"/>
	<path fill="#41479B" d="M319.7,204.4v-18.1c0,0-6.9,9.9-5.8,24.4"/>
	<path fill="#41479B" d="M288.9,204.5c-9.9,21.6,0.3,39.4,2.4,42.7c0.1,0.1,14.2-22.8,14.2-22.8L288.9,204.5"/>
	<path fill="#F5F5F5" d="M299.3,234.3c-1.6-4.9-1.8-10.6,0.1-17.1l-6.2-7.4c-5.1,13.6-3,23.7,2.1,30.9
		C296.6,238.7,298,236.5,299.3,234.3z"/>
	<path fill="#FFE15A" d="M305.2,225.6c-0.4,0-0.9-0.2-1.1-0.6l-18.2-23.3c-0.5-0.6-0.4-1.5,0.3-2c0.6-0.5,1.5-0.4,2,0.3l18.2,23.3
		c0.5,0.6,0.4,1.5-0.3,2C305.9,225.5,305.5,225.6,305.2,225.6z"/>
	<path fill="#41479B" d="M276.3,226.9c-5.8,57.9,40.5,43.4,43.4,37.6l-29-14.5l5.8-11.6L276.3,226.9"/>
	<path fill="#F5F5F5" d="M290.3,233.6l-8.1-4.8c-1.8,34.4,16.6,40.1,30.1,38.4C301.3,265.7,290.4,257.6,290.3,233.6z"/>
	<path fill="#FFE15A" d="M296.5,240c-0.3,0-0.5-0.1-0.8-0.2l-23.2-14.5c-0.7-0.4-0.9-1.3-0.5-2c0.4-0.7,1.3-0.9,2-0.5l23.2,14.5
		c0.7,0.4,0.9,1.3,0.5,2C297.5,239.7,297,240,296.5,240z"/>
	<path fill="#41479B" d="M350.6,204.4c9.9,21.6-0.3,39.4-2.4,42.7c-0.1,0.1-14.2-22.8-14.2-22.8L350.6,204.4"/>
	<path fill="#F5F5F5" d="M340.1,234.2c1.6-4.9,1.8-10.6-0.1-17.1l6.2-7.4c5.1,13.6,3,23.7-2.1,30.9
		C342.8,238.6,341.4,236.4,340.1,234.2z"/>
	<path fill="#FFE15A" d="M334.2,225.5c-0.3,0-0.6-0.1-0.9-0.3c-0.6-0.5-0.7-1.4-0.3-2l18.2-23.3c0.5-0.6,1.4-0.7,2-0.3
		c0.6,0.5,0.7,1.4,0.3,2L335.3,225C335,225.4,334.6,225.5,334.2,225.5z"/>
	<path fill="#41479B" d="M363.1,226.9c5.8,57.9-40.5,43.4-43.4,37.6l29-14.5l-5.8-11.6L363.1,226.9"/>
	<path fill="#F5F5F5" d="M349.1,233.5l8.1-4.8c1.8,34.4-16.6,40.1-30.1,38.4C338.1,265.7,349.1,257.5,349.1,233.5z"/>
	<path fill="#FFE15A" d="M342.9,239.9c-0.5,0-1-0.2-1.2-0.7c-0.4-0.7-0.2-1.6,0.5-2l23.2-14.5c0.7-0.4,1.6-0.2,2,0.5
		c0.4,0.7,0.2,1.6-0.5,2l-23.2,14.5C343.4,239.8,343.1,239.9,342.9,239.9z"/>
	<circle fill="#FFE6E6" cx="319.7" cy="229.8" r="11.6"/>
	<circle fill="#F5F5F5" cx="319.7" cy="229.8" r="5.8"/>
	<path fill="#FFE15A" d="M319.7,248.6c-0.8,0-1.4-0.6-1.4-1.4v-17.4c0-0.8,0.6-1.4,1.4-1.4c0.8,0,1.4,0.6,1.4,1.4v17.4
		C321.2,247.9,320.5,248.6,319.7,248.6z"/>
	<polygon fill="#5AA0E6" points="359.3,264.3 281.7,264.3 290.8,247.1 348.9,247.1 	"/>
	<path fill="#FFB750" d="M322.1,250.3h20.2L336,244c-0.3-0.3-0.7-0.5-1.1-0.6l-2.2-0.7c-0.8-0.3-1.7-0.1-2.3,0.3l-7,4.7L322.1,250.3
		z"/>
	<path fill="#FFC455" d="M315.2,251.4h24.1l-7.5-7.5c-0.4-0.4-0.8-0.6-1.3-0.8l-2.6-0.9c-0.9-0.3-2-0.2-2.8,0.4l-8.3,5.6
		L315.2,251.4z"/>
	<path fill="#FFCD55" d="M306.8,252.6h29.1l-9-9c-0.4-0.4-0.9-0.7-1.5-0.9l-3.1-1c-1.1-0.4-2.4-0.2-3.4,0.5l-10.1,6.7L306.8,252.6z"
	/>
	<path fill="#FFD25A" d="M298.5,253.7h33.3l-10.4-10.4c-0.5-0.5-1.1-0.9-1.7-1.1l-3.6-1.2c-1.3-0.4-2.7-0.2-3.9,0.5l-11.5,7.7
		L298.5,253.7z"/>
	<path fill="#FFE15A" d="M285,255.8h43.4l-13.5-13.5c-0.6-0.6-1.4-1.1-2.3-1.4l-4.7-1.6c-1.7-0.6-3.6-0.3-5,0.7l-15,10L285,255.8z"
	/>
	<path fill="#FF4B55" d="M322.8,232.4h-6.3l1.4-6h2.2c0.7,0,1.3,0.5,1.5,1.2L322.8,232.4z"/>
	<path fill="#FF4B55" d="M322.5,233.3h-5.6c-0.5,0-0.8-0.4-0.8-0.8v-0.3c0-0.5,0.4-0.8,0.8-0.8h5.6c0.5,0,0.8,0.4,0.8,0.8v0.3
			C323.3,233,322.9,233.3,322.5,233.3z"/>
	<path fill="#FF4B55" d="M318.8,229.1l-1.4-0.4c-0.4-0.1-0.6-0.6-0.4-1l1-1.4L318.8,229.1z"/>
	<path fill="#41479B" d="M312.5,214.9c-0.1,0.5-0.1,1.1-0.2,1.6c2.3-1.4,4.7-2.2,7.4-2.2c2.7,0,5.2,0.8,7.4,2.2
		c-0.1-0.5-0.1-1.1-0.2-1.6c-2.2-1.2-4.6-1.8-7.2-1.8C317.1,213.1,314.7,213.7,312.5,214.9z"/>
	<path fill="#5AA0E6" d="M312.6,214.2c-0.1,0.5-0.1,1.1-0.2,1.6c2.2-1.4,4.7-2.2,7.3-2.2c2.7,0,5.1,0.8,7.3,2.2
		c-0.1-0.5-0.1-1.1-0.2-1.6c-2.2-1.2-4.6-1.8-7.1-1.8C317.2,212.4,314.8,213,312.6,214.2z"/>
	<path fill="#9BC800" d="M312.7,213.6c-0.1,0.5-0.1,1.1-0.2,1.6c2.2-1.4,4.6-2.2,7.3-2.2c2.6,0,5.1,0.8,7.3,2.2
		c-0.1-0.5-0.1-1.1-0.2-1.6c-2.2-1.2-4.5-1.9-7.1-1.9C317.2,211.7,314.9,212.4,312.7,213.6z"/>
	<path fill="#FFE14E" d="M312.8,212.8c-0.1,0.5-0.1,1.1-0.2,1.6c2.2-1.4,4.6-2.2,7.2-2.2c2.6,0,5,0.8,7.2,2.2
		c-0.1-0.5-0.1-1.1-0.2-1.6c-2.2-1.2-4.5-1.9-7-1.9C317.2,211,314.9,211.6,312.8,212.8z"/>
	<path fill="#FFB14E" d="M312.8,212.1c-0.1,0.5-0.1,1.1-0.2,1.6c2.2-1.4,4.5-2.2,7.1-2.2c2.6,0,4.9,0.8,7.1,2.2
		c-0.1-0.5-0.1-1.1-0.2-1.6c-2.1-1.2-4.4-1.9-6.9-1.9C317.3,210.2,315,210.9,312.8,212.1z"/>
	<path fill="#FF4B55" d="M312.9,211.8c0,0.4-0.1,0.7-0.1,1.1c2.1-1.4,4.4-2.2,7-2.2c2.5,0,4.8,0.8,7,2.2c0-0.4-0.1-0.7-0.1-1.1
		c-2.1-1.2-4.4-1.9-6.8-1.9C317.3,209.9,315,210.6,312.9,211.8z"/>
	<path fill="#FFE15A" d="M360.3,266h-81.1c-0.5,0-1-0.3-1.3-0.8c-0.3-0.5-0.2-1,0.1-1.5l40.5-60.8c0.5-0.8,1.9-0.8,2.4,0l40.5,60.8
			c0.3,0.4,0.3,1,0.1,1.5C361.3,265.7,360.8,266,360.3,266z M281.9,263.1h75.7l-37.8-56.7L281.9,263.1z"/>
	<path fill="#FFE15A" d="M319.7,190.7c-0.8,0-1.4-0.6-1.4-1.4v-5.8c0-0.8,0.6-1.4,1.4-1.4c0.8,0,1.4,0.6,1.4,1.4v5.8
			C321.2,190,320.5,190.7,319.7,190.7z"/>
	<path fill="#FFE15A" d="M322.6,190.7h-5.8c-0.8,0-1.4-0.6-1.4-1.4s0.6-1.4,1.4-1.4h5.8c0.8,0,1.4,0.6,1.4,1.4
			S323.4,190.7,322.6,190.7z"/>
	<path fill="#41479B" d="M319.7,294.9c-0.1,0-0.2,0-0.3,0c-1.4-0.3-6.1-1.5-7.5-2.8c-1.8-1.8-1.8-4.6,0-6.4c0.9-0.9,2-1.3,3.2-1.3
			h0c1.2,0,2.3,0.5,3.2,1.3c1.4,1.4,2.6,6.1,2.9,7.5c0.1,0.5,0,1-0.4,1.3C320.5,294.8,320.1,294.9,319.7,294.9z M315,287.2
			c-0.4,0.1-0.8,0.2-1.2,0.5c-0.6,0.6-0.6,1.7,0,2.3c0.4,0.3,1.9,0.9,3.8,1.5c-0.5-1.9-1.2-3.4-1.5-3.8l1-1l-1,1
			C315.9,287.4,315.5,287.2,315,287.2z"/>
	<path fill="#41479B" d="M319.7,294.9c-0.4,0-0.8-0.2-1-0.4c-0.3-0.4-0.5-0.9-0.4-1.3c0.3-1.4,1.5-6.1,2.9-7.5l0,0
			c0.9-0.9,1.9-1.2,3.2-1.3c1.2,0,2.3,0.5,3.2,1.3c1.8,1.8,1.7,4.6,0,6.4c-1.4,1.4-6.1,2.5-7.5,2.8
			C319.9,294.9,319.8,294.9,319.7,294.9z M322.2,286.7l1,1c-0.3,0.4-0.9,1.9-1.5,3.8c1.9-0.5,3.4-1.1,3.8-1.5c0.6-0.6,0.6-1.7,0-2.3
			c-0.3-0.3-0.7-0.5-1.1-0.5h0c-0.4,0-0.8,0.2-1.1,0.5L322.2,286.7z M322.2,286.7L322.2,286.7L322.2,286.7z"/>
	<path fill="#41479B" d="M313.9,303.6c-0.8,0-1.4-0.6-1.4-1.4c0-6.6,6.3-9.8,6.6-10c0.7-0.4,1.6-0.1,1.9,0.6
			c0.4,0.7,0.1,1.6-0.6,1.9c-0.1,0-5,2.6-5,7.4C315.4,303,314.7,303.6,313.9,303.6z"/>
	<path fill="#41479B" d="M325.5,303.6c-0.8,0-1.4-0.6-1.4-1.4c0-4.8-4.9-7.4-5-7.4c-0.7-0.4-1-1.2-0.6-1.9c0.4-0.7,1.2-1,1.9-0.6
			c0.3,0.1,6.6,3.4,6.6,10C327,303,326.3,303.6,325.5,303.6z"/>
</svg>
