<svg xmlns="http://www.w3.org/2000/svg" width="640px" height="480px" viewBox="0 0 640 480">
	<path fill="#ED2939" d="M0,0h640v240H284.4L0,0z"/>
	<path fill="#002395" d="M0,480h640V240H284.4L0,480z"/>
	<path fill="#FFFFFF" d="M0,0l320,240L0,480V0z"/>
	<path fill="#FFDA44" d="M35.1,240c-0.2,2.2-0.3,4.4-0.3,6.7c0,48.1,39,87.1,87.1,87.1s87.1-39,87.1-87.1c0-2.3-0.1-4.5-0.3-6.7
			H35.1z"/>
	<circle fill="#FFDA44" cx="121.9" cy="173" r="26.8"/>
	<path fill="#D80027" d="M61.6,166.3v87.1c0,46.2,60.3,60.3,60.3,60.3s60.3-14.1,60.3-60.3v-87.1L61.6,166.3L61.6,166.3z"/>
	<path fill="#338AF3" d="M122,285.7c-11.2-4-33.5-14.3-33.5-32.3v-60.3h67v60.3C155.4,271.4,133.1,281.7,122,285.7z"/>
	<polygon fill="#F3F3F3" points="135.3,226.6 135.3,213.2 121.9,206.5 108.5,213.2 108.5,226.6 101.8,233.3 101.8,260.1 142,260.1
		142,233.3 	"/>
</svg>
