<svg xmlns="http://www.w3.org/2000/svg" width="640px" height="480px" viewBox="0 0 640 480">
	<path fill="#000066" d="M640,480V0H0v480H640z"/>
	<path fill="#FFFFFF" d="M0,0v26l331.9,206.2h41.8v-26L41.7,0H0z M373.7,0v26l-332,206.2H0v-26L331.9,0H373.7L373.7,0z"/>
	<path fill="#FFFFFF" d="M155.7,0v232.2H218V0H155.7z M0,77.4v77.4h373.7V77.4H0z"/>
	<path fill="#CC0000" d="M0,92.9v46.4h373.7V92.9H0z M168.2,0v232.2h37.3V0H168.2L168.2,0z M0,232.2l124.6-77.4h27.8L27.8,232.2H0z
		 M0,0l124.6,77.4H96.7L0,17.3V0z M221.3,77.4L345.8,0h27.9L249,77.4h-27.8H221.3z M373.7,232.2L249,154.8h28l96.7,60V232.2
		L373.7,232.2z"/>
	<path fill="#FFE15A" d="M414.2,212.4c-2.3,0-4.1,1.9-4.1,4.1v70.5c0,141,99.5,165.9,99.5,165.9s99.5-24.9,99.5-165.9v-70.5
		c0-2.3-1.9-4.1-4.1-4.1H414.2z"/>
	<path fill="#F5F5F5" d="M598.8,222.8v64.3c0,119.9-74.1,150.2-89.2,155.1c-15.1-4.9-89.2-35.2-89.2-155.1v-64.3L598.8,222.8
		 M605,212.4H414.2c-2.3,0-4.1,1.9-4.1,4.1v70.5c0,141,99.5,165.9,99.5,165.9s99.5-24.9,99.5-165.9v-70.5
		C609.1,214.3,607.3,212.4,605,212.4L605,212.4z"/>
	<path fill="#73AF00" d="M520.7,343.8h-21.2c0,0-17.1,17.1-21,54.7c-0.1,1.2,0.4,2.4,1.3,3.2c3.6,2.8,13.7,9.3,30.3,9.3
		s26.7-6.5,30.3-9.3c0.9-0.7,1.4-2,1.3-3.2C537.8,360.9,520.7,343.8,520.7,343.8z"/>
	<path fill="#FF4B55" d="M520.7,340.2h-21.2v-22c0-3.5,2.8-6.3,6.3-6.3h8.6c3.5,0,6.3,2.8,6.3,6.3L520.7,340.2L520.7,340.2z"/>
	<path fill="#FF4B55" d="M522.2,347.3h-24.1c-1.2,0-2.1-0.9-2.1-2.1v-2.9c0-1.2,0.9-2.1,2.1-2.1h24.1c1.2,0,2.1,0.9,2.1,2.1v2.9
			C524.3,346.4,523.3,347.3,522.2,347.3z"/>
	<path fill="#D35A10" d="M591.5,269.1c-0.6,0-9.9,0-19.4,1.7v-5.5c8.1-3.7,16-5.6,16.2-5.6c1-0.2,1.5-1.2,1.3-2.1
		c-0.2-1-1.2-1.5-2.1-1.3c-0.5,0.1-7.7,1.8-15.4,5.2c-0.1-2.1-0.9-4.1-2.1-5.7c6.3-4.9,11.7-8,11.8-8.1c0.8-0.5,1.1-1.6,0.7-2.4
		c-0.5-0.8-1.6-1.1-2.4-0.7c-0.4,0.2-6.1,3.5-12.7,8.6c-1.7-1.1-3.7-1.8-5.9-1.8c-2.3,0-4.4,0.7-6.1,2c1.8-9.1,5.5-13,5.6-13.1
		c0.7-0.7,0.7-1.8,0-2.5c-0.7-0.7-1.8-0.7-2.5,0c-0.2,0.2-3.6,3.8-5.8,11.7c-2.2-8-5.6-11.5-5.8-11.7c-0.7-0.7-1.8-0.7-2.5,0
		c-0.7,0.7-0.7,1.8,0,2.5c0,0.1,3.8,4,5.6,13.1c-1.7-1.2-3.8-2-6.1-2c-2.2,0-4.2,0.7-5.9,1.8c-6.6-5.1-12.2-8.4-12.7-8.6
		c-0.8-0.5-1.9-0.2-2.4,0.7c-0.5,0.8-0.2,1.9,0.7,2.4c0.1,0.1,5.5,3.2,11.8,8.1c-1.2,1.6-1.9,3.6-2.1,5.7
		c-7.8-3.4-14.9-5.1-15.4-5.2c-1-0.2-1.9,0.4-2.1,1.3c-0.2,1,0.4,1.9,1.3,2.1c0.1,0,8.1,1.9,16.2,5.6v5.5
		c-9.6-1.7-18.8-1.7-19.4-1.7c-1,0-1.8,0.8-1.8,1.8c0,1,0.8,1.8,1.8,1.8c0.2,0,9.8,0,19.4,1.7v5.7c-5.3-0.2-11.2,0.6-16.7,3.3
		c-0.9,0.4-1.2,1.5-0.8,2.4c0.3,0.6,0.9,1,1.6,1c0.3,0,0.5-0.1,0.8-0.2c4.9-2.4,10.3-3.1,15.1-2.9v21.9c0,2.7-0.3,5.4-0.8,8
		l-2.7,13.6c-0.2,1,0.4,1.9,1.4,2.1c0.1,0,0.2,0,0.3,0c0.8,0,1.6-0.6,1.7-1.4l2.7-13.6c0.6-2.9,0.9-5.8,0.9-8.7V284
		c2.7,0.3,5,0.8,7,1.3l1.3,17.5c0.2,2.2,1.3,4.1,2.9,5.3l-5.7,8.6c-3.1,4.6,0.2,10.8,5.8,10.8h9.4c5.5,0,8.8-6.2,5.8-10.8l-5.7-8.6
		c1.6-1.3,2.7-3.2,2.9-5.3l1.3-17.5c1.9-0.5,4.3-1,7-1.3v21.6c0,2.9,0.3,5.8,0.9,8.7l2.7,13.6c0.2,0.8,0.9,1.4,1.7,1.4
		c0.1,0,0.2,0,0.3,0c1-0.2,1.6-1.1,1.4-2.1l-2.7-13.6c-0.5-2.6-0.8-5.3-0.8-8v-21.9c4.9-0.2,10.2,0.5,15.1,2.9
		c0.3,0.1,0.5,0.2,0.8,0.2c0.6,0,1.3-0.4,1.6-1c0.4-0.9,0.1-1.9-0.8-2.4c-5.5-2.7-11.4-3.5-16.7-3.3v-5.7c9.6-1.7,19.3-1.7,19.4-1.7
		c1,0,1.8-0.8,1.8-1.8C593.2,269.9,592.4,269.1,591.5,269.1z M568.5,271.5c-2.1,0.5-4.2,1-6.2,1.7c0-0.7-0.1-1.4-0.3-2
		c2-1.5,4.2-2.9,6.5-4.1V271.5z M568.5,262v1c-2.8,1.4-5.6,3-8,4.8c-0.5-0.7-1.1-1.3-1.8-1.9c2.6-2.9,5.6-5.6,8.5-8
		C568,259.1,568.5,260.5,568.5,262z M561.4,255c1.1,0,2,0.2,2.9,0.7c-3.1,2.6-6.2,5.5-8.9,8.7c-0.4-0.1-0.7-0.2-1.1-0.3v-0.2
		c0-0.8,0-1.6,0.1-2.3C554.7,257.8,557.7,255,561.4,255z M543.7,255c3.7,0,6.7,2.9,7,6.5c0,0.8,0.1,1.5,0.1,2.3v0.2
		c-0.4,0.1-0.7,0.2-1.1,0.3c-2.8-3.2-5.9-6.1-8.9-8.7C541.7,255.2,542.7,255,543.7,255z M536.6,262c0-1.5,0.5-2.9,1.3-4.1
		c2.9,2.4,5.8,5.1,8.5,8c-0.7,0.5-1.3,1.2-1.8,1.9c-2.5-1.8-5.2-3.4-8-4.8L536.6,262L536.6,262z M536.6,267c2.3,1.2,4.5,2.6,6.5,4.1
		c-0.2,0.7-0.3,1.3-0.3,2c-2-0.7-4-1.2-6.2-1.7V267z M536.6,280.4v-5.3c2.2,0.5,4.4,1.1,6.3,1.8l0.3,4.5
		C541.4,281,539.1,280.6,536.6,280.4z M568.5,280.4c-2.5,0.3-4.7,0.7-6.7,1.1l0.3-4.5c2-0.7,4.1-1.3,6.3-1.8V280.4z"/>
	<path fill="#FFA033" d="M479.7,316.8h-7.9l-30.4-27c-3.3-2.9-4.7-7.5-3.6-11.8l8.5-33.9c0.7-3,4.5-4,6.7-1.8l13.7,13.7
		c0.7,0.7,1.8,1.2,2.8,1.2h10.3L479.7,316.8L479.7,316.8z"/>
	<path fill="#FF9480" d="M474.1,249.1l-4.9,21.9c-0.9,4-0.7,8.1,0.4,12l10.1,33.8h7.9l10.1-33.8c1.2-3.9,1.3-8,0.4-12l-4.9-21.9
		c-1-4.5-5-7.7-9.7-7.7h0C479.1,241.4,475.1,244.6,474.1,249.1z"/>
	<path fill="#FFA0E4" d="M485.3,249.3h-3.2c-1.3,0-2.4,1.1-2.4,2.4v65.2h7.9v-65.2C487.7,250.4,486.6,249.3,485.3,249.3z"/>
</svg>
