<svg xmlns="http://www.w3.org/2000/svg" width="640px" height="480px" viewBox="0 0 640 480">
	<path fill="#28AE66" d="M0,0h640v480H0V0z"/>
	<path fill="#FFFFFF" d="M206.8,128.9c26.2,12.6,57.3,0,68.5-17.4c11.6-16.3,13-43.6-6.9-68.6c30.9,25.7,37.9,54.8,22.4,78.8
	C270.2,149.2,224.7,148.3,206.8,128.9z"/>
	<path fill="#FFFFFF" d="M253.2,65.1l5.3,0.1l-4.1,3.3l1.6,5.3l-4.4-3.1l-4.2,3.1l1.4-5.2l-4.2-3.3l5.3-0.1l1.8-5.2L253.2,65.1z
	 M227.3,97.7h5.3l-4.1,3.4l1.6,5.2l-4.4-3.1l-4.3,3.2l1.5-5.3l-4.2-3.2l5.3-0.2l1.7-5.2L227.3,97.7z M229,72h5.3l-4.2,3.4l1.6,5.2
	l-4.3-3.1l-4.3,3.2l1.5-5.3l-4.2-3.3l5.3-0.1l1.7-5.2L229,72z M229,46.2h5.3l-4.3,3.5l1.6,5.2l-4.3-3l-4.3,3.1l1.5-5.2l-4.2-3.3
	l5.3-0.1l1.7-5.2L229,46.2z M200.2,78.8h5.3l-4.2,3.4l1.6,5.2l-4.3-3.1l-4.3,3.2l1.5-5.2l-4.2-3.2l5.3-0.2l1.7-5.2L200.2,78.8z"/>
	<rect x="19.9" fill="#FF4B55" width="134.7" height="480"/>
	<polygon fill="#F5F5F5" points="141.2,58.5 114.2,81 60.3,81 33.4,58.5 33.4,36 60.3,13.5 114.2,13.5 141.2,36 	"/>
	<polygon fill="#73AF00" points="141.2,247.5 114.2,270 60.3,270 33.4,247.5 33.4,225 60.3,202.5 114.2,202.5 141.2,225 		"/>
	<polygon fill="#73AF00" points="141.2,153 114.2,175.5 60.3,175.5 33.4,153 33.4,130.5 60.3,108 114.2,108 141.2,130.5 		"/>
	<polygon fill="#73AF00" points="141.2,342 114.2,364.5 60.3,364.5 33.4,342 33.4,319.5 60.3,297 114.2,297 141.2,319.5 		"/>
	<polygon fill="#FFB400" points="19.9,67.5 46.9,94.5 19.9,121.5 		"/>
	<polygon fill="#FFB400" points="154.7,121.5 127.7,94.5 154.7,67.5 		"/>
	<polygon fill="#FFB400" points="19.9,162 46.9,189 19.9,216 		"/>
	<polygon fill="#FFB400" points="154.7,216 127.7,189 154.7,162 		"/>
	<polygon fill="#FFB400" points="19.9,256.5 46.9,283.5 19.9,310.5 		"/>
	<polygon fill="#FFB400" points="154.7,310.5 127.7,283.5 154.7,256.5 		"/>
	<polygon fill="#FFB400" points="19.9,351 46.9,378 19.9,405 		"/>
	<polygon fill="#FFB400" points="154.7,405 127.7,378 154.7,351 		"/>
	<polygon fill="#FFB400" points="19.9,0 46.9,0 19.9,27 		"/>
	<polygon fill="#FFB400" points="154.7,27 127.7,0 154.7,0 		"/>
	<rect x="80.6" y="108" fill="#FFB400" width="13.5" height="67.5"/>
	<rect x="60.3" y="135" fill="#FF4B55" width="53.9" height="13.5"/>
	<polygon fill="#FFB400" points="127.7,119.2 114.2,108 114.2,175.5 127.7,164.2 		"/>
	<polygon fill="#FFB400" points="46.9,164.2 60.3,175.5 60.3,108 46.9,119.2 		"/>
	<polygon fill="#FFB400" points="87.3,13.5 60.3,13.5 33.4,36 33.4,47.3 87.3,47.3 		"/>
	<polygon fill="#FFB400" points="87.3,81 114.2,81 141.2,58.5 141.2,47.3 87.3,47.3 		"/>
	<polygon fill="#FF4B55" points="87.3,67.5 60.3,47.3 87.3,27 114.2,47.3 	"/>
	<polygon fill="#73AF00" points="87.3,67.5 114.2,47.3 114.1,47.3 87.3,47.3 		"/>
	<polygon fill="#73AF00" points="87.3,47.3 87.3,27 60.5,47.3 		"/>
	<rect x="60.3" y="216" fill="#FF4B55" width="53.9" height="40.5"/>
	<rect x="114.2" y="229.5" fill="#FFB400" width="13.5" height="13.5"/>
	<rect x="80.6" y="229.5" fill="#F5F5F5" width="13.5" height="13.5"/>
	<rect x="80.6" y="310.5" fill="#FF4B55" width="13.5" height="13.5"/>
	<rect x="100.8" y="324" fill="#FFB400" width="13.5" height="13.5"/>
	<rect x="60.3" y="324" fill="#FFB400" width="13.5" height="13.5"/>
	<rect x="80.6" y="337.5" fill="#FF4B55" width="13.5" height="13.5"/>
	<rect x="46.9" y="229.5" fill="#FFB400" width="13.5" height="13.5"/>
	<polygon fill="#F5F5F5" points="141.2,436.5 114.2,459 60.3,459 33.4,436.5 33.4,414 60.3,391.5 114.2,391.5 141.2,414 	"/>
	<polygon fill="#FFB400" points="87.3,391.5 60.3,391.5 33.4,414 33.4,425.2 87.3,425.2 		"/>
	<polygon fill="#FFB400" points="87.3,459 114.2,459 141.2,436.5 141.2,425.2 87.3,425.2 		"/>
	<polygon fill="#FF4B55" points="114.2,432 87.3,445.5 60.3,432 60.3,418.5 87.3,405 114.2,418.5 	"/>
</svg>
