<svg xmlns="http://www.w3.org/2000/svg" width="640px" height="480px" viewBox="0 0 640 480">
	<path fill="#FFFFFF" d="M320,0h320v480H320V0z"/>
	<path fill="#FFE000" d="M0,0h320v480H0V0z"/>
	<path fill="#A3A3A3" d="M538.5,183.7l6.2-11.6l-12.8,5.8L538.5,183.7z"/>
	<path fill="#A3A3A3" d="M539,173.2c0,2.6,2.1,4.7,4.7,4.7s4.7-2.1,4.7-4.7c0-2.6-2.1-4.7-4.7-4.7S539,170.6,539,173.2"/>
	<path fill="#A3A3A3" d="M528.1,175.9c-2.2,2.2-1.1,6.9,2.5,10.5c3.6,3.6,8.2,4.7,10.5,2.5c2.2-2.2,1.1-6.9-2.5-10.5
		C535,174.8,530.3,173.7,528.1,175.9"/>
	<path fill="#FFE000" d="M419.4,285.1c7.2,6.8,13.3-2,24.9-12.2c10.5-9.3,79.7-73.7,87.2-80.2c7.4-6.5,0.5-16.4-8.1-8.4
		c-8.6,8-91.4,77.3-97.6,83C419.5,272.9,411.4,277.5,419.4,285.1"/>
	<path fill="#FFE000" d="M529.5,189.8l8.3,9.3l-4.1,3.6l4.1,3.6l4.2-3.6l6,6.5v6.5l-11.6,9.8l-6.8-4.5v-5.4h-5.7v5.1l3,0.3l2.7,3
		l0.3,6.9l-10.3,8.3l-21.1-20L529.5,189.8z"/>
	<path fill="#FFE000" d="M382.3,306c-5.1-0.1-9.2-4.2-9.2-9.3c0-5.1,4.2-9.3,9.3-9.3c5.1,0,9.3,4.2,9.3,9.3c0,0,0,0.1,0,0.1
		c0.3,0,0.5-0.2,0.8-0.2c0-5.1,4.2-9.3,9.3-9.3c5.1,0,9.3,4.2,9.3,9.3c0,5.1-4.1,9.2-9.2,9.3c5.1,0.1,9.2,4.2,9.2,9.3
		c0,5.1-4.2,9.3-9.3,9.3c-5.1,0-9.3-4.2-9.3-9.3c-0.3,0-0.5-0.2-0.8-0.2c0,0,0,0.1,0,0.1c0,5.1-4.2,9.3-9.3,9.3
		c-5.1,0-9.3-4.2-9.3-9.3C373.1,310.3,377.2,306.1,382.3,306 M364.2,306c0,15.6,12.7,28.3,28.3,28.3s28.3-12.7,28.3-28.3
		s-12.7-28.3-28.3-28.3S364.2,290.4,364.2,306"/>
	<path fill="#A3A3A3" d="M411,279.1c-2.2,2.2-1.1,6.9,2.5,10.5c3.6,3.6,8.2,4.7,10.5,2.5c2.2-2.2,1.1-6.9-2.5-10.5
		C417.9,278,413.2,276.9,411,279.1"/>
	<path fill="#A3A3A3" d="M365.4,282.7c0,2.7,2.2,4.9,4.9,4.9c2.7,0,4.9-2.2,4.9-4.9c0-2.7-2.2-4.9-4.9-4.9
		C367.6,277.8,365.4,280,365.4,282.7"/>
	<path fill="#A3A3A3" d="M407.8,329.5c0,2.7,2.2,4.9,4.9,4.9c2.7,0,4.9-2.2,4.9-4.9c0-2.7-2.2-4.9-4.9-4.9
		C409.9,324.7,407.8,326.8,407.8,329.5"/>
	<path fill="#A3A3A3" d="M364.2,328c0,2.7,2.2,4.9,4.9,4.9c2.7,0,4.9-2.2,4.9-4.9c0-2.7-2.2-4.9-4.9-4.9
		C366.3,323.1,364.2,325.3,364.2,328"/>
	<path fill="#B5B5B5" d="M499.5,237.9c2.6-1.7,4.7-4.1,6-7c5.7-12.4-1.4-32.4-5.7-40.1c-5.3-9.4-2-15.6,0.5-18.6
		c-0.7-0.2-1.6-0.5-2.5-0.5c-2.1,0-4.1,1-6,3c-5.5,5.9-2.9,13.8,4.8,31.8C502.5,220,504.8,229.7,499.5,237.9"/>
	<path fill="#B5B5B5" d="M488.9,180c2.7-4,6.9-6.2,12.1-6.2c4.2,0,8.5,1.6,12.1,4.3l5.3-8c-2.4-2-8.1-6-14.5-6
		c-1.7,0-3.3,0.3-4.9,0.9C491.6,167.6,489.2,174.3,488.9,180"/>
	<path fill="#FFE000" d="M374.1,183.7l-6.2-11.6l12.8,5.8L374.1,183.7z"/>
	<path fill="#FFE000" d="M373.6,173.2c0,2.6-2.1,4.7-4.7,4.7c-2.6,0-4.7-2.1-4.7-4.7c0-2.6,2.1-4.7,4.7-4.7
		C371.5,168.5,373.6,170.6,373.6,173.2"/>
	<path fill="#FFE000" d="M384.5,175.9c2.2,2.2,1.1,6.9-2.5,10.5c-3.6,3.6-8.2,4.7-10.5,2.5c-2.2-2.2-1.1-6.9,2.5-10.5
		C377.6,174.8,382.3,173.7,384.5,175.9"/>
	<path fill="#A3A3A3" d="M493.2,285.1c-7.2,6.8-13.3-2-24.9-12.2c-10.5-9.3-79.7-73.7-87.2-80.2c-7.4-6.5-0.5-16.4,8.1-8.4
		c8.6,8,91.4,77.3,97.6,83C493.1,272.9,501.2,277.5,493.2,285.1"/>
	<path fill="#A3A3A3" d="M383,189.8l-8.3,9.3l4.2,3.6l-4.2,3.6l-4.2-3.6l-6,6.5v6.5l11.6,9.8l6.8-4.5v-5.4h5.7v5.1l-3,0.3l-2.7,3
		l-0.3,6.9l10.3,8.3l21.1-20L383,189.8z"/>
	<path fill="#A3A3A3" d="M539.4,315.3c0,5.1-4.2,9.3-9.3,9.3c-5.1,0-9.3-4.2-9.3-9.3c0-0.1,0-0.1,0-0.2c-0.3,0-0.5,0.2-0.8,0.2
		c0,5.1-4.2,9.3-9.3,9.3c-5.1,0-9.3-4.2-9.3-9.3c0-5.1,4.1-9.2,9.2-9.3c-5.1-0.1-9.2-4.2-9.2-9.3c0-5.1,4.2-9.3,9.3-9.3
		s9.3,4.2,9.3,9.3c0.3,0,0.5,0.2,0.8,0.2c0,0,0-0.1,0-0.1c0-5.1,4.2-9.3,9.3-9.3c5.1,0,9.3,4.2,9.3,9.3c0,5.1-4.1,9.2-9.2,9.3
		C535.3,306.1,539.4,310.2,539.4,315.3 M520.1,277.7c-15.6,0-28.3,12.7-28.3,28.3c0,15.6,12.7,28.3,28.3,28.3
		c15.7,0,28.4-12.7,28.4-28.3C548.4,290.4,535.7,277.7,520.1,277.7"/>
	<path fill="#FFE000" d="M501.6,279.1c2.2,2.2,1.1,6.9-2.5,10.5c-3.6,3.6-8.2,4.7-10.5,2.5c-2.2-2.2-1.1-6.9,2.5-10.5
		C494.7,278,499.4,276.9,501.6,279.1"/>
	<path fill="#FFE000" d="M547.1,282.7c0,2.7-2.2,4.9-4.9,4.9c-2.7,0-4.9-2.2-4.9-4.9c0-2.7,2.2-4.9,4.9-4.9
		C545,277.8,547.1,280,547.1,282.7"/>
	<path fill="#FFE000" d="M504.8,329.5c0,2.7-2.2,4.9-4.9,4.9c-2.7,0-4.9-2.2-4.9-4.9c0-2.7,2.2-4.9,4.9-4.9
		C502.6,324.7,504.8,326.8,504.8,329.5"/>
	<path fill="#FFE000" d="M548.4,328c0,2.7-2.2,4.9-4.9,4.9c-2.7,0-4.9-2.2-4.9-4.9c0-2.7,2.2-4.9,4.9-4.9
		C546.3,323.1,548.4,325.3,548.4,328"/>
	<path d="M483.3,173.9c0,27.9-12.2,27.2-27.2,27.2c-15,0-27.1,0.8-27.1-27.2s12.1-58.1,27.1-58.1
	C471.1,115.8,483.3,145.9,483.3,173.9"/>
	<path fill="#FFFFFF" d="M454.9,199.1c-8.1,0-13.7-0.2-17.6-3.2c-4.4-3.4-6.5-10.5-6.5-22c0-28.4,12.5-56.2,25.3-56.2
	c12.8,0,25.3,27.8,25.3,56.2c0,25.3-10.2,25.3-23,25.3H454.9z"/>
	<path fill="#FFE000" d="M470.3,180c-9.5-2.8-8-11.9-14.2-11.9c-6.2,0-4.7,9.1-14.2,11.9c-9.5,2.8-14.2-1.6-14.2-1.6l4.4,18.2
		c0,0,8-6.7,24-6.7c16,0,24,6.7,24,6.7l4.4-18.2C484.5,178.4,479.8,182.8,470.3,180"/>
	<path fill="#FFE000" d="M471.9,155.9c-10.6-2.9-8.9-12.5-15.8-12.5c-6.9,0-5.2,9.6-15.8,12.5c-10.5,2.9-15.7-1.7-15.7-1.7l4.9,19.2
		c0,0,8.9-7.1,26.6-7.1s26.6,7.1,26.6,7.1l4.9-19.2C487.6,154.2,482.4,158.8,471.9,155.9"/>
	<path fill="#FFE000" d="M469.4,130.6c-8.9-2.5-7.5-10.5-13.3-10.5c-5.8,0-4.4,8.1-13.3,10.5c-8.9,2.5-13.2-1.4-13.2-1.4l4.2,16.1
		c0,0,7.5-4.5,22.4-4.5c14.9,0,22.4,4.5,22.4,4.5l4.1-16.1C482.6,129.2,478.2,133,469.4,130.6"/>
	<path fill="#FFE000" d="M452.7,112.6c0,2.8,1.5,5.1,3.4,5.1c1.8,0,3.4-2.3,3.4-5.1c0-2.8-1.5-5.1-3.4-5.1
		C454.2,107.4,452.7,109.7,452.7,112.6"/>
	<path fill="#FFE000" d="M447.6,107c0,1.9,3.8,3.5,8.5,3.5c4.7,0,8.5-1.6,8.5-3.5c0-2-3.8-3.5-8.5-3.5
		C451.4,103.5,447.6,105,447.6,107"/>
	<path fill="#FFE000" d="M452.7,101.8c0,2,1.5,3.5,3.4,3.5c1.8,0,3.4-1.6,3.4-3.5c0-2-1.5-3.5-3.4-3.5
		C454.2,98.3,452.7,99.9,452.7,101.8"/>
	<path fill="#B5B5B5" d="M412.7,237.9c-2.6-1.7-4.7-4.1-6-7c-5.7-12.4,1.4-32.4,5.7-40.1c5.3-9.4,2.1-15.6-0.5-18.6
		c0.7-0.2,1.6-0.5,2.5-0.5c2.1,0,4.1,1,5.9,3c5.6,5.9,3,13.8-4.8,31.8C409.7,220,407.4,229.7,412.7,237.9"/>
	<path fill="#B5B5B5" d="M423.3,180c-2.7-4-6.9-6.2-12.1-6.2c-4.2,0-8.5,1.6-12.1,4.3l-5.3-8c2.4-2,8.1-6,14.5-6
		c1.7,0,3.3,0.3,4.9,0.9C420.5,167.6,423,174.3,423.3,180"/>
	<path fill="#FA0204" d="M456.1,236.3c3.8,2.9,4.7,14.3,4.7,27.7v104.4c0,0,5.8,1.5,4.1,17c-0.5,4.4-9.2,3.6-10.7,0
		c-1.5-3.6-0.8-15.1,2-16.7V264.9c0-15.5-2.6-21.5-3.4-24.4C451.9,237.6,454.3,234.9,456.1,236.3"/>
	<path fill="#FA0204" d="M492,308.7c-3.7-2.6-9-9.2-13.5-15.5c-6-8.3-7.4-14-13.3-21.2c-5.9-7.1-21.4-21.9-25-21.4
		c-1.4,0.2-3,3.6-1.6,4.8c1.4,1.2,5.7,6,15.6,13.4c9.8,7.4,11.3,15.8,19.5,27.7c7.6,11,14.1,18.5,20,19.5
		C492.7,313.6,492.2,311.2,492,308.7"/>
	<path fill="#FA0204" d="M472.7,246.8c-3.5,3.3-14.3,13.9-20.1,20.7c-5.8,6.9-13.3,23.2-19.8,30.6c-4.2,4.8-8.8,8.8-12.2,11.3
		c-0.3,2.6-0.9,5.1-1.8,7.4c4.7-1.6,11.5-5.9,19.9-18.2c11.7-16.9,17.3-29.4,23-34.2c5.7-4.8,7.9-6.2,11.1-9.5
		C475.8,251.8,476.2,243.5,472.7,246.8"/>
	<path fill="#FA0204" d="M449.1,260.7v110.1c-6.3,5.1-4.5,13.5-3.3,17.6c1.2,4.1,11.5,4.1,13.1,2c1.6-2.1,2-16-3.9-20.8v-102
		C455,264.9,449.1,256.6,449.1,260.7"/>
	<path fill="#FA0204" d="M410.5,312.1c-5.7,3.9-10.5,10.7,2.1,15.8c12.6,5.1,29.4,11.9,43.5,11.9c14.1,0,40.4-9.6,46.6-13.8
		c6.2-4.3,8.8-9.4-1-12.3c-5.2-1.5-5.9,2.4-3.3,3.3c2.7,0.9,5.8,3.7-1,6.1c-6.8,2.5-22.2,9.7-42.5,9.7c-20.2,0-39.3-8.6-42.4-9.7
		c-3.1-1.1-4-4.7-1.8-6.1C413.1,315.5,413,310.4,410.5,312.1"/>
	<path fill="#CE9D0A" d="M463.1,365c0,2.2-1.8,4-4,4c-2.2,0-4-1.8-4-4c0-2.2,1.8-4,4-4C461.3,361,463.1,362.8,463.1,365"/>
	<path fill="#CE9D0A" d="M456.3,367.7c0,2.2-1.8,4-4,4c-2.2,0-4-1.8-4-4c0-2.2,1.8-4,4-4C454.5,363.6,456.3,365.4,456.3,367.7"/>
</svg>
